<svg width="24" height="25" viewBox="0 0 24 25" fill="none" xmlns="http://www.w3.org/2000/svg">
<path d="M12.37 2.65009L21.37 6.25006C21.72 6.39006 22 6.81006 22 7.18006V10.5001C22 11.0501 21.55 11.5001 21 11.5001H3C2.45 11.5001 2 11.0501 2 10.5001V7.18006C2 6.81006 2.28 6.39006 2.63 6.25006L11.63 2.65009C11.83 2.57009 12.17 2.57009 12.37 2.65009Z" stroke="#6A6B6F" stroke-width="2" stroke-miterlimit="10" stroke-linecap="round" stroke-linejoin="round"/>
<path d="M22 22.5H2V19.5C2 18.95 2.45 18.5 3 18.5H21C21.55 18.5 22 18.95 22 19.5V22.5Z" stroke="#6A6B6F" stroke-width="2" stroke-miterlimit="10" stroke-linecap="round" stroke-linejoin="round"/>
<path d="M4 18.5V11.5" stroke="#6A6B6F" stroke-width="2" stroke-miterlimit="10" stroke-linecap="round" stroke-linejoin="round"/>
<path d="M8 18.5V11.5" stroke="#6A6B6F" stroke-width="2" stroke-miterlimit="10" stroke-linecap="round" stroke-linejoin="round"/>
<path d="M12 18.5V11.5" stroke="#6A6B6F" stroke-width="2" stroke-miterlimit="10" stroke-linecap="round" stroke-linejoin="round"/>
<path d="M16 18.5V11.5" stroke="#6A6B6F" stroke-width="2" stroke-miterlimit="10" stroke-linecap="round" stroke-linejoin="round"/>
<path d="M20 18.5V11.5" stroke="#6A6B6F" stroke-width="2" stroke-miterlimit="10" stroke-linecap="round" stroke-linejoin="round"/>
<path d="M1 22.5H23" stroke="#6A6B6F" stroke-width="2" stroke-miterlimit="10" stroke-linecap="round" stroke-linejoin="round"/>
<path d="M12 9C12.8284 9 13.5 8.32843 13.5 7.5C13.5 6.67157 12.8284 6 12 6C11.1716 6 10.5 6.67157 10.5 7.5C10.5 8.32843 11.1716 9 12 9Z" stroke="#6A6B6F" stroke-width="2" stroke-miterlimit="10" stroke-linecap="round" stroke-linejoin="round"/>
</svg>
