<svg width="48" height="48" viewBox="0 0 48 48" fill="none" xmlns="http://www.w3.org/2000/svg">
<g clip-path="url(#clip0_940_38101)">
<path d="M42.8998 24.4495L40.946 26.2673L40.8817 26.2182C41.1047 25.3868 41.3277 24.5591 41.5544 23.7315C42.1213 21.6718 42.6882 19.6159 43.2588 17.5562C43.2588 17.5487 43.2588 17.5411 43.2588 17.5373C43.2588 17.4353 43.3118 17.3408 43.4025 17.2917C43.5385 17.269 43.5347 17.4239 43.5839 17.5109C43.8749 18.0475 44.094 18.6182 44.4342 19.1284C44.7554 19.9069 45.1296 20.6816 45.5339 21.4186C45.5831 21.4942 45.6133 21.5811 45.6133 21.6718C45.6133 21.8267 45.5339 21.9741 45.4017 22.0573C44.5513 22.8471 43.7275 23.6521 42.8998 24.4495Z" fill="#F07A25"/>
<path d="M42.8999 24.4496C43.7313 23.6521 44.5552 22.8472 45.3979 22.0611C45.5302 21.978 45.6096 21.8306 45.6096 21.6756C45.6096 21.5849 45.5831 21.498 45.5302 21.4224C45.1221 20.6855 44.7517 19.9107 44.4305 19.1322L45.0125 17.1783C45.2543 17.6432 45.4546 18.0249 45.6474 18.4104C46.1349 19.3816 46.6111 20.3604 47.1175 21.3241C47.1855 21.4186 47.2195 21.532 47.2195 21.6492C47.2195 21.8419 47.1213 22.0233 46.955 22.1253C45.5718 23.4065 44.215 24.7179 42.8508 26.0179C42.7638 26.1313 42.6467 26.2182 42.5106 26.2636C42.6845 25.6702 42.8167 25.0618 42.8999 24.4496Z" fill="#0C8D48"/>
<path fill-rule="evenodd" clip-rule="evenodd" d="M12.2579 21.7701C12.5452 21.9024 12.7303 22.1896 12.7303 22.5033C12.7303 22.6317 12.7001 22.7602 12.6396 22.8736C12.4129 23.6106 12.2277 24.3588 12.0236 25.0996C11.9669 25.8025 11.3774 26.3429 10.6744 26.3429C10.5951 26.3429 10.5157 26.3354 10.4363 26.324C7.31094 26.324 4.1893 26.3278 1.06389 26.3316C0.818241 26.3316 0.727539 26.3089 0.806903 26.033C1.61188 23.1797 2.40551 20.3264 3.19537 17.4731C3.21426 17.303 3.35787 17.1708 3.52794 17.1708C3.54306 17.1708 3.56195 17.1708 3.57707 17.1746C6.79318 17.1821 10.0131 17.1783 13.2292 17.1859C13.2745 17.1783 13.3199 17.1708 13.3652 17.1708C13.7243 17.1708 14.0115 17.4618 14.0115 17.817C14.0115 17.9077 13.9926 17.9946 13.9548 18.0778C13.7129 19.0302 13.4484 19.975 13.1725 20.9198C13.0251 21.3355 12.685 21.6529 12.2579 21.7701ZM1.24151 28.0549H1.6081L1.26797 29.4759C1.21884 29.6875 1.2264 29.8463 1.2982 29.9521C1.36623 30.0579 1.4985 30.1108 1.68746 30.1108C1.87642 30.1108 2.02759 30.0579 2.14853 29.9521C2.26946 29.8463 2.35638 29.6875 2.40551 29.4759L2.74564 28.0549H3.116L2.76832 29.5099C2.69273 29.8274 2.55668 30.0617 2.36394 30.2204C2.1712 30.3791 1.91421 30.4547 1.60054 30.4547C1.28686 30.4547 1.07145 30.3754 0.954292 30.2204C0.837137 30.0655 0.818241 29.8274 0.893825 29.5099L1.24151 28.0549ZM19.8579 20.8631C20.9086 20.8631 21.9592 20.8442 23.0098 20.8744C23.0325 20.8744 23.0552 20.8782 23.0778 20.8782C23.3424 20.8782 23.5578 20.6741 23.5767 20.4133C23.8223 19.4761 24.0869 18.5426 24.3174 17.6016C24.325 17.3597 24.5215 17.1708 24.7596 17.1708C24.7936 17.1708 24.8238 17.1746 24.8578 17.1821C25.0317 17.1935 25.2055 17.201 25.3832 17.201C25.5532 17.201 25.7271 17.1935 25.8971 17.1821C26.1768 17.167 26.241 17.2501 26.1617 17.526C25.7649 18.9319 25.3869 20.3453 25.0015 21.7512C24.6311 23.1079 24.2532 24.4647 23.8941 25.8252C23.8866 26.1086 23.6561 26.3354 23.3726 26.3354C23.331 26.3354 23.2895 26.3316 23.2479 26.3203C23.0741 26.3051 22.9002 26.2976 22.7264 26.2976C22.5676 26.2976 22.4089 26.3051 22.2502 26.3165C21.9819 26.3278 21.9403 26.2409 22.0121 25.9877C22.2993 25.0051 22.5563 24.0187 22.8397 23.0323C22.9229 22.7451 22.8851 22.628 22.545 22.6317C20.4059 22.6469 18.2631 22.6469 16.1241 22.6355C16.1014 22.6317 16.0787 22.6317 16.056 22.6317C15.8217 22.6317 15.629 22.8131 15.6177 23.0475C15.3682 24.0376 15.0772 25.0202 14.8165 26.0066C14.8013 26.1842 14.6502 26.324 14.4688 26.324C14.4461 26.324 14.4234 26.3203 14.4007 26.3165C14.2193 26.3051 14.0304 26.3014 13.849 26.3014C13.66 26.3014 13.4711 26.3089 13.2859 26.3203C12.8966 26.3467 12.9609 26.1464 13.0289 25.9045C13.4484 24.3815 13.8679 22.8547 14.2836 21.3317C14.6351 20.0505 14.9865 18.7694 15.3304 17.4882C15.3418 17.3144 15.4854 17.1783 15.6592 17.1783C15.6743 17.1783 15.6932 17.1783 15.7084 17.1821C16.1052 17.201 16.5058 17.201 16.9026 17.1821C17.1785 17.1708 17.2087 17.2728 17.1407 17.5147C16.8572 18.5237 16.5965 19.5403 16.3055 20.5494C16.2261 20.8177 16.2941 20.8706 16.5473 20.8669C17.6509 20.8555 18.7544 20.8631 19.8579 20.8631ZM28.3687 17.2123C28.501 17.2123 28.6333 17.2123 28.7656 17.2123C29.2946 17.2123 29.2984 17.2123 29.1624 17.6999C28.4216 20.3831 27.6809 23.0701 26.9364 25.7534C26.7701 26.3543 26.7626 26.3543 26.1466 26.3543C25.8556 26.3543 25.5608 26.3467 25.2698 26.3581C25.009 26.3694 24.9561 26.2825 25.0279 26.0255C25.7346 23.5085 26.43 20.9878 27.1254 18.467C27.2123 18.2025 27.2841 17.9342 27.337 17.6621C27.337 17.6545 27.337 17.6507 27.337 17.6432C27.337 17.39 27.5411 17.1897 27.7943 17.1897C27.8396 17.1897 27.8888 17.1972 27.9303 17.2123C28.0097 17.2199 28.0929 17.2199 28.176 17.2199C28.2365 17.2161 28.3045 17.2161 28.3687 17.2123ZM38.6029 22.1178C38.2967 22.3899 37.9906 22.6544 37.6921 22.9303C36.547 23.9847 35.4094 25.0391 34.2681 26.0973C34.0791 26.2749 33.9809 26.3051 33.8335 26.0444C32.9907 24.5667 32.1328 23.1004 31.2787 21.6303C31.2523 21.5925 31.2183 21.5547 31.1843 21.5244C31.0558 21.6869 30.9726 21.8872 30.9537 22.0951C30.5947 23.3725 30.247 24.6536 29.9069 25.9386C29.8993 26.1578 29.7217 26.3316 29.5025 26.3316C29.476 26.3316 29.4496 26.3278 29.4231 26.324C29.0414 26.2938 28.6522 26.3127 28.2667 26.3203C28.0891 26.324 27.9908 26.2976 28.0551 26.0708C28.8563 23.1797 29.6537 20.2849 30.4473 17.39C30.4662 17.3597 30.4889 17.3295 30.5153 17.303C30.6703 17.4429 30.795 17.6129 30.8819 17.8019C31.9628 19.6008 33.0398 21.3997 34.1169 23.2024C34.3588 23.6068 34.3512 23.5992 34.714 23.2893C36.6641 21.6265 38.6142 19.9636 40.5718 18.3083C40.9649 17.9757 41.3541 17.6394 41.7812 17.2766C41.7887 17.3219 41.7925 17.3711 41.7925 17.4202C41.7925 17.5676 41.7547 17.715 41.6867 17.8435C40.946 20.5607 40.1939 23.2742 39.457 25.9915C39.4456 26.1842 39.2831 26.3354 39.0904 26.3354C39.0677 26.3354 39.045 26.3316 39.0261 26.3278C38.8372 26.3165 38.6444 26.3127 38.4555 26.3127C38.2741 26.3127 38.0889 26.3165 37.9075 26.3278C37.59 26.3467 37.5636 26.2296 37.6429 25.9537C37.9793 24.767 38.3005 23.5728 38.6255 22.3823C38.6444 22.3483 38.6558 22.3105 38.6558 22.2727C38.6558 22.2085 38.6369 22.1556 38.6029 22.1178ZM45.3223 30.3943L45.8816 28.0549H47.1552L47.0759 28.3762H46.1726L46.0328 28.9619H46.936L46.8567 29.2945H45.9534L45.772 30.0504H46.6753L46.5959 30.3905H45.3223V30.3943ZM45.2883 28.6218C45.2051 28.5311 45.1107 28.4631 45.0049 28.4177C44.899 28.3724 44.7819 28.3497 44.6534 28.3497C44.404 28.3497 44.181 28.4328 43.9845 28.5954C43.7879 28.7616 43.6595 28.9733 43.599 29.234C43.5385 29.4872 43.565 29.6951 43.6783 29.8576C43.7917 30.0201 43.9618 30.1033 44.1961 30.1033C44.3321 30.1033 44.4644 30.0806 44.6005 30.0277C44.7327 29.9785 44.8688 29.903 45.0049 29.8047L44.9028 30.2355C44.7857 30.3111 44.6647 30.364 44.5362 30.4018C44.4115 30.4396 44.2792 30.4547 44.1432 30.4547C43.9693 30.4547 43.8144 30.4245 43.6821 30.3678C43.5499 30.3111 43.4403 30.2242 43.3533 30.107C43.2702 29.9974 43.2135 29.8652 43.1908 29.714C43.1682 29.5628 43.1757 29.4003 43.2173 29.2265C43.2589 29.0564 43.3269 28.8939 43.4214 28.7427C43.5158 28.5916 43.6368 28.4593 43.7766 28.3459C43.9164 28.2325 44.0676 28.1418 44.2301 28.0852C44.3888 28.0247 44.5551 27.9982 44.7252 27.9982C44.8612 27.9982 44.9822 28.0171 45.0956 28.0587C45.2089 28.1003 45.311 28.1607 45.4054 28.2401L45.2883 28.6218ZM42.4841 30.3943L42.3707 29.7934H41.4675L41.0593 30.3943H40.6701L42.3556 27.9604L42.8772 30.3943H42.4841ZM41.6791 29.4759H42.314L42.2082 28.943C42.2045 28.909 42.1969 28.8712 42.1931 28.8259C42.1893 28.7805 42.1856 28.7314 42.1856 28.6785C42.1591 28.7276 42.1364 28.7768 42.11 28.8221C42.0873 28.8675 42.0608 28.9052 42.0382 28.943L41.6791 29.4759ZM39.4192 30.3943L39.9785 28.0549H41.2521L41.1765 28.3762H40.2733L40.1334 28.9582H41.0367L40.9573 29.2907H40.0541L39.7895 30.3905H39.4192V30.3943ZM38.2287 29.3474L37.9793 30.3943H37.6316L38.1909 28.0549H38.7087C38.8598 28.0549 38.977 28.0663 39.0526 28.0852C39.1319 28.1041 39.1962 28.1381 39.2415 28.1872C39.2982 28.2439 39.336 28.3157 39.3511 28.4064C39.3663 28.4971 39.3625 28.5954 39.3398 28.7012C39.2945 28.8901 39.2151 29.0337 39.1017 29.1433C38.9883 29.2492 38.8409 29.3134 38.6633 29.3323L39.1924 30.398H38.7729L38.2665 29.3512H38.2287V29.3474ZM38.3232 29.0526H38.3912C38.5877 29.0526 38.7238 29.03 38.7994 28.9808C38.875 28.9355 38.9279 28.8523 38.9543 28.7314C38.9846 28.6029 38.9732 28.5122 38.9165 28.4593C38.8598 28.4064 38.7389 28.3799 38.5537 28.3799H38.4857L38.3232 29.0526ZM35.9347 30.3943L36.4941 28.0549H37.7677L37.6883 28.3762H36.7851L36.6452 28.9619H37.5485L37.4691 29.2945H36.5659L36.3845 30.0504H37.2877L37.2045 30.3905H35.9347V30.3943ZM35.5304 28.3762L35.0466 30.3943H34.6763L35.16 28.3762H34.5553L34.6309 28.0549H36.2106L36.135 28.3762H35.5304ZM31.7474 30.3943L32.3294 27.9604L33.4367 29.3928C33.4669 29.4343 33.4971 29.4759 33.5236 29.5213C33.5538 29.5666 33.5841 29.6195 33.6143 29.6762L34.0036 28.0549H34.3475L33.7655 30.485L32.6355 29.03C32.6052 28.9922 32.5788 28.9506 32.5523 28.9052C32.5259 28.8599 32.5032 28.8145 32.4805 28.7692L32.0913 30.3943H31.7474ZM30.8441 30.3943L31.4034 28.0549H31.7738L31.2145 30.3943H30.8441ZM28.108 29.9256L28.4368 29.7858C28.4405 29.8916 28.4708 29.971 28.535 30.0239C28.5955 30.0768 28.6862 30.107 28.8033 30.107C28.9129 30.107 29.0074 30.0768 29.0868 30.0126C29.1662 29.9483 29.2191 29.8652 29.2455 29.7594C29.2795 29.6233 29.1964 29.4986 28.9999 29.3928C28.9734 29.3776 28.9507 29.3663 28.9356 29.3588C28.7126 29.234 28.5728 29.1207 28.5161 29.0186C28.4557 28.9166 28.4443 28.7919 28.4821 28.6445C28.5275 28.4555 28.6295 28.3006 28.7807 28.1834C28.9356 28.0663 29.1132 28.0058 29.3211 28.0058C29.4874 28.0058 29.6234 28.0398 29.7179 28.1078C29.8162 28.1759 29.8691 28.2703 29.8842 28.3951L29.5592 28.55C29.5327 28.4744 29.4949 28.4215 29.4458 28.3875C29.4005 28.3535 29.34 28.3384 29.272 28.3384C29.1737 28.3384 29.0868 28.3648 29.015 28.4177C28.9432 28.4706 28.8978 28.5424 28.8751 28.6331C28.8411 28.773 28.9394 28.9052 29.1662 29.0262C29.185 29.0375 29.1964 29.0413 29.2077 29.0489C29.408 29.1547 29.5365 29.2605 29.597 29.3625C29.6574 29.4646 29.6688 29.5931 29.631 29.7442C29.5781 29.9672 29.4685 30.1411 29.3022 30.2733C29.1359 30.4018 28.9356 30.4698 28.7051 30.4698C28.5123 30.4698 28.3612 30.4245 28.2591 30.3338C28.1571 30.228 28.1042 30.0957 28.108 29.9256ZM27.7225 28.3762L27.2388 30.3943H26.8684L27.3521 28.3762H26.7475L26.823 28.0549H28.4027L28.3272 28.3762H27.7225ZM23.9433 30.3943L24.5253 27.9604L25.6326 29.3928C25.6628 29.4343 25.693 29.4759 25.7233 29.5213C25.7535 29.5666 25.7838 29.6195 25.814 29.6762L26.2032 28.0549H26.5472L25.9652 30.485L24.8352 29.03C24.8049 28.9922 24.7747 28.9506 24.752 28.9052C24.7256 28.8599 24.7029 28.8145 24.6802 28.7692L24.291 30.3943H23.9433ZM22.2426 30.3943L22.8019 28.0549H24.0755L24 28.3762H23.0967L22.9569 28.9619H23.8601L23.7808 29.2945H22.8775L22.6961 30.0504H23.5994L23.5162 30.3905H22.2426V30.3943ZM21.6266 29.2378C21.6266 29.2189 21.6304 29.1698 21.6417 29.0866C21.6493 29.0186 21.6568 28.9619 21.6606 28.9166C21.638 28.9695 21.6115 29.0224 21.5813 29.0753C21.551 29.1282 21.517 29.1849 21.4792 29.2378L20.5835 30.485L20.2925 29.2114C20.2812 29.1585 20.2699 29.1093 20.2661 29.0602C20.2585 29.0111 20.2548 28.9619 20.2548 28.9166C20.2434 28.9657 20.2245 29.0148 20.2056 29.0715C20.1867 29.1244 20.1641 29.1811 20.1338 29.2416L19.6123 30.3943H19.2722L20.3946 27.9567L20.7158 29.4343C20.7196 29.457 20.7272 29.4948 20.7347 29.5515C20.7423 29.6044 20.7536 29.6724 20.765 29.7518C20.8027 29.6838 20.8557 29.6006 20.9275 29.4948C20.9464 29.4684 20.9615 29.4457 20.969 29.4306L21.9781 27.9567L21.9441 30.3943H21.6039L21.6266 29.2378ZM18.093 30.3943L18.35 29.3247L17.8852 28.0549H18.2744L18.5617 28.8486C18.5692 28.8675 18.5768 28.8939 18.5843 28.9279C18.5919 28.9619 18.6032 28.9959 18.6108 29.0337C18.6335 28.9959 18.6561 28.9619 18.6826 28.9279C18.7053 28.8939 18.7317 28.8637 18.7544 28.8372L19.4309 28.0549H19.8013L18.7128 29.3247L18.4558 30.3943H18.093ZM17.1709 30.3943L17.0575 29.7934H16.1543L15.7461 30.3943H15.3569L17.0424 27.9604L17.564 30.3943H17.1709ZM16.3659 29.4759H17.0008L16.895 28.943C16.8913 28.909 16.8837 28.8712 16.8799 28.8259C16.8761 28.7805 16.8724 28.7314 16.8724 28.6785C16.8459 28.7276 16.8232 28.7768 16.7968 28.8221C16.7703 28.8675 16.7476 28.9052 16.725 28.943L16.3659 29.4759ZM14.7409 29.3436L14.4877 30.3943H14.14L14.6993 28.0549H15.2586C15.4249 28.0549 15.5459 28.0625 15.6177 28.0814C15.6895 28.1003 15.7537 28.1305 15.7991 28.1721C15.8557 28.225 15.8973 28.3006 15.9162 28.3913C15.9351 28.482 15.9313 28.584 15.9049 28.6936C15.8784 28.8032 15.8331 28.9052 15.7688 28.9997C15.7046 29.0942 15.6328 29.166 15.5496 29.2189C15.4816 29.2605 15.406 29.2907 15.3229 29.3096C15.2397 29.3285 15.115 29.3361 14.9487 29.3361H14.7409V29.3436ZM14.8354 29.0337H14.9298C15.1339 29.0337 15.2775 29.0111 15.3569 28.9657C15.4363 28.9204 15.4892 28.841 15.5194 28.7238C15.5496 28.5991 15.5345 28.5122 15.474 28.4593C15.4136 28.4102 15.2851 28.3837 15.0886 28.3837H14.9941L14.8354 29.0337ZM10.8181 30.3943L11.3774 28.0549H11.8762C12.2012 28.0549 12.4242 28.07 12.5489 28.1041C12.6736 28.1381 12.7757 28.1948 12.855 28.2741C12.9609 28.3762 13.0289 28.5122 13.0591 28.6709C13.0894 28.8334 13.078 29.0186 13.0289 29.2265C12.9798 29.4343 12.9004 29.6195 12.7946 29.7782C12.6888 29.937 12.5565 30.073 12.4015 30.1751C12.2844 30.2544 12.1559 30.3111 12.0198 30.3451C11.8838 30.3791 11.6835 30.3943 11.4152 30.3943H10.8181ZM11.2716 30.0504H11.5815C11.7515 30.0504 11.8838 30.039 11.9745 30.0163C12.0652 29.9937 12.1483 29.9521 12.2277 29.8992C12.3335 29.8236 12.4204 29.7291 12.4885 29.6195C12.5603 29.5061 12.6132 29.3776 12.6472 29.2265C12.6812 29.0753 12.6925 28.9468 12.6774 28.8334C12.6623 28.7201 12.6207 28.6256 12.5527 28.55C12.4998 28.4933 12.4356 28.4555 12.3486 28.4328C12.2655 28.4102 12.1257 28.3988 11.9367 28.3988H11.6646L11.2716 30.0504ZM9.12118 30.3943L9.68051 28.0549H10.9541L10.8785 28.3762H9.97529L9.83545 28.9619H10.7387L10.6593 29.2945H9.75609L9.57469 30.0504H10.4779L10.3948 30.3905H9.12118V30.3943ZM8.21795 30.3943L8.77727 28.0549H9.14764L8.58831 30.3943H8.21795ZM6.5362 30.3943L7.09552 28.0549H8.36912L8.29353 28.3762H7.3903L7.25047 28.9582H8.1537L8.07434 29.2907H7.17111L6.90656 30.3905H6.5362V30.3943ZM5.63296 30.3943L6.19229 28.0549H6.56265L6.00333 30.3943H5.63296ZM3.0631 30.3943L3.6451 27.9604L4.75241 29.3928C4.78264 29.4343 4.81287 29.4759 4.84311 29.5213C4.87334 29.5666 4.90357 29.6195 4.93381 29.6762L5.32307 28.0549H5.66698L5.08498 30.485L3.95499 29.03C3.92476 28.9922 3.8983 28.9506 3.87185 28.9052C3.84539 28.8599 3.82272 28.8145 3.80004 28.7692L3.41078 30.3943H3.0631ZM4.95648 18.9697C6.99348 18.9961 9.02292 18.9659 11.0561 18.9659C11.4152 18.9659 11.7062 19.2569 11.7062 19.6159C11.7062 19.7066 11.6873 19.7973 11.6495 19.8843C11.5474 20.4511 11.0524 20.8669 10.4741 20.8669C8.4636 20.8631 6.44927 20.8631 4.43495 20.8744C4.10238 20.8744 4.09104 20.7421 4.17419 20.4852C4.30646 20.1072 4.41606 19.7255 4.4992 19.3363C4.50298 19.1284 4.67304 18.9659 4.8809 18.9659C4.90735 18.9621 4.93003 18.9659 4.95648 18.9697ZM3.84539 22.6393C5.86728 22.6393 7.89294 22.6431 9.9186 22.6506C10.614 22.6544 10.8899 23.2931 10.4817 23.9507C10.2625 24.3211 9.86569 24.5478 9.43486 24.5478C7.45077 24.5478 5.47046 24.5251 3.48637 24.5516C3.18025 24.5554 3.03664 24.5138 3.16136 24.1585C3.30119 23.7617 3.39945 23.3422 3.50149 22.9341C3.52794 22.764 3.67533 22.6393 3.84539 22.6393Z" fill="#66686C"/>
</g>
<defs>
<clipPath id="clip0_940_38101">
<rect width="46.439" height="13.318" fill="white" transform="translate(0.780518 17.1708)"/>
</clipPath>
</defs>
</svg>
