<svg width="142" height="76" viewBox="0 0 142 76" fill="none" xmlns="http://www.w3.org/2000/svg">
<g clip-path="url(#clip0_1_4044)">
<rect width="141.794" height="75.0234" rx="4.25383" fill="#E7E7FF"/>
<rect y="9.21655" width="141.794" height="17.7243" fill="#5A5CE7"/>
<rect x="10.6345" y="36.1575" width="119.816" height="16.3063" fill="white"/>
<path d="M75.5281 41.5141V40.6903H77.3941V47.8665H76.4809V41.5141H75.5281ZM78.8364 47.1419C79.6767 46.4669 80.3351 45.9144 80.8116 45.4843C81.288 45.0476 81.6883 44.5943 82.0126 44.1245C82.3434 43.6481 82.5088 43.1816 82.5088 42.725C82.5088 42.2949 82.403 41.9574 82.1912 41.7126C81.9861 41.4611 81.6519 41.3354 81.1887 41.3354C80.7388 41.3354 80.3881 41.4777 80.1366 41.7622C79.8918 42.0401 79.7595 42.414 79.7396 42.8838H78.8662C78.8926 42.1427 79.1176 41.5703 79.5411 41.1667C79.9646 40.763 80.5105 40.5612 81.1788 40.5612C81.8604 40.5612 82.3997 40.7498 82.7967 41.127C83.2003 41.5041 83.4021 42.0236 83.4021 42.6853C83.4021 43.2345 83.2367 43.7705 82.9059 44.2932C82.5816 44.8094 82.2111 45.2659 81.7942 45.663C81.3773 46.0534 80.8447 46.51 80.1962 47.0327H83.6106V47.7871H78.8364V47.1419ZM84.6349 42.4967C84.6812 41.8879 84.9161 41.4115 85.3396 41.0674C85.7631 40.7233 86.3123 40.5513 86.9872 40.5513C87.4372 40.5513 87.8243 40.634 88.1485 40.7994C88.4794 40.9582 88.7275 41.1766 88.8929 41.4545C89.065 41.7324 89.151 42.0467 89.151 42.3975C89.151 42.8077 89.0319 43.1617 88.7937 43.4595C88.5621 43.7573 88.2577 43.9492 87.8805 44.0352V44.0848C88.3106 44.1907 88.6514 44.3991 88.9029 44.7101C89.1543 45.0211 89.28 45.4281 89.28 45.931C89.28 46.3081 89.194 46.6489 89.022 46.9533C88.8499 47.2511 88.5919 47.486 88.2478 47.658C87.9037 47.8301 87.4901 47.9161 87.0071 47.9161C86.3057 47.9161 85.73 47.7341 85.28 47.3702C84.8301 46.9996 84.5786 46.4769 84.5257 45.8019H85.3991C85.4455 46.199 85.6076 46.5232 85.8855 46.7746C86.1634 47.0261 86.534 47.1518 86.9972 47.1518C87.4603 47.1518 87.8111 47.0327 88.0493 46.7945C88.2941 46.5497 88.4165 46.2353 88.4165 45.8516C88.4165 45.3553 88.2511 44.998 87.9202 44.7796C87.5894 44.5612 87.0898 44.4521 86.4215 44.4521H86.1932V43.6977H86.4314C87.0402 43.6911 87.5 43.5918 87.8111 43.3999C88.1221 43.2014 88.2776 42.897 88.2776 42.4868C88.2776 42.1361 88.1618 41.8549 87.9302 41.6431C87.7052 41.4314 87.3809 41.3255 86.9575 41.3255C86.5472 41.3255 86.2163 41.4314 85.9649 41.6431C85.7134 41.8549 85.5646 42.1394 85.5182 42.4967H84.6349ZM90.2812 46.2684V45.5836L93.7651 40.7597H94.847V45.4843H95.8395V46.2684H94.847V47.8665H93.9537V46.2684H90.2812ZM93.9934 41.7027L91.3234 45.4843H93.9934V41.7027Z" fill="#858585"/>
<path d="M107.67 44.2039C107.67 43.0658 107.855 42.1791 108.226 41.5439C108.596 40.902 109.245 40.5811 110.171 40.5811C111.091 40.5811 111.736 40.902 112.107 41.5439C112.477 42.1791 112.663 43.0658 112.663 44.2039C112.663 45.3619 112.477 46.2618 112.107 46.9037C111.736 47.5455 111.091 47.8665 110.171 47.8665C109.245 47.8665 108.596 47.5455 108.226 46.9037C107.855 46.2618 107.67 45.3619 107.67 44.2039ZM111.769 44.2039C111.769 43.6282 111.73 43.1419 111.65 42.7448C111.577 42.3412 111.422 42.017 111.184 41.7721C110.952 41.5273 110.615 41.4049 110.171 41.4049C109.721 41.4049 109.377 41.5273 109.139 41.7721C108.907 42.017 108.752 42.3412 108.672 42.7448C108.6 43.1419 108.563 43.6282 108.563 44.2039C108.563 44.7994 108.6 45.299 108.672 45.7027C108.752 46.1063 108.907 46.4306 109.139 46.6754C109.377 46.9202 109.721 47.0426 110.171 47.0426C110.615 47.0426 110.952 46.9202 111.184 46.6754C111.422 46.4306 111.577 46.1063 111.65 45.7027C111.73 45.299 111.769 44.7994 111.769 44.2039ZM113.903 44.2039C113.903 43.0658 114.088 42.1791 114.458 41.5439C114.829 40.902 115.477 40.5811 116.404 40.5811C117.324 40.5811 117.969 40.902 118.339 41.5439C118.71 42.1791 118.895 43.0658 118.895 44.2039C118.895 45.3619 118.71 46.2618 118.339 46.9037C117.969 47.5455 117.324 47.8665 116.404 47.8665C115.477 47.8665 114.829 47.5455 114.458 46.9037C114.088 46.2618 113.903 45.3619 113.903 44.2039ZM118.002 44.2039C118.002 43.6282 117.962 43.1419 117.883 42.7448C117.81 42.3412 117.654 42.017 117.416 41.7721C117.185 41.5273 116.847 41.4049 116.404 41.4049C115.954 41.4049 115.61 41.5273 115.372 41.7721C115.14 42.017 114.984 42.3412 114.905 42.7448C114.832 43.1419 114.796 43.6282 114.796 44.2039C114.796 44.7994 114.832 45.299 114.905 45.7027C114.984 46.1063 115.14 46.4306 115.372 46.6754C115.61 46.9202 115.954 47.0426 116.404 47.0426C116.847 47.0426 117.185 46.9202 117.416 46.6754C117.654 46.4306 117.81 46.1063 117.883 45.7027C117.962 45.299 118.002 44.7994 118.002 44.2039ZM120.135 44.2039C120.135 43.0658 120.32 42.1791 120.691 41.5439C121.061 40.902 121.71 40.5811 122.636 40.5811C123.556 40.5811 124.201 40.902 124.572 41.5439C124.942 42.1791 125.128 43.0658 125.128 44.2039C125.128 45.3619 124.942 46.2618 124.572 46.9037C124.201 47.5455 123.556 47.8665 122.636 47.8665C121.71 47.8665 121.061 47.5455 120.691 46.9037C120.32 46.2618 120.135 45.3619 120.135 44.2039ZM124.234 44.2039C124.234 43.6282 124.195 43.1419 124.115 42.7448C124.042 42.3412 123.887 42.017 123.649 41.7721C123.417 41.5273 123.08 41.4049 122.636 41.4049C122.186 41.4049 121.842 41.5273 121.604 41.7721C121.372 42.017 121.217 42.3412 121.138 42.7448C121.065 43.1419 121.028 43.6282 121.028 44.2039C121.028 44.7994 121.065 45.299 121.138 45.7027C121.217 46.1063 121.372 46.4306 121.604 46.6754C121.842 46.9202 122.186 47.0426 122.636 47.0426C123.08 47.0426 123.417 46.9202 123.649 46.6754C123.887 46.4306 124.042 46.1063 124.115 45.7027C124.195 45.299 124.234 44.7994 124.234 44.2039Z" fill="#858585"/>
<rect x="100.319" y="34.385" width="31.9037" height="19.8512" rx="2.4814" stroke="#FF0000" stroke-width="0.708971"/>
</g>
<defs>
<clipPath id="clip0_1_4044">
<rect width="141.794" height="75.0234" rx="4.25383" fill="white"/>
</clipPath>
</defs>
</svg>
