<svg width="90" height="85" viewBox="0 0 90 85" fill="none" xmlns="http://www.w3.org/2000/svg">
<path d="M5.87468 80.5258C2.85068 80.5258 1.03268 78.4558 1.03268 75.1618V72.6958C1.03268 69.4558 3.04868 67.3138 5.87468 67.3138C8.14268 67.3138 10.0147 68.5198 10.2127 71.1478H8.71868C8.50268 69.3658 7.60268 68.5198 5.89268 68.5198C3.84068 68.5198 2.58068 70.1038 2.58068 72.6958V75.1438C2.58068 77.7538 3.73268 79.3018 5.89268 79.3018C7.54868 79.3018 8.73668 78.3838 8.91668 76.4398H10.3207C10.0687 79.2838 8.28668 80.5258 5.87468 80.5258ZM12.2191 80.3638V70.9498H13.6591V72.4438C14.1811 71.4538 14.8831 70.8778 16.3231 70.8238V72.1738C14.6851 72.2638 13.6591 72.7498 13.6591 74.6758V80.3638H12.2191ZM21.139 80.5078C18.871 80.5078 17.359 79.0138 17.359 76.4938V74.8198C17.359 72.3538 18.853 70.8058 21.049 70.8058C23.011 70.8058 24.613 71.9578 24.613 74.7298V75.9358H18.817V76.4938C18.817 78.3838 19.609 79.3198 21.157 79.3198C22.363 79.3198 23.029 78.7618 23.191 77.7178H24.595C24.379 79.6078 23.047 80.5078 21.139 80.5078ZM21.049 71.9938C19.789 71.9938 18.817 72.8758 18.817 74.7838H23.173V74.5498C23.173 72.6958 22.309 71.9938 21.049 71.9938ZM33.708 66.6118V80.3638H32.268V78.9778C31.818 79.8058 30.774 80.5078 29.586 80.5078C27.552 80.5078 26.166 79.1218 26.166 76.6378V74.8018C26.166 72.3538 27.588 70.8058 29.73 70.8058C31.026 70.8058 31.836 71.4538 32.268 72.2638V66.6118H33.708ZM32.286 76.4578V74.8558C32.286 72.9298 31.404 71.9938 29.928 71.9938C28.452 71.9938 27.642 72.9658 27.642 74.7838V76.6198C27.642 78.5098 28.542 79.3198 29.82 79.3198C31.242 79.3198 32.286 78.3838 32.286 76.4578ZM36.9161 69.2038C36.3761 69.2038 35.9801 68.7898 35.9801 68.2678C35.9801 67.7458 36.3941 67.3138 36.9161 67.3138C37.4381 67.3138 37.8521 67.7458 37.8521 68.2678C37.8521 68.7898 37.4561 69.2038 36.9161 69.2038ZM36.2141 80.3638V70.9498H37.6541V80.3638H36.2141ZM40.4752 68.8978H41.9332V70.9498H43.8232V72.1738H41.9332V78.0238C41.9332 78.8698 42.2752 79.2478 42.9772 79.2478C43.3552 79.2478 43.6792 79.1938 43.8952 79.1038V80.2918C43.6792 80.3818 43.3372 80.4538 42.8332 80.4538C41.2312 80.4538 40.4752 79.5358 40.4752 78.1318V72.1738H39.3052V70.9498H40.4752V68.8978ZM51.015 67.5118L46.227 80.3638H44.679L49.467 67.5118H51.015ZM52.5283 67.4938H55.6963C59.3143 67.4938 61.0243 69.5278 61.0243 72.6598V75.1798C61.0243 78.2398 59.3683 80.3638 55.6963 80.3638H52.5283V67.4938ZM55.6063 68.6998H54.0223V79.1398H55.6243C58.3063 79.1398 59.4763 77.6998 59.4763 75.1618V72.6598C59.4763 70.2118 58.4323 68.6998 55.6063 68.6998ZM66.5433 80.5078C64.2753 80.5078 62.7633 79.0138 62.7633 76.4938V74.8198C62.7633 72.3538 64.2573 70.8058 66.4533 70.8058C68.4153 70.8058 70.0173 71.9578 70.0173 74.7298V75.9358H64.2213V76.4938C64.2213 78.3838 65.0133 79.3198 66.5613 79.3198C67.7673 79.3198 68.4333 78.7618 68.5953 77.7178H69.9993C69.7833 79.6078 68.4513 80.5078 66.5433 80.5078ZM66.4533 71.9938C65.1933 71.9938 64.2213 72.8758 64.2213 74.7838H68.5773V74.5498C68.5773 72.6958 67.7133 71.9938 66.4533 71.9938ZM72.0023 66.6118H73.4423V72.3358C73.9103 71.4898 74.9363 70.8058 76.1423 70.8058C78.1763 70.8058 79.5623 72.2278 79.5623 74.6758V76.5298C79.5623 78.9778 78.2123 80.5078 76.0703 80.5078C74.7743 80.5078 73.8743 79.8598 73.4423 79.0498V80.3638H72.0023V66.6118ZM73.4243 76.4578C73.4243 78.4018 74.3783 79.3198 75.8363 79.3198C77.3123 79.3198 78.0863 78.3838 78.0863 76.5658V74.7298C78.0863 72.8398 77.1323 71.9938 75.8543 71.9938C74.4503 71.9938 73.4243 72.9298 73.4243 74.8738V76.4578ZM82.3204 69.2038C81.7804 69.2038 81.3844 68.7898 81.3844 68.2678C81.3844 67.7458 81.7984 67.3138 82.3204 67.3138C82.8424 67.3138 83.2564 67.7458 83.2564 68.2678C83.2564 68.7898 82.8604 69.2038 82.3204 69.2038ZM81.6184 80.3638V70.9498H83.0584V80.3638H81.6184ZM85.8795 68.8978H87.3375V70.9498H89.2275V72.1738H87.3375V78.0238C87.3375 78.8698 87.6795 79.2478 88.3815 79.2478C88.7595 79.2478 89.0835 79.1938 89.2995 79.1038V80.2918C89.0835 80.3818 88.7415 80.4538 88.2375 80.4538C86.6355 80.4538 85.8795 79.5358 85.8795 78.1318V72.1738H84.7095V70.9498H85.8795V68.8978Z" fill="#2E313A"/>
<g clip-path="url(#clip0_278_2628)">
<path fill-rule="evenodd" clip-rule="evenodd" d="M74.0322 15.7523C74.0322 14.9968 73.7321 14.2723 73.1979 13.7381C72.6637 13.2039 71.9392 12.9038 71.1837 12.9038H19.911C19.1555 12.9038 18.431 13.2039 17.8968 13.7381C17.3626 14.2723 17.0625 14.9968 17.0625 15.7523V52.6117C17.0625 53.3671 17.3626 54.0917 17.8968 54.6259C18.431 55.1601 19.1555 55.4602 19.911 55.4602H71.1837C71.9392 55.4602 72.6637 55.1601 73.1979 54.6259C73.7321 54.0917 74.0322 53.3671 74.0322 52.6117V15.7523Z" fill="#90E0EF"/>
<path fill-rule="evenodd" clip-rule="evenodd" d="M74.034 15.7523C74.034 14.9968 73.7339 14.2723 73.1997 13.7381C72.6655 13.2039 71.9409 12.9038 71.1855 12.9038H67.1406V55.6311H71.1855C71.9409 55.6311 72.6655 55.331 73.1997 54.7968C73.7339 54.2626 74.034 53.5381 74.034 52.7826V15.7523Z" fill="#58C8DD"/>
<path d="M74.0322 19.9966H17.0625V26.9469H74.0322V19.9966Z" fill="#1990A7"/>
<path d="M33.5566 43.6958H42.9851C43.8917 43.6958 44.7611 44.0559 45.4021 44.697C46.0432 45.338 46.4033 46.2074 46.4033 47.114C46.4033 48.0205 46.0432 48.89 45.4021 49.531C44.7611 50.172 43.8917 50.5322 42.9851 50.5322H33.5566V43.6958Z" fill="#097387"/>
<path d="M26.0354 43.696H35.4639C36.3704 43.696 37.2398 44.0562 37.8809 44.6972C38.5219 45.3382 38.882 46.2077 38.882 47.1142C38.882 48.0208 38.5219 48.8902 37.8809 49.5312C37.2398 50.1723 36.3704 50.5324 35.4639 50.5324H26.0354C25.1288 50.5324 24.2594 50.1723 23.6183 49.5312C22.9773 48.8902 22.6172 48.0208 22.6172 47.1142C22.6172 46.2077 22.9773 45.3382 23.6183 44.6972C24.2594 44.0562 25.1288 43.696 26.0354 43.696Z" fill="#1990A7"/>
<path d="M74.034 19.9966H67.1406V26.9469H74.034V19.9966Z" fill="#097387"/>
<path d="M67.023 48.6007L64.1209 45.6987C64.0756 45.6533 64.111 45.575 64.1751 45.5728C69.0389 45.4095 68.9799 38.5176 63.998 38.5176H70.0479" stroke="#1990A7" stroke-width="2.62937" stroke-linecap="round" stroke-linejoin="round"/>
<path d="M63.998 42.0466H70.0479" stroke="#1990A7" stroke-width="2.62937" stroke-linecap="round" stroke-linejoin="round"/>
</g>
<defs>
<clipPath id="clip0_278_2628">
<rect width="68.3636" height="68.3636" fill="white" transform="translate(11.3633)"/>
</clipPath>
</defs>
</svg>
