<svg width="400" height="192" viewBox="0 0 400 192" fill="none" xmlns="http://www.w3.org/2000/svg">
<path fill-rule="evenodd" clip-rule="evenodd" d="M189.863 127.839V117.504H193.104C193.963 117.455 194.806 117.743 195.456 118.306C195.744 118.567 195.972 118.886 196.125 119.243C196.279 119.599 196.354 119.985 196.345 120.373C196.349 120.933 196.194 121.484 195.899 121.96C195.591 122.41 195.16 122.761 194.659 122.973C193.941 123.212 193.186 123.317 192.43 123.283H191.347V127.739L189.863 127.839ZM192.877 118.794H191.347V122.014H192.951C193.45 122.041 193.942 121.887 194.336 121.58C194.504 121.432 194.636 121.247 194.722 121.04C194.808 120.833 194.846 120.609 194.832 120.385C194.832 119.339 194.171 118.794 192.765 118.794H192.877ZM200.318 120.981C200.797 120.961 201.275 121.039 201.723 121.21C202.171 121.381 202.579 121.642 202.922 121.977C203.254 122.298 203.515 122.684 203.689 123.111C203.863 123.538 203.947 123.996 203.935 124.457C203.946 124.913 203.859 125.366 203.681 125.786C203.502 126.206 203.237 126.583 202.902 126.892C202.191 127.55 201.248 127.899 200.281 127.863C199.331 127.892 198.41 127.543 197.718 126.892C197.06 126.234 196.691 125.342 196.691 124.412C196.691 123.482 197.06 122.589 197.718 121.931C198.064 121.6 198.472 121.342 198.919 121.172C199.367 121.001 199.844 120.922 200.322 120.939L200.318 120.981ZM200.318 122.2C200.026 122.189 199.735 122.24 199.464 122.35C199.193 122.46 198.949 122.626 198.747 122.837C198.348 123.274 198.127 123.844 198.127 124.436C198.127 125.028 198.348 125.599 198.747 126.036C199.193 126.442 199.775 126.666 200.378 126.666C200.981 126.666 201.562 126.442 202.009 126.036C202.411 125.603 202.633 125.033 202.629 124.443C202.625 123.852 202.396 123.285 201.988 122.857C201.769 122.646 201.51 122.481 201.226 122.372C200.942 122.262 200.639 122.211 200.334 122.221L200.318 122.2ZM213.736 121.063H215.159L212.186 127.959H211.67L209.603 123.229L207.536 127.959H207.102L204.088 121.063H205.535L207.308 125.197L209.024 121.063H210.037L211.748 125.197L213.522 121.063H213.736ZM221.591 124.552H216.845C216.849 125.142 217.085 125.706 217.502 126.123C217.923 126.512 218.48 126.719 219.053 126.702C219.934 126.704 220.79 126.414 221.488 125.875V127.194C220.71 127.721 219.785 127.989 218.846 127.959C218.24 127.993 217.637 127.846 217.114 127.537C216.592 127.227 216.173 126.77 215.911 126.222C215.628 125.658 215.486 125.034 215.498 124.403C215.456 123.484 215.767 122.584 216.366 121.886C216.651 121.564 217.005 121.31 217.401 121.141C217.797 120.973 218.226 120.896 218.656 120.914C219.047 120.911 219.434 120.993 219.791 121.154C220.148 121.314 220.466 121.55 220.723 121.845C221.285 122.567 221.57 123.468 221.525 124.383V124.552H221.591ZM216.841 123.746H220.285C220.267 123.292 220.1 122.856 219.809 122.506C219.484 122.228 219.071 122.076 218.643 122.076C218.216 122.076 217.803 122.228 217.478 122.506C217.147 122.838 216.931 123.266 216.862 123.73L216.841 123.746ZM224.48 121.055V122.585C225.138 121.539 225.778 121.014 226.44 121.014C227.048 121.06 227.616 121.333 228.031 121.778L227.312 122.928C226.973 122.556 226.51 122.321 226.01 122.266C225.788 122.27 225.57 122.328 225.376 122.437C225.182 122.545 225.018 122.699 224.898 122.886C224.581 123.308 224.414 123.823 224.423 124.35V127.921H223.075V121.047L224.48 121.055ZM230.681 117.533H239.3V118.773H235.716V127.773H234.249V118.794H230.694V117.533H230.681ZM241.475 121.038C241.952 121.023 242.427 121.106 242.871 121.28C243.315 121.454 243.719 121.716 244.059 122.051C244.392 122.371 244.655 122.757 244.832 123.184C245.008 123.611 245.094 124.07 245.084 124.532C245.098 124.989 245.012 125.444 244.831 125.865C244.65 126.286 244.379 126.662 244.038 126.966C243.691 127.294 243.283 127.548 242.836 127.715C242.389 127.882 241.914 127.958 241.438 127.938C240.744 127.969 240.057 127.791 239.466 127.426C238.876 127.061 238.409 126.527 238.127 125.892C237.844 125.258 237.76 124.553 237.885 123.87C238.009 123.187 238.337 122.558 238.825 122.064L238.879 122.014C239.221 121.685 239.625 121.428 240.068 121.257C240.511 121.087 240.984 121.007 241.458 121.022L241.475 121.038ZM241.475 122.279C241.18 122.266 240.886 122.316 240.612 122.427C240.338 122.537 240.091 122.705 239.887 122.919C239.681 123.132 239.52 123.384 239.413 123.66C239.306 123.936 239.257 124.231 239.267 124.527C239.254 124.823 239.304 125.118 239.415 125.393C239.525 125.667 239.694 125.915 239.908 126.119C240.125 126.327 240.381 126.488 240.662 126.595C240.942 126.702 241.241 126.751 241.541 126.739C241.839 126.747 242.135 126.694 242.411 126.584C242.687 126.474 242.939 126.309 243.149 126.098C243.465 125.781 243.679 125.375 243.762 124.935C243.845 124.495 243.795 124.039 243.617 123.628C243.439 123.217 243.141 122.868 242.763 122.628C242.385 122.387 241.944 122.266 241.496 122.279H241.475ZM250.888 117.554H256.733V118.794H252.392V121.931H256.526V123.254H252.392V126.474H256.894V127.793H250.904V117.516L250.888 117.554ZM263.831 122.928V127.859H262.487V124.064C262.533 123.526 262.433 122.985 262.198 122.498C262.074 122.336 261.91 122.209 261.723 122.13C261.535 122.051 261.33 122.022 261.127 122.047C260.861 122.048 260.599 122.112 260.363 122.233C260.068 122.433 259.798 122.666 259.556 122.928V127.859H258.213V121.047H259.556V121.935C259.814 121.633 260.129 121.386 260.485 121.208C260.84 121.03 261.227 120.926 261.623 120.902C262.052 120.883 262.476 120.991 262.843 121.212C263.211 121.432 263.505 121.756 263.69 122.142C263.953 121.784 264.29 121.487 264.679 121.272C265.069 121.058 265.5 120.932 265.943 120.902C266.252 120.893 266.558 120.954 266.84 121.079C267.122 121.204 267.372 121.391 267.572 121.625C268.051 122.249 268.279 123.029 268.213 123.812V127.946H266.869V123.812C266.898 123.353 266.775 122.896 266.518 122.514C266.4 122.366 266.248 122.248 266.076 122.17C265.904 122.091 265.715 122.055 265.526 122.064C265.216 122.082 264.915 122.169 264.644 122.319C264.372 122.469 264.138 122.679 263.959 122.932L263.831 122.928ZM269.842 131.328V120.993H272.194C273.21 120.938 274.21 121.262 275.001 121.902C275.334 122.22 275.596 122.607 275.767 123.035C275.938 123.463 276.015 123.922 275.993 124.383C276.011 124.843 275.938 125.302 275.779 125.734C275.619 126.166 275.376 126.563 275.063 126.9C274.754 127.224 274.38 127.479 273.967 127.649C273.553 127.819 273.108 127.901 272.661 127.888C272.173 127.884 271.69 127.785 271.239 127.599V131.257L269.842 131.328ZM272.152 122.328H271.231V126.462C271.626 126.67 272.066 126.776 272.512 126.772C272.802 126.776 273.089 126.72 273.355 126.606C273.622 126.492 273.861 126.323 274.058 126.111C274.383 125.718 274.586 125.239 274.641 124.733C274.696 124.227 274.601 123.715 274.368 123.262C274.198 122.94 273.93 122.679 273.603 122.518C273.145 122.336 272.653 122.258 272.161 122.291L272.152 122.328ZM280.718 121.047C281.194 121.032 281.668 121.114 282.112 121.288C282.555 121.462 282.959 121.724 283.297 122.059C283.634 122.378 283.899 122.763 284.077 123.19C284.255 123.617 284.342 124.077 284.331 124.54C284.345 124.997 284.259 125.453 284.078 125.873C283.897 126.294 283.627 126.67 283.285 126.975C282.934 127.302 282.522 127.557 282.072 127.724C281.622 127.891 281.144 127.966 280.664 127.946C279.97 127.963 279.286 127.771 278.702 127.394C278.118 127.017 277.662 126.473 277.391 125.833C277.121 125.193 277.05 124.487 277.187 123.805C277.324 123.124 277.662 122.5 278.159 122.014C278.863 121.353 279.798 120.997 280.763 121.022L280.718 121.047ZM280.718 122.287C280.423 122.274 280.129 122.323 279.855 122.433C279.581 122.543 279.334 122.71 279.13 122.923C278.924 123.137 278.762 123.389 278.656 123.666C278.549 123.943 278.5 124.239 278.51 124.536C278.497 124.831 278.547 125.127 278.658 125.401C278.768 125.676 278.937 125.923 279.151 126.127C279.368 126.334 279.623 126.495 279.903 126.602C280.183 126.708 280.481 126.758 280.78 126.747C281.078 126.756 281.375 126.703 281.652 126.593C281.929 126.483 282.181 126.317 282.392 126.107C282.708 125.789 282.922 125.384 283.005 124.943C283.088 124.503 283.038 124.048 282.86 123.636C282.682 123.225 282.384 122.877 282.006 122.636C281.628 122.395 281.186 122.274 280.739 122.287H280.718ZM294.24 121.092H295.687L292.698 127.987H292.214L290.147 123.258L288.08 127.987H287.634L284.645 121.092H286.067L287.845 125.226L289.577 121.092H290.561L292.272 125.226L294.05 121.092H294.24ZM302.136 124.532H297.353C297.368 125.12 297.604 125.68 298.014 126.102C298.435 126.491 298.992 126.699 299.564 126.681C300.45 126.676 301.311 126.386 302.02 125.854V127.173C301.233 127.699 300.303 127.966 299.358 127.938C298.718 127.963 298.085 127.797 297.539 127.462C297.072 127.146 296.691 126.72 296.427 126.222C296.145 125.658 296.003 125.034 296.013 124.403C295.968 123.48 296.287 122.576 296.902 121.886C297.185 121.567 297.536 121.314 297.928 121.146C298.32 120.978 298.745 120.899 299.172 120.914C299.563 120.912 299.95 120.993 300.306 121.154C300.663 121.314 300.981 121.55 301.238 121.845C301.804 122.566 302.09 123.467 302.045 124.383V124.552L302.136 124.532ZM297.386 123.73H300.792C300.787 123.273 300.618 122.833 300.317 122.489C300.162 122.345 299.98 122.234 299.781 122.162C299.582 122.091 299.37 122.062 299.159 122.076C298.727 122.055 298.305 122.203 297.981 122.489C297.647 122.823 297.437 123.26 297.386 123.73ZM305.029 121.038V122.568C305.67 121.522 306.331 120.997 306.972 120.997C307.581 121.039 308.151 121.312 308.564 121.762L307.861 122.94C307.522 122.568 307.059 122.333 306.559 122.279C306.334 122.285 306.115 122.344 305.918 122.452C305.721 122.56 305.552 122.713 305.426 122.899C305.109 123.32 304.942 123.835 304.951 124.362V127.934H303.603V121.047L305.029 121.038Z" fill="black"/>
<path fill-rule="evenodd" clip-rule="evenodd" d="M154.256 124.226L151.428 129.1C146.162 137.81 137.493 147.318 128.142 151.808C127.171 152.258 126.447 152.614 125.48 153.002C124.529 153.331 123.598 153.718 122.694 154.16C140.498 150.968 156.544 141.434 167.861 127.323C177.687 115.454 187.803 96.1738 186.438 74.4089C185.078 53.4914 173.21 37.7454 155.662 33.3222C136.857 28.5971 122.632 37.0427 112.454 50.6018C111.182 52.2741 110.063 54.0575 109.11 55.9304C122.942 48.9937 139.477 45.9388 153.433 56.0544C165.57 64.8885 169.225 82.6188 166.067 98.1043C164.14 106.456 160.713 114.388 155.951 121.515C155.314 122.392 154.722 123.301 154.177 124.239L154.256 124.226Z" fill="#F16227"/>
<path fill-rule="evenodd" clip-rule="evenodd" d="M105.74 153.353C104.462 154.262 99.4024 152.696 98.1044 152.468C101.599 154.503 105.523 155.691 109.559 155.937C115.301 156.263 117.827 155.255 122.689 154.242C123.593 153.801 124.524 153.414 125.475 153.084C126.446 152.691 127.17 152.34 128.137 151.89C137.488 147.45 146.161 137.913 151.423 129.182L154.251 124.25C154.582 123.258 155.297 121.94 155.76 120.885C159.517 112.204 162.283 102.308 161.436 92.746C161.129 87.3914 159.613 82.1759 157 77.492C152.992 70.8448 146.676 65.9063 139.259 63.6189C131.841 61.3314 123.841 61.8552 116.785 65.0903C108.695 68.6578 103.557 74.4784 99.3446 81.7705C98.7658 82.7627 98.3111 83.8375 97.7737 84.7841C98.963 84.2987 100.118 83.7324 101.23 83.0892C105.064 81.1789 109.157 79.8378 113.379 79.1083C124.983 77.2067 137.203 80.9438 143.143 90.9354C145.929 95.6439 146.715 102.37 146.037 108.773C144.625 119.756 140.286 130.158 133.474 138.888C131.881 140.85 130.155 142.7 128.307 144.424C126.435 146.091 124.43 147.602 122.312 148.942C118.311 151.422 110.258 154.453 105.802 153.258L105.74 153.353Z" fill="#01A04D"/>
<path fill-rule="evenodd" clip-rule="evenodd" d="M98.1454 152.465C99.4435 152.692 104.503 154.259 105.781 153.354C104.839 153.088 103.974 152.604 103.255 151.94C102.537 151.276 101.986 150.452 101.647 149.534C99.2905 144.065 101.275 134.073 102.614 128.687C103.66 124.35 104.842 120.419 106.186 116.174L110.324 104.243L94.0157 104.326C92.4704 108.362 91.2269 112.507 90.2952 116.728C87.5875 127.889 84.6648 147.182 98.1454 152.465Z" fill="#0C6EB5"/>
<path fill-rule="evenodd" clip-rule="evenodd" d="M93.56 93.6108L94.7382 94.9088C95.6148 94.0249 96.6162 93.2742 97.7104 92.6807C99.0628 92.0227 100.547 91.6808 102.051 91.6808C103.555 91.6808 105.039 92.0227 106.392 92.6807C106.976 92.961 107.53 93.3004 108.045 93.6935C108.526 94.1325 109.03 94.5465 109.554 94.9336L110.749 93.7141C109.794 92.5722 108.604 91.65 107.26 91.0106C105.67 90.2413 103.927 89.8417 102.161 89.8417C100.394 89.8417 98.6512 90.2413 97.0614 91.0106C95.7099 91.6475 94.5125 92.5698 93.5518 93.7141L93.56 93.6108Z" fill="#0C6EB5"/>
<path fill-rule="evenodd" clip-rule="evenodd" d="M95.6479 95.8839L96.8633 97.2439C98.0828 96.5866 100.683 93.6102 105.131 95.6358C105.98 95.9806 106.733 96.5252 107.326 97.2232L108.74 95.6441C106.979 93.932 104.631 92.9575 102.175 92.9199C100.951 92.92 99.7407 93.1858 98.6288 93.699C97.5168 94.2121 96.5295 94.9604 95.7348 95.8921L95.6479 95.8839Z" fill="#0C6EB5"/>
<path fill-rule="evenodd" clip-rule="evenodd" d="M97.9575 98.1251L99.2762 99.1585C99.3939 99.0863 99.5046 99.0033 99.6069 98.9105C100.324 98.3694 101.189 98.0594 102.087 98.0217C103.902 98.0217 104.295 98.7865 105.448 99.3652L106.399 98.1251C105.896 97.5748 105.29 97.129 104.614 96.8131C103.939 96.4972 103.208 96.3174 102.464 96.284C101.719 96.2506 100.975 96.3643 100.274 96.6184C99.5732 96.8726 98.9293 97.2624 98.3792 97.7654C98.2522 97.878 98.1321 97.9981 98.0195 98.1251H97.9575Z" fill="#0C6EB5"/>
<path fill-rule="evenodd" clip-rule="evenodd" d="M99.989 100.32L102.263 102.672L104.33 100.427C102.804 99.0013 101.688 99.1253 100.039 100.427L99.989 100.32Z" fill="#0C6EB5"/>
<path fill-rule="evenodd" clip-rule="evenodd" d="M196.906 96.472C205.393 95.67 202.623 104.74 198.973 106.807C197.157 107.521 195.19 107.763 193.256 107.509L196.976 96.4017L196.906 96.472ZM188.977 110.345C191.639 110.345 197.361 110.697 199.444 109.829C205.492 107.27 207.249 98.4976 204.194 95.2153C202.127 93.1483 197.402 93.6692 194.492 93.6237L188.977 110.345Z" fill="black"/>
<path fill-rule="evenodd" clip-rule="evenodd" d="M213.744 111.593C215.811 110.953 218.428 113.222 215.46 113.801C212.492 114.38 210.487 112.594 213.744 111.593ZM217.13 101.602C219.61 100.775 218.697 104.739 217.337 105.322C215.977 105.905 215.27 105.198 215.559 103.772C215.849 102.346 216.2 101.916 217.13 101.705V101.602ZM213.744 106.699C212.67 106.988 211.95 107.34 211.678 108.187C211.464 108.633 211.418 109.14 211.547 109.617C211.676 110.094 211.972 110.509 212.38 110.787C209.573 111.833 208.709 113.764 209.966 115.041C212.033 117.108 220.991 116.198 219.474 110.907C218.771 108.427 215.055 109.423 214.418 108.162C215.014 106.74 216.485 108.472 219.412 106.509C220.123 105.942 220.676 105.201 221.016 104.358C221.357 103.515 221.473 102.598 221.355 101.697H222.967L223.629 99.3074C219.871 98.8113 214.377 98.7493 213.021 102.817C212.769 103.546 212.711 104.328 212.852 105.087C212.896 105.382 213.017 105.66 213.203 105.893L213.823 106.719L213.744 106.699Z" fill="black"/>
<path fill-rule="evenodd" clip-rule="evenodd" d="M285.01 107.774C280.429 108.766 281.252 101.747 286.973 101.986C286.48 103.967 285.823 105.902 285.01 107.774ZM288.064 99.0926C283.931 99.3613 280.512 99.9566 279.272 104.851C277.829 110.639 282.885 111.052 287.341 110.225L292.814 93.7103H289.859L288.064 99.0926Z" fill="black"/>
<path fill-rule="evenodd" clip-rule="evenodd" d="M244.571 101.846C244.22 103.289 243.641 104.74 243.186 106.199C242.855 107.274 242.814 107.336 241.863 107.749C238.457 109.254 239.263 105.355 240.623 103.615C241.032 102.959 241.629 102.442 242.336 102.129C243.043 101.817 243.827 101.724 244.588 101.862L244.571 101.846ZM241.909 109.522C241.938 109.617 241.938 109.718 241.909 109.812V110.391H244.716L248.436 99.4068C246.142 98.8564 243.74 98.9567 241.5 99.6962C234.563 102.338 234.708 114.165 241.934 109.543L241.909 109.522Z" fill="black"/>
<path fill-rule="evenodd" clip-rule="evenodd" d="M304.724 101.845C304.435 103.23 303.773 104.834 303.339 106.223C303.275 106.523 303.152 106.806 302.978 107.058C302.804 107.31 302.582 107.526 302.325 107.692C302.068 107.858 301.78 107.972 301.479 108.027C301.178 108.082 300.869 108.078 300.569 108.013C300.357 107.968 300.153 107.893 299.962 107.79C298.949 106.674 300.21 101.589 304.732 101.845H304.724ZM302.033 109.547V110.411H304.782L308.477 99.4932C306.528 98.817 304.41 98.8016 302.451 99.4494C300.492 100.097 298.8 101.372 297.638 103.077C295.183 107.331 296.791 113.09 301.991 109.559L302.033 109.547Z" fill="black"/>
<path fill-rule="evenodd" clip-rule="evenodd" d="M265.875 110.349H268.79L270.687 104.74C270.761 104.544 270.823 104.343 270.873 104.14C270.911 103.786 271.039 103.448 271.245 103.159C271.452 102.869 271.729 102.638 272.052 102.487C274.652 100.585 275.04 101.738 274.441 103.681L272.374 110.391H275.119L277.554 103.268C277.575 103.047 277.631 102.831 277.719 102.627C278.05 101.06 277.884 99.4275 276.376 99.1175C274.89 99.0166 273.418 99.4653 272.242 100.378L272.531 99.3035H269.637L265.942 110.432L265.875 110.349Z" fill="black"/>
<path fill-rule="evenodd" clip-rule="evenodd" d="M231.73 99.2072H229.663L228.774 101.642H230.717C230.386 103.432 225.062 112.973 234.003 109.91L234.561 107.062C234.016 107.312 233.441 107.493 232.85 107.599C230.886 107.434 233.296 102.808 233.677 101.758H235.926L236.732 99.2981H234.665L235.491 96.9873H232.515L231.713 99.2981L231.73 99.2072Z" fill="black"/>
<path fill-rule="evenodd" clip-rule="evenodd" d="M259.598 110.332L262.694 110.373L268.288 93.6519H265.129L259.602 110.332H259.598Z" fill="black"/>
<path fill-rule="evenodd" clip-rule="evenodd" d="M247.524 110.332L250.418 110.373L255.991 93.6519H253.039L247.529 110.332H247.524Z" fill="black"/>
<path fill-rule="evenodd" clip-rule="evenodd" d="M205.305 110.526H208.257L211.808 99.2534H208.856L205.305 110.526ZM211.787 94.6523C212.593 94.6523 213.089 95.413 212.862 96.3844C212.786 96.8361 212.562 97.2497 212.225 97.5602C211.888 97.8707 211.458 98.0606 211.002 98.1C210.175 98.1 209.704 97.3352 209.91 96.3844C209.984 95.9272 210.209 95.5079 210.549 95.1939C210.89 94.8798 211.325 94.6891 211.787 94.6523Z" fill="black"/>
<path fill-rule="evenodd" clip-rule="evenodd" d="M221.594 110.526H224.546L228.2 99.1955H225.244L221.594 110.526ZM228.072 94.6523C228.899 94.6523 229.374 95.413 229.147 96.3844C229.071 96.8355 228.847 97.2485 228.512 97.559C228.176 97.8694 227.746 98.0597 227.291 98.1C226.485 98.1 225.989 97.3352 226.195 96.3844C226.269 95.9272 226.494 95.5079 226.834 95.1939C227.174 94.8798 227.61 94.6891 228.072 94.6523Z" fill="black"/>
<path fill-rule="evenodd" clip-rule="evenodd" d="M289.735 110.526H292.708L296.321 99.1955H293.348L289.735 110.526ZM296.321 94.5903C297.147 94.5903 297.619 95.3551 297.416 96.3266C297.338 96.7807 297.111 97.1957 296.77 97.5058C296.429 97.8158 295.995 98.0032 295.535 98.038C294.708 98.038 294.237 97.2732 294.465 96.3266C294.536 95.8718 294.758 95.454 295.094 95.1394C295.43 94.8249 295.862 94.6317 296.321 94.5903Z" fill="black"/>
<path fill-rule="evenodd" clip-rule="evenodd" d="M307.283 112.11H221.493V113.243H307.283V112.11Z" fill="black"/>
<path fill-rule="evenodd" clip-rule="evenodd" d="M206.011 112.11H188.504V113.243H206.011V112.11Z" fill="black"/>
</svg>
