<svg width="133" height="76" viewBox="0 0 133 76" fill="none" xmlns="http://www.w3.org/2000/svg">
<mask id="path-1-inside-1_1_4031" fill="white">
<rect width="133" height="75.3904" rx="4.26738"/>
</mask>
<rect width="133" height="75.3904" rx="4.26738" fill="#E7E7FF"/>
<rect width="133" height="75.3904" rx="4.26738" stroke="#5A5CE7" stroke-width="11.3797" stroke-miterlimit="6.33314" stroke-linejoin="round" mask="url(#path-1-inside-1_1_4031)"/>
<path d="M89.2825 33.0768V32.2504H91.1545V39.4495H90.2384V33.0768H89.2825ZM92.6014 38.7226C93.4445 38.0455 94.105 37.4912 94.5829 37.0597C95.0608 36.6216 95.4625 36.1669 95.7877 35.6956C96.1196 35.2176 96.2856 34.7497 96.2856 34.2916C96.2856 33.8601 96.1794 33.5216 95.967 33.276C95.7612 33.0237 95.4259 32.8976 94.9613 32.8976C94.5099 32.8976 94.1581 33.0403 93.9058 33.3258C93.6602 33.6046 93.5274 33.9796 93.5075 34.4509H92.6313C92.6578 33.7075 92.8835 33.1333 93.3084 32.7283C93.7332 32.3234 94.2809 32.1209 94.9513 32.1209C95.635 32.1209 96.1761 32.3101 96.5743 32.6885C96.9793 33.0669 97.1817 33.588 97.1817 34.2518C97.1817 34.8028 97.0158 35.3405 96.6839 35.8649C96.3586 36.3826 95.9869 36.8407 95.5687 37.239C95.1505 37.6306 94.6161 38.0886 93.9656 38.6131H97.3908V39.3698H92.6014V38.7226ZM98.4184 34.0626C98.4648 33.4519 98.7005 32.974 99.1253 32.6288C99.5502 32.2836 100.101 32.111 100.778 32.111C101.23 32.111 101.618 32.194 101.943 32.3599C102.275 32.5192 102.524 32.7383 102.69 33.0171C102.863 33.2959 102.949 33.6112 102.949 33.963C102.949 34.3746 102.829 34.7297 102.59 35.0285C102.358 35.3272 102.053 35.5197 101.674 35.606V35.6558C102.106 35.762 102.448 35.9711 102.7 36.2831C102.952 36.5951 103.078 37.0033 103.078 37.5078C103.078 37.8862 102.992 38.228 102.819 38.5334C102.647 38.8321 102.388 39.0678 102.043 39.2404C101.698 39.413 101.283 39.4992 100.798 39.4992C100.095 39.4992 99.517 39.3167 99.0656 38.9516C98.6142 38.5799 98.362 38.0555 98.3088 37.3784H99.1851C99.2315 37.7767 99.3942 38.1019 99.673 38.3542C99.9518 38.6064 100.324 38.7325 100.788 38.7325C101.253 38.7325 101.605 38.6131 101.844 38.3741C102.089 38.1285 102.212 37.8132 102.212 37.4281C102.212 36.9303 102.046 36.5718 101.714 36.3528C101.382 36.1337 100.881 36.0242 100.211 36.0242H99.9817V35.2674H100.221C100.831 35.2608 101.293 35.1612 101.605 34.9687C101.917 34.7696 102.073 34.4642 102.073 34.0526C102.073 33.7008 101.957 33.4187 101.724 33.2063C101.498 32.9939 101.173 32.8877 100.748 32.8877C100.337 32.8877 100.005 32.9939 99.7526 33.2063C99.5004 33.4187 99.351 33.7041 99.3046 34.0626H98.4184ZM104.083 37.8464V37.1593L107.578 32.3201H108.663V37.0597H109.659V37.8464H108.663V39.4495H107.767V37.8464H104.083ZM107.807 33.266L105.128 37.0597H107.807V33.266Z" fill="#858585"/>
<path d="M93.0776 20.8392C93.0776 19.6975 93.2634 18.8079 93.6352 18.1707C94.0069 17.5268 94.6574 17.2048 95.5868 17.2048C96.5095 17.2048 97.1567 17.5268 97.5284 18.1707C97.9002 18.8079 98.086 19.6975 98.086 20.8392C98.086 22.0009 97.9002 22.9037 97.5284 23.5476C97.1567 24.1915 96.5095 24.5134 95.5868 24.5134C94.6574 24.5134 94.0069 24.1915 93.6352 23.5476C93.2634 22.9037 93.0776 22.0009 93.0776 20.8392ZM97.1899 20.8392C97.1899 20.2617 97.1501 19.7738 97.0704 19.3755C96.9974 18.9706 96.8414 18.6453 96.6024 18.3997C96.3701 18.1541 96.0315 18.0313 95.5868 18.0313C95.1354 18.0313 94.7902 18.1541 94.5512 18.3997C94.3189 18.6453 94.1629 18.9706 94.0832 19.3755C94.0102 19.7738 93.9737 20.2617 93.9737 20.8392C93.9737 21.4366 94.0102 21.9378 94.0832 22.3428C94.1629 22.7477 94.3189 23.0729 94.5512 23.3186C94.7902 23.5642 95.1354 23.687 95.5868 23.687C96.0315 23.687 96.3701 23.5642 96.6024 23.3186C96.8414 23.0729 96.9974 22.7477 97.0704 22.3428C97.1501 21.9378 97.1899 21.4366 97.1899 20.8392ZM99.33 20.8392C99.33 19.6975 99.5159 18.8079 99.8876 18.1707C100.259 17.5268 100.91 17.2048 101.839 17.2048C102.762 17.2048 103.409 17.5268 103.781 18.1707C104.153 18.8079 104.338 19.6975 104.338 20.8392C104.338 22.0009 104.153 22.9037 103.781 23.5476C103.409 24.1915 102.762 24.5134 101.839 24.5134C100.91 24.5134 100.259 24.1915 99.8876 23.5476C99.5159 22.9037 99.33 22.0009 99.33 20.8392ZM103.442 20.8392C103.442 20.2617 103.402 19.7738 103.323 19.3755C103.25 18.9706 103.094 18.6453 102.855 18.3997C102.623 18.1541 102.284 18.0313 101.839 18.0313C101.388 18.0313 101.043 18.1541 100.804 18.3997C100.571 18.6453 100.415 18.9706 100.336 19.3755C100.263 19.7738 100.226 20.2617 100.226 20.8392C100.226 21.4366 100.263 21.9378 100.336 22.3428C100.415 22.7477 100.571 23.0729 100.804 23.3186C101.043 23.5642 101.388 23.687 101.839 23.687C102.284 23.687 102.623 23.5642 102.855 23.3186C103.094 23.0729 103.25 22.7477 103.323 22.3428C103.402 21.9378 103.442 21.4366 103.442 20.8392ZM105.582 20.8392C105.582 19.6975 105.768 18.8079 106.14 18.1707C106.512 17.5268 107.162 17.2048 108.092 17.2048C109.014 17.2048 109.662 17.5268 110.033 18.1707C110.405 18.8079 110.591 19.6975 110.591 20.8392C110.591 22.0009 110.405 22.9037 110.033 23.5476C109.662 24.1915 109.014 24.5134 108.092 24.5134C107.162 24.5134 106.512 24.1915 106.14 23.5476C105.768 22.9037 105.582 22.0009 105.582 20.8392ZM109.695 20.8392C109.695 20.2617 109.655 19.7738 109.575 19.3755C109.502 18.9706 109.346 18.6453 109.107 18.3997C108.875 18.1541 108.536 18.0313 108.092 18.0313C107.64 18.0313 107.295 18.1541 107.056 18.3997C106.824 18.6453 106.668 18.9706 106.588 19.3755C106.515 19.7738 106.479 20.2617 106.479 20.8392C106.479 21.4366 106.515 21.9378 106.588 22.3428C106.668 22.7477 106.824 23.0729 107.056 23.3186C107.295 23.5642 107.64 23.687 108.092 23.687C108.536 23.687 108.875 23.5642 109.107 23.3186C109.346 23.0729 109.502 22.7477 109.575 22.3428C109.655 21.9378 109.695 21.4366 109.695 20.8392ZM111.835 20.8392C111.835 19.6975 112.021 18.8079 112.392 18.1707C112.764 17.5268 113.415 17.2048 114.344 17.2048C115.267 17.2048 115.914 17.5268 116.286 18.1707C116.657 18.8079 116.843 19.6975 116.843 20.8392C116.843 22.0009 116.657 22.9037 116.286 23.5476C115.914 24.1915 115.267 24.5134 114.344 24.5134C113.415 24.5134 112.764 24.1915 112.392 23.5476C112.021 22.9037 111.835 22.0009 111.835 20.8392ZM115.947 20.8392C115.947 20.2617 115.907 19.7738 115.828 19.3755C115.755 18.9706 115.599 18.6453 115.36 18.3997C115.127 18.1541 114.789 18.0313 114.344 18.0313C113.893 18.0313 113.547 18.1541 113.309 18.3997C113.076 18.6453 112.92 18.9706 112.841 19.3755C112.768 19.7738 112.731 20.2617 112.731 20.8392C112.731 21.4366 112.768 21.9378 112.841 22.3428C112.92 22.7477 113.076 23.0729 113.309 23.3186C113.547 23.5642 113.893 23.687 114.344 23.687C114.789 23.687 115.127 23.5642 115.36 23.3186C115.599 23.0729 115.755 22.7477 115.828 22.3428C115.907 21.9378 115.947 21.4366 115.947 20.8392Z" fill="#858585"/>
<rect x="89.2598" y="15.2917" width="32.0053" height="12.8021" rx="2.4893" stroke="#FF0000" stroke-width="0.71123"/>
<ellipse cx="62.233" cy="36.2727" rx="21.6925" ry="25.6043" fill="white"/>
<path d="M14.6032 33.0766V32.2501H16.4752V39.4492H15.5591V33.0766H14.6032ZM17.9221 38.7223C18.7651 38.0453 19.4256 37.491 19.9036 37.0595C20.3815 36.6214 20.7831 36.1667 21.1084 35.6953C21.4403 35.2174 21.6063 34.7494 21.6063 34.2914C21.6063 33.8599 21.5001 33.5214 21.2876 33.2757C21.0819 33.0235 20.7466 32.8974 20.282 32.8974C19.8306 32.8974 19.4787 33.0401 19.2265 33.3255C18.9809 33.6043 18.8481 33.9794 18.8282 34.4507H17.952C17.9785 33.7072 18.2042 33.133 18.6291 32.7281C19.0539 32.3232 19.6015 32.1207 20.272 32.1207C20.9557 32.1207 21.4967 32.3099 21.895 32.6883C22.3 33.0666 22.5024 33.5877 22.5024 34.2516C22.5024 34.8025 22.3365 35.3402 22.0046 35.8646C21.6793 36.3824 21.3075 36.8404 20.8893 37.2387C20.4711 37.6304 19.9368 38.0884 19.2862 38.6128H22.7115V39.3696H17.9221V38.7223ZM23.7391 34.0624C23.7855 33.4517 24.0212 32.9737 24.446 32.6285C24.8709 32.2833 25.4218 32.1107 26.0989 32.1107C26.5503 32.1107 26.9386 32.1937 27.2639 32.3597C27.5958 32.519 27.8447 32.7381 28.0107 33.0169C28.1833 33.2957 28.2696 33.611 28.2696 33.9628C28.2696 34.3744 28.1501 34.7295 27.9111 35.0282C27.6788 35.3269 27.3734 35.5194 26.9951 35.6057V35.6555C27.4265 35.7617 27.7684 35.9708 28.0207 36.2828C28.2729 36.5948 28.399 37.0031 28.399 37.5076C28.399 37.8859 28.3127 38.2278 28.1401 38.5332C27.9676 38.8319 27.7087 39.0675 27.3635 39.2401C27.0183 39.4127 26.6034 39.499 26.1188 39.499C25.4152 39.499 24.8377 39.3165 24.3863 38.9514C23.9349 38.5796 23.6826 38.0552 23.6295 37.3781H24.5058C24.5522 37.7764 24.7149 38.1017 24.9937 38.3539C25.2725 38.6062 25.6442 38.7323 26.1089 38.7323C26.5735 38.7323 26.9254 38.6128 27.1643 38.3738C27.4099 38.1282 27.5328 37.8129 27.5328 37.4279C27.5328 36.93 27.3668 36.5716 27.0349 36.3525C26.703 36.1335 26.2018 36.0239 25.5314 36.0239H25.3023V35.2672H25.5413C26.152 35.2605 26.6134 35.161 26.9254 34.9685C27.2374 34.7693 27.3934 34.464 27.3934 34.0524C27.3934 33.7006 27.2772 33.4185 27.0449 33.206C26.8192 32.9936 26.4939 32.8874 26.069 32.8874C25.6575 32.8874 25.3256 32.9936 25.0733 33.206C24.8211 33.4185 24.6717 33.7039 24.6252 34.0624H23.7391ZM29.4034 37.8461V37.1591L32.8984 32.3198H33.9837V37.0595H34.9794V37.8461H33.9837V39.4492H33.0876V37.8461H29.4034ZM33.1274 33.2658L30.4489 37.0595H33.1274V33.2658Z" fill="#858585"/>
</svg>
