<svg width="48" height="48" viewBox="0 0 48 48" fill="none" xmlns="http://www.w3.org/2000/svg">
<path d="M38.3479 14.8051C34.8892 12.7986 30.4664 13.9909 28.4677 17.4669L23.4293 26.2383C21.9714 28.7712 23.8482 29.6563 25.941 30.9173L30.7892 33.7294C32.4309 34.6811 34.528 34.1161 35.475 32.4684L40.6545 23.4541C42.3945 20.425 41.362 16.5538 38.3479 14.8051Z" fill="#EA4335"/>
<path d="M32.6472 18.4355L27.799 15.6234C25.1227 14.1303 23.6071 14.0315 22.5083 15.7867L15.3579 28.2318C13.3613 31.7056 14.5499 36.1483 18.0064 38.1505C21.0205 39.8992 24.8726 38.8615 26.6126 35.8324L33.8999 23.1467C34.8511 21.4968 34.2889 19.3872 32.6472 18.4355Z" fill="#FBBC04"/>
<path d="M33.5815 12.038L30.1762 10.0616C26.4097 7.87675 21.5936 9.17217 19.4197 12.9575L12.9362 24.2425C11.9785 25.9074 12.5471 28.0385 14.2038 28.9988L18.0174 31.2115C19.9006 32.3051 22.3076 31.6563 23.3957 29.7636L30.8026 16.8717C32.3374 14.2013 35.7342 13.2862 38.3912 14.8286L33.5815 12.038Z" fill="#34A853"/>
<path d="M20.3397 16.1863L16.6587 14.0551C15.0169 13.1056 12.9199 13.6684 11.9729 15.314L7.55656 22.9835C5.38256 26.758 6.67157 31.5874 10.4381 33.7658L13.2406 35.3877L16.6394 37.3556L18.1144 38.2084C15.4958 36.4469 14.6642 32.9172 16.2653 30.1373L17.4089 28.1523L21.5966 20.8803C22.5415 19.239 21.9793 17.1358 20.3397 16.1863Z" fill="#4285F4"/>
</svg>
