<svg width="60" height="27" viewBox="0 0 60 27" fill="none" xmlns="http://www.w3.org/2000/svg">
<g clip-path="url(#clip0_95_2469)">
<path d="M23.8757 11.3559C24.0739 11.6518 24.0606 12.0389 24.1007 12.386C24.0872 13.1213 24.152 13.9967 24.0205 14.7442C23.9536 15.0544 23.7444 15.3761 23.4147 15.4929C22.8868 15.7243 22.1741 15.6597 21.6864 15.3894C21.2765 15.1057 21.2253 14.6297 21.1719 14.178C21.1318 13.2882 21.065 12.3482 21.3167 11.5351C21.5149 11.0334 22.0562 10.9043 22.544 10.8654C23.0583 10.8653 23.5594 10.9432 23.8757 11.3559Z" fill="#ABABAB"/>
<path d="M16.6836 22.6311L16.5922 22.7089C15.2181 23.0048 13.6839 23.0171 12.3092 22.6822L12.4129 22.5665C13.6206 21.7801 15.5032 21.7801 16.6836 22.6311ZM12.0365 22.3352L11.7764 22.5409C10.6851 22.2573 9.67278 21.7678 8.73738 21.0982V21.0592C9.04971 20.8656 9.36158 20.6598 9.69898 20.5186C10.439 21.2517 11.2051 21.8068 12.0365 22.3352ZM20.2671 21.0592C19.5411 21.6387 18.6969 22.0259 17.8393 22.3474L17.2292 22.5409C17.1267 22.4887 17.0353 22.413 16.9441 22.3352L16.9686 22.2962C17.8015 21.8066 18.5543 21.2138 19.267 20.5053C19.619 20.6477 19.9553 20.8401 20.2671 21.0592ZM18.8795 20.325C18.4632 20.8012 17.9307 21.2139 17.4364 21.562C17.138 21.7422 16.8394 21.9358 16.5276 22.0904L15.9686 21.8457L16.0086 21.7556C16.4763 21.1238 16.8929 20.4798 17.2559 19.7968L17.2937 19.7702C17.8528 19.899 18.3852 20.0804 18.8795 20.325ZM11.7381 19.7833C12.1139 20.492 12.5816 21.1617 13.0493 21.8313C12.8667 21.9358 12.6468 22.0005 12.4641 22.1027C11.6078 21.6778 10.7893 21.0849 10.1016 20.3763V20.3374C10.6077 20.0928 11.1401 19.9123 11.6851 19.7701L11.7381 19.7833ZM16.8662 19.6677L16.8773 19.7066C16.5166 20.4018 16.06 21.0715 15.5677 21.7033C15.3474 21.7289 15.1401 21.6388 14.9173 21.6254L14.6991 21.6009C14.6725 20.84 14.6591 20.1693 14.6991 19.4095C15.4385 19.4231 16.1779 19.4997 16.8662 19.6677ZM14.3077 21.5877C14.0359 21.6521 13.7369 21.6521 13.4769 21.7167C12.9441 21.0849 12.5031 20.4019 12.1267 19.6932L12.1918 19.641C12.8667 19.5132 13.5682 19.4096 14.2954 19.4096L14.3077 21.5877ZM11.5815 18.6243C11.4513 18.6243 11.3087 18.5976 11.2179 18.6365L11.5425 19.3962L11.5041 19.4352C10.9189 19.6021 10.3477 19.8091 9.79024 20.0414L9.73731 20.0149C9.37371 19.6166 9.02343 19.1782 8.73731 18.739C8.67383 18.5209 8.41383 18.6489 8.2713 18.6244C8.5825 19.1906 8.9973 19.6934 9.41383 20.2085C9.06251 20.4154 8.71231 20.6479 8.34863 20.8147C7.56969 20.2218 6.84197 19.4486 6.29742 18.6367C6.14096 18.611 6.03735 18.6244 5.88202 18.6367C6.81576 20.106 8.2713 21.3942 9.79024 22.154L9.80251 22.1418L9.81644 22.1807C10.8415 22.6824 11.9317 23.044 13.0877 23.1985C17.0732 23.7269 20.8774 22.0128 23.0845 18.6367C22.9687 18.6244 22.7994 18.6244 22.6681 18.6367C22.1246 19.4231 21.4364 20.1839 20.6836 20.7757L20.5543 20.7635C20.2291 20.5577 19.8773 20.3886 19.5655 20.1839C19.982 19.6801 20.3851 19.1784 20.6968 18.6244H20.2937C19.9685 19.1005 19.63 19.6022 19.2023 20.0282C18.63 19.7968 18.111 19.59 17.5275 19.4352L17.463 19.384C17.5543 19.126 17.7214 18.8811 17.7747 18.6243H17.4251L17.0732 19.3195C16.3071 19.1515 15.4629 19.0614 14.6833 19.0103C14.6455 18.8946 14.699 18.7266 14.6455 18.6243H14.3075C14.2819 18.7778 14.3465 18.8946 14.2696 19.0225C13.4638 19.0614 12.6849 19.1515 11.9316 19.3062L11.5815 18.6243ZM3.34975 8.72637L2.54462 8.73975C2.53182 9.46532 2.53182 10.1911 2.54462 10.9166C2.98667 10.9311 3.40208 10.9166 3.83081 10.9556V15.3384L3.81689 15.5175L2.53182 15.5441C2.50561 16.2525 2.50561 16.9615 2.53182 17.6699H8.25737V15.5441C7.82864 15.5175 7.3487 15.5563 6.9333 15.5052L6.9461 10.9823L6.9723 10.9433L8.25737 10.9311C8.27137 10.1958 8.28357 9.41044 8.24517 8.73968L3.34975 8.72637ZM25.4098 9.50055C23.7216 8.41821 21.1491 8.34036 19.412 9.31921C18.4632 9.80864 17.8396 10.7764 17.6458 11.7675C17.2939 13.4049 17.3852 15.3505 18.6301 16.5753C20.0868 17.8634 22.2026 18.147 24.0846 17.6187C24.1735 17.6009 24.4587 17.5285 24.6525 17.4239L24.7082 17.3995C25.2917 17.1549 25.8508 16.7543 26.2649 16.2137C27.2272 14.7966 27.2918 12.6697 26.706 11.0724C26.4743 10.4538 25.9933 9.89987 25.4098 9.50055ZM14.399 9.08792C12.9703 8.48169 10.9713 8.41828 9.67285 9.35817C8.82872 9.97667 8.56872 11.0846 8.78979 12.0646C8.95905 12.9923 9.84159 13.6753 10.6851 13.9968C11.8417 14.4095 13.0493 14.7054 14.2164 15.1058C14.3345 15.157 14.4897 15.2726 14.4653 15.4151C14.4653 15.5308 14.3468 15.5953 14.2554 15.6464C13.0355 15.9814 11.7114 15.7243 10.8289 14.7966C10.7253 14.6676 10.6602 14.513 10.5555 14.3839L8.80266 14.3973C8.77766 15.4407 8.76366 16.6388 8.80266 17.67L10.7504 17.6578L10.7766 17.0381C10.9977 17.1426 11.2181 17.2706 11.4392 17.3874C12.7894 17.9537 14.53 18.0815 15.8664 17.3874C16.8396 16.8446 17.3608 15.8012 17.216 14.6811C17.0735 13.5855 16.0355 12.5932 14.9843 12.3218L11.8417 11.4074L11.6078 11.2906C11.5043 11.2005 11.4391 11.0848 11.4641 10.9436C11.7113 10.5186 12.2832 10.6477 12.7119 10.6599C13.6206 10.7889 14.5543 11.0982 15.0867 11.9358C15.6591 11.9358 16.3206 11.9481 16.9442 11.9236C16.9687 10.8657 16.9307 9.938 16.9175 8.86792C16.334 8.85566 15.619 8.85566 15.0355 8.88236C15.0088 9.03692 15.0599 9.25498 14.9953 9.41067L14.399 9.08792ZM15.4497 4.7062C15.9575 5.35027 16.4497 6.00765 16.7883 6.71625C16.0868 6.8842 15.3739 6.97319 14.6457 6.97319C14.619 6.29128 14.6323 5.53049 14.6457 4.82181C14.9062 4.783 15.1913 4.74404 15.4497 4.7062ZM14.2308 4.80969C14.2698 5.47934 14.2431 6.25247 14.2431 6.96107C13.8789 7.0123 13.5554 6.94881 13.1919 6.92211C12.8405 6.87089 12.3989 6.83201 12.0493 6.71632C12.4257 6.00772 12.8667 5.32477 13.3989 4.69289L14.2308 4.80969ZM12.9703 4.56494L12.9318 4.66724C12.4379 5.28574 12.0493 5.9565 11.6589 6.61388L11.6077 6.62614C11.0755 6.48481 10.5554 6.31686 10.0626 6.09775L10.0888 6.01984C10.8027 5.33793 11.5555 4.77066 12.3867 4.33238C12.5816 4.40918 12.7753 4.47484 12.9703 4.56494ZM18.8128 6.03442L18.7884 6.07226C18.2807 6.29143 17.7616 6.49722 17.2025 6.61395C16.8016 5.92988 16.3606 5.24797 15.8661 4.59052C16.0487 4.4871 16.2693 4.40918 16.4631 4.30688C17.3072 4.73185 18.1246 5.33808 18.8128 6.03442ZM11.9964 4.08771C11.1918 4.59052 10.4001 5.18336 9.67285 5.90423C9.32258 5.77516 8.99745 5.58276 8.68618 5.36253V5.33801C9.50412 4.73178 10.4128 4.28124 11.3739 3.9709L11.4902 3.89523V3.91968C11.5937 3.94638 11.6729 3.82957 11.7631 3.90742L11.9964 4.08771ZM20.1759 5.31138L20.1514 5.36261L19.2561 5.86646H19.1892C18.5032 5.17013 17.697 4.56502 16.8773 4.08778L17.1267 3.86861C18.2159 4.15224 19.2426 4.64174 20.1759 5.31138ZM16.6056 3.73954V3.76519C15.4764 4.59052 13.6456 4.66724 12.4519 3.90757L12.2442 3.73954C13.6206 3.41702 15.2425 3.39137 16.6056 3.73954ZM15.2693 3.16001C14.9175 3.12105 14.4898 3.10886 14.1128 3.14662C13.9703 3.13443 13.8016 3.14662 13.6329 3.16001C10.5165 3.40468 7.64725 5.01541 5.85597 7.76075C5.9857 7.74744 6.14111 7.79859 6.27077 7.74744C6.58265 7.31029 6.93345 6.88427 7.32258 6.47157C7.65998 6.14898 7.97237 5.84089 8.33598 5.6084C8.67398 5.82758 9.04978 6.00772 9.37386 6.21351C8.97125 6.71632 8.55644 7.21913 8.25745 7.76083C8.34878 7.79867 8.51752 7.7864 8.64725 7.76083C8.97125 7.28367 9.32258 6.80643 9.73746 6.38154C10.2964 6.58733 10.8416 6.80643 11.4129 6.96107L11.4641 7.0123L11.14 7.7609C11.2825 7.78648 11.3739 7.77317 11.5164 7.7609C11.6339 7.54068 11.7241 7.29593 11.8538 7.07788C12.6066 7.24471 13.3989 7.33489 14.2041 7.36159C14.3076 7.4505 14.2308 7.64522 14.2697 7.7609H14.6188C14.6589 7.63079 14.6078 7.48953 14.6589 7.37378C15.4117 7.33482 16.2023 7.25697 16.9307 7.07788L16.9953 7.09014L17.345 7.7609C17.463 7.7609 17.6189 7.78648 17.7102 7.73421L17.385 6.98784L17.4117 6.96115C18.0087 6.80651 18.5676 6.57514 19.1377 6.34265C19.541 6.76762 19.9173 7.27148 20.2559 7.7609C20.3985 7.7609 20.5412 7.77317 20.6435 7.73421C20.4846 7.44617 20.2982 7.17422 20.0867 6.92219C19.9173 6.67744 19.7348 6.45946 19.5143 6.22697V6.16244L20.4231 5.63405L20.5545 5.5829C21.3452 6.18801 22.0468 6.92219 22.6035 7.73421C22.7595 7.73421 22.8908 7.78648 23.0201 7.72194C21.2805 5.09333 18.4119 3.40476 15.3071 3.16001L15.2938 3.18558L15.2693 3.16001ZM0 0.00308228H28.9533V26.4198H0V0.00308228Z" fill="#ABABAB"/>
</g>
<path d="M30.9592 15.176C31.1987 14.9857 31.3079 14.8976 31.2868 14.9117C31.9773 14.341 32.5198 13.8724 32.9144 13.5061C33.316 13.1397 33.6542 12.7557 33.929 12.354C34.2038 11.9524 34.3412 11.5614 34.3412 11.1809C34.3412 10.892 34.2743 10.6665 34.1404 10.5045C34.0065 10.3424 33.8057 10.2614 33.538 10.2614C33.2702 10.2614 33.0589 10.3636 32.9038 10.5679C32.7559 10.7652 32.6819 11.047 32.6819 11.4134H30.938C30.9521 10.8145 31.0789 10.3142 31.3185 9.91261C31.5651 9.51099 31.8857 9.21506 32.2803 9.02482C32.6819 8.83458 33.1258 8.73946 33.612 8.73946C34.4504 8.73946 35.0811 8.95436 35.5038 9.38416C35.9336 9.81397 36.1485 10.3741 36.1485 11.0646C36.1485 11.8185 35.8913 12.5196 35.377 13.1679C34.8626 13.809 34.2074 14.4361 33.4112 15.0491H36.2648V16.5182H30.9592V15.176ZM41.9856 10.2614L39.3328 16.6239H37.4833L40.1678 10.4622H36.8808V8.91913H41.9856V10.2614ZM42.7165 12.6605C42.7165 11.4486 42.9491 10.4939 43.4141 9.79635C43.8862 9.0988 44.6436 8.75003 45.6864 8.75003C46.7292 8.75003 47.4831 9.0988 47.9482 9.79635C48.4203 10.4939 48.6563 11.4486 48.6563 12.6605C48.6563 13.8865 48.4203 14.8483 47.9482 15.5459C47.4831 16.2434 46.7292 16.5922 45.6864 16.5922C44.6436 16.5922 43.8862 16.2434 43.4141 15.5459C42.9491 14.8483 42.7165 13.8865 42.7165 12.6605ZM46.8807 12.6605C46.8807 11.9489 46.8032 11.4028 46.6482 11.0224C46.4932 10.6348 46.1726 10.4411 45.6864 10.4411C45.2003 10.4411 44.8797 10.6348 44.7246 11.0224C44.5696 11.4028 44.4921 11.9489 44.4921 12.6605C44.4921 13.1397 44.5203 13.5378 44.5767 13.8548C44.6331 14.1649 44.7458 14.4185 44.9149 14.6158C45.091 14.806 45.3482 14.9012 45.6864 14.9012C46.0246 14.9012 46.2783 14.806 46.4474 14.6158C46.6235 14.4185 46.7398 14.1649 46.7962 13.8548C46.8525 13.5378 46.8807 13.1397 46.8807 12.6605ZM49.6111 12.6605C49.6111 11.4486 49.8437 10.4939 50.3087 9.79635C50.7808 9.0988 51.5382 8.75003 52.581 8.75003C53.6238 8.75003 54.3777 9.0988 54.8428 9.79635C55.3149 10.4939 55.5509 11.4486 55.5509 12.6605C55.5509 13.8865 55.3149 14.8483 54.8428 15.5459C54.3777 16.2434 53.6238 16.5922 52.581 16.5922C51.5382 16.5922 50.7808 16.2434 50.3087 15.5459C49.8437 14.8483 49.6111 13.8865 49.6111 12.6605ZM53.7753 12.6605C53.7753 11.9489 53.6978 11.4028 53.5428 11.0224C53.3878 10.6348 53.0672 10.4411 52.581 10.4411C52.0948 10.4411 51.7743 10.6348 51.6192 11.0224C51.4642 11.4028 51.3867 11.9489 51.3867 12.6605C51.3867 13.1397 51.4149 13.5378 51.4713 13.8548C51.5276 14.1649 51.6404 14.4185 51.8095 14.6158C51.9856 14.806 52.2428 14.9012 52.581 14.9012C52.9192 14.9012 53.1729 14.806 53.342 14.6158C53.5181 14.4185 53.6344 14.1649 53.6908 13.8548C53.7471 13.5378 53.7753 13.1397 53.7753 12.6605ZM56.3155 10.589V8.90856H59.2431V16.6239H57.3618V10.589H56.3155Z" fill="#ABABAB"/>
<defs>
<clipPath id="clip0_95_2469">
<rect width="28.9533" height="26.4224" fill="white"/>
</clipPath>
</defs>
</svg>
