<svg width="43" height="21" viewBox="0 0 43 21" fill="none" xmlns="http://www.w3.org/2000/svg">
<rect x="1.15" y="0.65" width="40.7" height="19.7" rx="2.35" stroke="#292D32" stroke-width="1.3"/>
<mask id="path-2-outside-1_1_2700" maskUnits="userSpaceOnUse" x="5.5" y="5" width="10" height="12" fill="black">
<rect fill="white" x="5.5" y="5" width="10" height="12"/>
<path d="M15.029 15.194C15.0637 15.2547 15.081 15.3197 15.081 15.389C15.081 15.5797 15.016 15.7443 14.886 15.883C14.7647 16.013 14.6087 16.078 14.418 16.078C14.288 16.078 14.1667 16.0433 14.054 15.974C13.9413 15.896 13.859 15.7963 13.807 15.675L12.728 12.867H8.633L7.541 15.688C7.49767 15.8007 7.41967 15.896 7.307 15.974C7.19433 16.0433 7.06867 16.078 6.93 16.078C6.748 16.078 6.592 16.013 6.462 15.883C6.34067 15.753 6.28 15.597 6.28 15.415C6.28 15.337 6.29733 15.2677 6.332 15.207L10.141 5.847C10.2017 5.70833 10.2797 5.60433 10.375 5.535C10.479 5.457 10.583 5.418 10.687 5.418C10.8083 5.418 10.921 5.457 11.025 5.535C11.1377 5.60433 11.22 5.71267 11.272 5.86L15.029 15.194ZM10.596 7.758L9.088 11.658H12.273L10.778 7.758L10.7 7.433L10.596 7.758Z"/>
</mask>
<path d="M15.029 15.194C15.0637 15.2547 15.081 15.3197 15.081 15.389C15.081 15.5797 15.016 15.7443 14.886 15.883C14.7647 16.013 14.6087 16.078 14.418 16.078C14.288 16.078 14.1667 16.0433 14.054 15.974C13.9413 15.896 13.859 15.7963 13.807 15.675L12.728 12.867H8.633L7.541 15.688C7.49767 15.8007 7.41967 15.896 7.307 15.974C7.19433 16.0433 7.06867 16.078 6.93 16.078C6.748 16.078 6.592 16.013 6.462 15.883C6.34067 15.753 6.28 15.597 6.28 15.415C6.28 15.337 6.29733 15.2677 6.332 15.207L10.141 5.847C10.2017 5.70833 10.2797 5.60433 10.375 5.535C10.479 5.457 10.583 5.418 10.687 5.418C10.8083 5.418 10.921 5.457 11.025 5.535C11.1377 5.60433 11.22 5.71267 11.272 5.86L15.029 15.194ZM10.596 7.758L9.088 11.658H12.273L10.778 7.758L10.7 7.433L10.596 7.758Z" fill="#292D32"/>
<path d="M15.029 15.194L14.8435 15.2687L14.8486 15.2814L14.8554 15.2932L15.029 15.194ZM14.886 15.883L14.7401 15.7462L14.7398 15.7465L14.886 15.883ZM14.054 15.974L13.94 16.1387L13.9492 16.1443L14.054 15.974ZM13.807 15.675L13.6202 15.7468L13.6232 15.7538L13.807 15.675ZM12.728 12.867L12.9147 12.7953L12.8654 12.667H12.728V12.867ZM8.633 12.867V12.667H8.49596L8.44649 12.7948L8.633 12.867ZM7.541 15.688L7.35449 15.6158L7.35433 15.6162L7.541 15.688ZM7.307 15.974L7.41197 16.1446L7.42084 16.1384L7.307 15.974ZM6.462 15.883L6.3157 16.0195L6.32058 16.0244L6.462 15.883ZM6.332 15.207L6.50565 15.3062L6.51224 15.2947L6.51725 15.2824L6.332 15.207ZM10.141 5.847L9.95771 5.76681L9.95575 5.77161L10.141 5.847ZM10.375 5.535L10.4926 5.69676L10.495 5.695L10.375 5.535ZM11.025 5.535L10.905 5.695L10.9124 5.70051L10.9202 5.70533L11.025 5.535ZM11.272 5.86L11.0832 5.92663L11.0865 5.93468L11.272 5.86ZM10.596 7.758L10.7829 7.83026L10.7865 7.81895L10.596 7.758ZM9.088 11.658L8.90146 11.5859L8.79624 11.858H9.088V11.658ZM12.273 11.658V11.858H12.5639L12.4597 11.5864L12.273 11.658ZM10.778 7.758L10.5835 7.80467L10.5866 7.81738L10.5913 7.82959L10.778 7.758ZM10.7 7.433L10.8945 7.38632L10.7275 6.69073L10.5095 7.37204L10.7 7.433ZM14.8554 15.2932C14.8729 15.3239 14.881 15.3548 14.881 15.389H15.281C15.281 15.2846 15.2544 15.1854 15.2026 15.0948L14.8554 15.2932ZM14.881 15.389C14.881 15.529 14.8352 15.6447 14.7401 15.7462L15.0319 16.0198C15.1968 15.8439 15.281 15.6303 15.281 15.389H14.881ZM14.7398 15.7465C14.6592 15.8328 14.5577 15.878 14.418 15.878V16.278C14.6596 16.278 14.8701 16.1932 15.0322 16.0195L14.7398 15.7465ZM14.418 15.878C14.3257 15.878 14.2406 15.854 14.1588 15.8037L13.9492 16.1443C14.0928 16.2327 14.2503 16.278 14.418 16.278V15.878ZM14.1678 15.8096C14.0849 15.7521 14.0274 15.6816 13.9908 15.5962L13.6232 15.7538C13.6906 15.911 13.7978 16.0399 13.9402 16.1384L14.1678 15.8096ZM13.9937 15.6033L12.9147 12.7953L12.5413 12.9387L13.6203 15.7467L13.9937 15.6033ZM12.728 12.667H8.633V13.067H12.728V12.667ZM8.44649 12.7948L7.35449 15.6158L7.72751 15.7602L8.81951 12.9392L8.44649 12.7948ZM7.35433 15.6162C7.32731 15.6865 7.27742 15.7512 7.19316 15.8096L7.42084 16.1384C7.56192 16.0408 7.66802 15.9149 7.72767 15.7598L7.35433 15.6162ZM7.20218 15.8037C7.12259 15.8526 7.03352 15.878 6.93 15.878V16.278C7.10381 16.278 7.26608 16.234 7.41182 16.1443L7.20218 15.8037ZM6.93 15.878C6.80165 15.878 6.69634 15.8345 6.60342 15.7416L6.32058 16.0244C6.48766 16.1915 6.69435 16.278 6.93 16.278V15.878ZM6.60821 15.7465C6.52233 15.6545 6.48 15.5477 6.48 15.415H6.08C6.08 15.6463 6.159 15.8515 6.31579 16.0195L6.60821 15.7465ZM6.48 15.415C6.48 15.3677 6.49019 15.3333 6.50565 15.3062L6.15835 15.1078C6.10447 15.2021 6.08 15.3063 6.08 15.415H6.48ZM6.51725 15.2824L10.3262 5.92239L9.95575 5.77161L6.14675 15.1316L6.51725 15.2824ZM10.3242 5.92716C10.3746 5.81197 10.4331 5.74006 10.4926 5.69675L10.2574 5.37325C10.1262 5.46861 10.0287 5.60469 9.95777 5.76684L10.3242 5.92716ZM10.495 5.695C10.5732 5.63638 10.6361 5.618 10.687 5.618V5.218C10.5299 5.218 10.3848 5.27762 10.255 5.375L10.495 5.695ZM10.687 5.618C10.7619 5.618 10.833 5.64099 10.905 5.695L11.145 5.375C11.009 5.27301 10.8548 5.218 10.687 5.218V5.618ZM10.9202 5.70533C10.9871 5.74651 11.0438 5.81423 11.0834 5.92656L11.4606 5.79344C11.3962 5.6111 11.2882 5.46216 11.1298 5.36467L10.9202 5.70533ZM11.0865 5.93468L14.8435 15.2687L15.2145 15.1193L11.4575 5.78532L11.0865 5.93468ZM10.4095 7.68587L8.90146 11.5859L9.27454 11.7301L10.7825 7.83013L10.4095 7.68587ZM9.088 11.858H12.273V11.458H9.088V11.858ZM12.4597 11.5864L10.9647 7.68641L10.5913 7.82959L12.0863 11.7296L12.4597 11.5864ZM10.9725 7.71133L10.8945 7.38632L10.5055 7.47967L10.5835 7.80467L10.9725 7.71133ZM10.5095 7.37204L10.4055 7.69704L10.7865 7.81895L10.8905 7.49395L10.5095 7.37204Z" fill="#292D32" mask="url(#path-2-outside-1_1_2700)"/>
<path d="M21.5 5.5V15.5" stroke="#292D32" stroke-width="1.3" stroke-linecap="round"/>
<path d="M37.49 7.45996H27.51" stroke="#292D32" stroke-width="1.5" stroke-linecap="round" stroke-linejoin="round"/>
<path d="M32.5 5.78003V7.46002" stroke="#292D32" stroke-width="1.5" stroke-linecap="round" stroke-linejoin="round"/>
<path d="M35 7.43994C35 11.7399 31.64 15.2199 27.5 15.2199" stroke="#292D32" stroke-width="1.5" stroke-linecap="round" stroke-linejoin="round"/>
<path d="M37.4999 15.22C35.6999 15.22 34.1 14.26 32.95 12.75" stroke="#292D32" stroke-width="1.5" stroke-linecap="round" stroke-linejoin="round"/>
</svg>
