<svg width="50" height="50" viewBox="0 0 50 50" fill="none" xmlns="http://www.w3.org/2000/svg">
<rect x="0.832031" y="0.811035" width="48.4054" height="48.4054" rx="8.60541" fill="#E83663"/>
<path fill-rule="evenodd" clip-rule="evenodd" d="M8.4909 37.1118C7.5779 37.1118 7.32227 36.6736 7.32227 35.9067V15.6016C7.32227 14.6521 7.7605 14.3965 8.4909 14.3965H12.5081C13.2385 14.3965 13.6767 14.6156 13.6767 15.6016V31.3052" fill="white"/>
<path fill-rule="evenodd" clip-rule="evenodd" d="M8.49129 12.4974L32.9231 21.3352C33.9821 21.8465 34.1282 22.1021 34.1282 23.0151V26.9592C34.1282 27.8357 33.9821 28.1644 32.9231 28.6392L8.49129 37.5135C7.94349 37.7326 7.32265 37.55 7.32265 36.7831V32.2911C7.32265 31.2321 7.65133 30.9399 8.63737 30.6112L25.473 24.9872L8.60085 19.3631C7.61481 19.0344 7.28613 18.7423 7.28613 17.6467V13.3008C7.32265 12.4609 7.98001 12.3148 8.49129 12.4974Z" fill="#191832"/>
<path fill-rule="evenodd" clip-rule="evenodd" d="M17.1472 12.4974L41.5789 21.3352C42.638 21.8465 42.7841 22.1021 42.7841 23.0151V26.9592C42.7841 27.8357 42.638 28.1644 41.5789 28.6392L17.1472 37.5135C16.5994 37.7326 15.9785 37.55 15.9785 36.7831V32.2911C15.9785 31.2321 16.3072 30.9399 17.2932 30.6112L34.1654 25.0237L17.2932 19.3996C16.3072 19.071 15.9785 18.7788 15.9785 17.6832V13.3008C15.9785 12.4609 16.5994 12.3148 17.1472 12.4974Z" fill="white"/>
</svg>
