<svg width="400" height="193" viewBox="0 0 400 193" fill="none" xmlns="http://www.w3.org/2000/svg">
<path fill-rule="evenodd" clip-rule="evenodd" d="M285.486 66.9014C285.367 67.7277 284.835 68.459 284.104 68.818C283.826 68.95 283.535 69.0253 283.241 69.0385C283.076 70.0549 282.528 70.7941 281.616 71.2336C280.568 71.7418 279.199 71.7946 277.872 71.8448C276.13 71.9108 273.731 72.06 272.083 72.6078C270.479 74.8518 273.262 75.7375 274.637 73.8182C276.068 74.4004 278.058 75.6847 276.909 77.3915C276.806 77.5459 276.698 77.7057 276.591 77.9208C276.325 78.4488 276.352 79.0917 276.381 79.7675C276.411 80.4685 276.436 81.1905 276.164 81.8875C275.957 82.4089 275.616 82.789 275.158 83.0148C274.448 83.358 273.602 83.2721 272.782 83.1916C272.411 83.1547 272.063 83.1217 271.742 83.127L271.322 83.1349L271.201 82.7336C271.066 82.2808 271.039 81.9271 271.018 81.667C271.002 81.4822 270.991 81.3568 270.945 81.2499C270.9 81.1958 270.856 81.1364 270.809 81.077C270.627 80.9146 270.17 80.6849 269.935 80.5806C269.812 81.1826 269.845 81.1245 269.859 81.6023C270.115 82.6372 270.187 83.416 268.912 84.7255C268.586 85.0581 268.143 85.3472 267.717 85.6271C267.234 85.9399 266.692 86.3187 266.378 86.8098C266.104 87.2388 266.214 87.578 266.255 88.4796L265.31 87.7562C264.505 87.1358 264.127 86.2646 263.765 85.4251C263.497 84.81 263.259 84.2529 262.881 83.8371C262.448 84.9882 261.502 86.2356 260.811 86.9009C260.504 87.1992 260.174 87.5384 259.857 87.8658C259.341 88.3978 258.809 88.9509 258.308 89.3706L257.705 89.8841L257.431 89.137C257.284 88.7304 257.289 88.0849 257.303 87.3378L257.305 86.753C256.83 87.3827 256.684 87.8922 256.286 88.5799L256.194 88.8743C255.881 89.8894 255.56 90.9441 254.828 91.7823C254.446 92.2166 253.979 92.6126 253.527 92.994C253.348 93.1485 253.171 93.2963 253.005 93.4442C252.284 93.9207 252.327 93.9392 252.547 94.8302C252.817 95.8928 252.945 96.9963 253.067 98.0695C253.168 98.9183 253.269 99.7987 253.443 100.632C253.671 101.748 254.455 102.909 255.212 104.033C256.154 105.429 257.126 106.869 257.202 108.401C257.721 108.537 258.941 108.677 259.577 108.752C260.336 108.839 260.616 108.876 260.776 108.924C261.99 109.301 262.202 109.416 262.502 110.167C262.572 110.347 262.662 110.571 262.829 110.887C262.894 111.007 262.983 111.153 263.076 111.307C263.376 111.791 263.706 112.339 263.813 112.883C263.975 113.72 263.834 114.413 263.393 114.948C262.775 115.698 261.61 116.064 259.83 116.064C258.57 116.064 257.276 115.903 255.996 115.879C254.854 115.859 253.675 115.837 252.706 115.593C250.767 115.106 250.486 113.982 250.188 112.793C250.102 112.444 250.013 112.085 249.878 111.699C249.574 110.845 248.799 110.43 247.904 109.947C247.058 109.493 246.183 109.023 245.631 108.127C245.374 107.711 245.219 107.306 245.067 106.919C244.85 106.36 244.644 105.834 244.143 105.31C243.763 104.903 243.334 104.548 242.883 104.172C242.225 103.621 241.539 103.053 240.993 102.308C239.857 100.766 238.43 98.7216 237.429 96.5554C237.327 96.3508 237.245 96.1317 237.159 95.8994L237.155 95.8941C236.621 95.2645 236.007 94.7233 235.227 94.3655C235.087 94.3022 234.942 94.2441 234.796 94.1913C234.742 94.1966 234.692 94.2045 234.642 94.2111C234.344 94.2494 234.035 94.2863 233.727 94.2863C231.56 94.2784 229.746 93.5432 228.169 92.045C227.939 91.8258 227.737 91.579 227.542 91.3361C226.474 90.0174 224.745 91.5882 224.133 92.507C224.044 92.6376 223.966 92.7551 223.898 92.8502C223.159 93.9022 222.531 95.0665 221.921 96.1937C221.298 97.3567 220.646 98.5605 219.866 99.672C219.528 100.146 219.178 100.621 218.841 101.078C217.977 102.247 217.087 103.455 216.402 104.743C215.878 105.741 215.548 106.648 215.4 107.518C215.234 108.467 215.214 108.957 215.226 109.197C215.387 109.181 215.564 109.168 215.709 109.2C216.275 109.324 216.706 109.745 216.916 109.983C217.123 110.223 217.21 110.487 217.269 110.681C217.298 110.763 217.326 110.845 217.35 110.893C217.399 110.908 217.503 110.92 217.578 110.929C217.668 110.937 217.766 110.949 217.87 110.973C218.251 111.054 218.61 111.194 218.959 111.329L219.119 111.394C219.776 111.647 220.67 111.992 221.027 112.752C221.401 113.531 221.452 114.178 221.184 114.724C220.73 115.674 219.45 115.973 218.423 116.214C217.24 116.489 215.44 116.818 213.572 116.818C212.013 116.818 210.693 116.588 209.646 116.133C208.812 115.767 207.365 114.997 207.025 113.919C206.713 112.945 207.153 112.188 207.506 111.582C207.636 111.365 207.755 111.157 207.835 110.955C207.979 110.602 208.011 110.43 208.02 110.356C207.967 110.331 207.888 110.297 207.827 110.268C207.547 110.144 207.166 109.976 206.784 109.583C205.818 108.586 206.275 106.741 206.374 106.379C206.626 105.487 206.961 104.724 207.285 103.983C207.788 102.836 208.263 101.751 208.322 100.35C208.424 97.985 209.054 95.7898 209.658 93.6673C210.013 92.4264 210.379 91.146 210.642 89.8339C210.828 88.9086 210.701 88.5773 210.606 88.4664C210.5 88.3384 210.255 88.2724 209.872 88.2724C209.585 88.2724 209.229 88.3093 208.72 88.3872C207.92 88.5086 206.997 88.5667 205.891 88.5667C205.078 88.5667 204.261 88.5377 203.537 88.5086C200.378 88.3925 199.571 88.2262 196.457 86.9365C195.711 86.6276 195.005 86.3359 194.335 86.1075C193.861 85.9465 193.37 85.7366 192.85 85.5149C191.677 85.0198 190.465 84.5077 189.417 84.5077L189.352 84.509C188.38 84.5288 187.865 85.3248 187.269 86.2488C187.093 86.5181 186.914 86.7939 186.719 87.0566C184.912 89.4854 185.308 93.6646 183.657 96.7059C183.413 97.1547 183.141 97.5758 182.877 97.985C182.055 99.2469 181.35 100.341 181.655 101.865C181.952 103.348 183.318 104.439 184.644 105.493C185.136 105.884 185.601 106.255 186.016 106.646C187.646 108.179 188.882 108.698 190.913 108.698C191.106 108.698 191.319 108.692 191.535 108.682C191.757 108.671 191.968 108.655 192.163 108.638C192.444 108.618 192.71 108.593 192.976 108.593C193.613 108.593 194.374 108.709 195.17 109.562C195.731 110.159 196.591 111.512 196.515 112.588C196.369 114.641 193.817 114.703 191.954 114.748C191.448 114.761 190.966 114.77 190.63 114.823C189 115.059 187.404 115.426 185.745 115.426C185.194 115.426 184.69 115.388 184.193 115.31C182.553 115.046 182.369 114.386 181.414 113.322C180.782 112.621 180.056 112.228 179.215 111.776C179.064 111.695 178.907 111.609 178.751 111.524C176.798 110.442 170.25 105.088 168.969 103.111C168.075 101.727 168.375 99.8871 168.639 98.2649C168.735 97.6774 168.825 97.1257 168.85 96.6518C168.911 95.4453 168.604 89.5844 166.739 88.8083C166.669 88.7792 166.614 88.7608 166.566 88.7542L166.439 88.7462C166.334 88.7608 166.234 88.8703 166.007 89.1686C165.766 89.4841 165.465 89.8801 164.956 90.1441C164.029 90.6259 163.033 90.7698 162.07 90.9084C160.942 91.0708 159.878 91.2266 159.053 91.9182C158.557 92.3367 158.138 92.7987 157.729 93.2911C157.013 94.7721 155.512 96.1687 154.296 96.7508C152.877 97.4319 152.147 97.164 150.533 98.2741C149.502 98.9869 148.901 100.04 148.278 101.24C147.669 102.399 146.458 107.74 146.828 108.937C147.14 108.921 147.471 108.795 147.821 108.66C148.313 108.467 148.882 108.248 149.525 108.304C150.785 108.401 151.932 109.249 152.769 109.866C153.666 110.529 154.31 111.865 154.336 113.115C154.357 114.076 154.013 114.892 153.367 115.413C153.019 115.694 152.512 115.866 151.967 115.979C150.073 116.381 146.782 116.676 145.081 116.543C143.216 116.398 141.515 115.832 140.964 114.341C140.614 113.395 140.433 112.488 140.256 111.611C139.968 110.185 139.697 108.839 138.727 107.562C136.652 104.815 138.793 101.36 138.253 98.1012C138.213 97.857 138.108 97.5415 137.998 97.2062C137.758 96.4789 137.484 95.6552 137.665 94.9595C138.052 93.4494 139.473 92.9386 140.727 92.4898C141.38 92.2562 142 92.0291 142.432 91.6978C141.979 88.3516 143.511 84.9182 144.746 82.1435C145.129 81.2855 145.434 80.3681 145.76 79.3992C146.294 77.8113 146.843 76.1678 147.755 74.7924L148.074 74.3093C149.109 72.7503 150.177 71.1373 151.149 69.5084C151.286 69.2761 151.425 69.0503 151.56 68.8286C152.124 67.9085 152.651 67.0426 153.04 65.9892C153.589 64.5082 154.148 63.3334 154.861 62.2285C153.455 62.309 150.773 62.3381 145.564 62.3948C140.576 62.4437 134.926 62.5018 133.789 62.6852C130.482 63.2198 122.474 65.1325 119.443 71.3089C118.335 73.5661 117.742 77.2199 119.053 79.9114C120.008 81.8716 123.2 85.1413 125.176 85.3129C125.931 84.5156 127.172 84.3466 128.532 84.736C131.236 85.5122 135.875 90.1785 137.686 92.301L138.26 92.9756L137.402 93.196C135.288 93.7438 133.099 94.3061 130.937 94.3061C129.401 94.3061 127.994 94.025 126.636 93.4521C124.948 92.7419 123.835 92.268 123.03 90.4926C122.944 90.3025 122.912 90.0451 122.861 89.5633C122.833 89.298 122.784 88.8386 122.724 88.6222C119.14 87.3312 116.619 85.1584 115.224 82.166C113.938 79.4019 113.659 76.0596 114.397 72.2303C114.962 69.3051 116.504 66.7364 118.85 64.8065C131.533 54.3692 146.054 59.6717 159.999 54.7322C164.623 53.0953 168.504 51.8255 172.851 51.5932L172.946 51.5879C174.08 51.5325 175.284 51.5047 176.526 51.5047C180.211 51.5047 183.943 51.7503 187.552 51.9879C191.144 52.2241 194.859 52.471 198.511 52.471C198.973 52.471 199.428 52.4697 199.893 52.4604C204.637 52.3759 209.352 51.6024 213.915 50.8513C215.857 50.5319 217.87 50.2006 219.87 49.926L220.102 49.8956C222.321 49.5907 224.483 49.0851 226.66 48.6509L227.194 48.4159C228.495 47.8668 230.868 46.457 231.97 45.5251C232.164 45.2386 232.37 44.9443 232.628 44.6407C233.269 43.8909 234.003 43.1293 235.05 42.6211C235.356 42.4719 235.672 42.3544 236.013 42.2567C237.36 41.8739 238.692 41.5307 240.201 41.565C240.437 41.5703 240.663 41.573 240.884 41.5743C241.757 41.5782 242.583 41.5835 243.561 41.8304C244.378 42.0389 245.013 41.9677 245.9 41.5664C246.444 41.3222 246.979 41.0516 247.519 40.781C247.833 40.6252 248.144 40.4681 248.455 40.3163C250.193 39.4768 252.243 38.6175 254.648 39.0636C256.99 39.4939 259.613 38.2571 262.14 38.6003C263.08 38.727 263.995 38.9065 264.846 39.7223C265.219 40.0787 265.44 40.5354 265.64 40.9446C265.78 41.2298 265.937 41.5571 266.074 41.6429C266.333 41.8079 266.712 41.8871 267.11 41.9716C267.681 42.0904 268.323 42.2277 268.884 42.6554C269.782 43.3378 270.501 44.374 270.969 45.6505C271.113 46.0372 271.197 46.4781 271.293 46.9494C271.643 48.6958 271.947 49.4957 273.186 49.3214C273.316 49.303 273.458 49.2568 273.609 49.1828C273.985 48.998 274.399 48.6522 274.694 48.2786L275.553 47.1738L275.68 48.5651C275.792 49.7491 275.376 50.7193 274.501 51.3397C275.114 51.8361 275.919 52.5845 276.584 53.5296C276.849 53.8768 277.058 54.2609 277.263 54.6345C277.332 54.7625 277.4 54.8906 277.47 55.016L277.417 55.049C277.552 55.3882 277.662 55.7433 277.735 56.1129C277.812 56.5221 277.824 56.7373 277.825 56.8745C277.825 56.9075 277.825 56.9313 277.827 56.9564C277.849 57.0316 278.07 57.392 278.205 57.6085C278.506 58.0969 278.957 58.5853 279.389 59.0565C279.507 59.1846 279.623 59.31 279.731 59.4288C280.252 60.0109 280.716 60.5534 281.164 61.0828C282.045 62.1216 282.879 63.105 283.999 64.1531C284.136 64.2811 284.266 64.3986 284.387 64.5055C285.08 65.1167 285.676 65.6434 285.486 66.9014Z" fill="#6D6D6D"/>
<path fill-rule="evenodd" clip-rule="evenodd" d="M182.605 73.3707C182.446 70.5696 182.949 68.1738 181.707 65.0836C181.504 64.5847 181.06 64.2586 180.652 63.9128C182.808 65.7582 181.317 70.2145 182.24 75.7441C183.162 81.2776 189.787 84.4614 189.787 84.4614C188.759 83.6958 187.773 82.8721 186.864 81.9653C184.516 79.6262 182.798 76.7367 182.605 73.3707Z" fill="white"/>
<path fill-rule="evenodd" clip-rule="evenodd" d="M166.44 88.7437C166.44 88.7437 171.501 79.4296 181.05 79.0653C181.05 79.0653 171.201 77.4457 166.44 88.7437Z" fill="white"/>
<path fill-rule="evenodd" clip-rule="evenodd" d="M270.696 52.7251C270.126 52.939 269.529 53.067 268.925 53.1634C267.713 53.36 266.438 53.4313 265.156 53.8379C264.842 53.9448 264.525 54.0702 264.22 54.2286C263.916 54.3896 263.622 54.5824 263.358 54.8094C262.825 55.2622 262.42 55.8575 262.17 56.4819C262.038 56.8026 261.951 57.1366 261.913 57.4824C261.873 57.827 261.893 58.1794 261.979 58.5147C262.071 58.8473 262.228 59.1628 262.45 59.4162C262.673 59.6684 262.946 59.8611 263.239 59.9891C263.002 59.774 262.798 59.5337 262.664 59.2684C262.525 59.0044 262.443 58.7232 262.426 58.4342C262.387 57.8639 262.554 57.2924 262.825 56.7907C263.106 56.2733 263.465 55.8285 263.912 55.4839C264.356 55.1407 264.88 54.8965 265.442 54.7144C266.572 54.3487 267.83 54.2114 269.078 53.8696C269.701 53.698 270.325 53.4736 270.891 53.133C271.454 52.7911 271.957 52.3344 272.277 51.7826C271.797 52.2037 271.266 52.5192 270.696 52.7251Z" fill="white"/>
<path fill-rule="evenodd" clip-rule="evenodd" d="M269.326 78.2244C269.136 77.674 268.873 77.142 268.546 76.651C268.217 76.1626 267.817 75.7243 267.384 75.3296C266.954 74.935 266.501 74.5825 266.055 74.2433C265.609 73.8987 265.17 73.5635 264.764 73.2005C264.36 72.8427 263.984 72.4652 263.681 72.0441C263.528 71.8395 263.391 71.6151 263.284 71.3986C263.165 71.1597 263.068 70.9182 262.982 70.6726C262.809 70.1816 262.707 69.6681 262.682 69.148C262.65 68.6253 262.705 68.0999 262.797 67.5732C262.984 66.5185 263.396 65.4889 263.804 64.4474C264.223 63.4086 264.664 62.3565 264.967 61.2504C265.267 60.1482 265.416 58.9707 265.19 57.8566C265.21 58.9892 264.946 60.0795 264.541 61.1105C264.146 62.1467 263.63 63.1354 263.147 64.1597C262.66 65.1787 262.202 66.2453 261.943 67.403C261.815 67.9798 261.757 68.5817 261.781 69.1876C261.804 69.7909 261.917 70.3954 262.109 70.9696C262.21 71.2561 262.326 71.5359 262.458 71.8012C262.603 72.0864 262.764 72.3398 262.95 72.5867C263.318 73.0724 263.749 73.4922 264.196 73.8644C265.103 74.6036 266.06 75.2003 266.914 75.8748C267.759 76.548 268.456 77.3915 268.902 78.3881C269.09 78.7894 270.023 81.8254 269.637 79.5391C269.545 78.99 269.373 78.367 269.326 78.2244Z" fill="white"/>
<path fill-rule="evenodd" clip-rule="evenodd" d="M228.131 89.6158C228.465 89.4666 228.808 89.3188 229.151 89.1617C229.634 88.9333 230.127 88.6852 230.588 88.3684C231.497 87.748 232.309 86.9467 232.88 85.9976C233.457 85.0499 233.794 84.007 233.958 82.9471C233.431 83.883 232.923 84.7964 232.286 85.5831C231.655 86.3725 230.903 87.0365 230.067 87.6054C229.442 88.037 225.054 90.9662 228.131 89.6158Z" fill="white"/>
<path fill-rule="evenodd" clip-rule="evenodd" d="M223.802 55.3303C223.742 55.5877 223.686 55.8477 223.64 56.1104L223.517 56.8694C223.19 58.8613 222.779 60.8506 221.957 62.6564C221.533 63.5474 221.008 64.4001 220.249 65.0192C219.874 65.332 219.44 65.5696 218.967 65.7254C218.495 65.8811 217.985 65.9379 217.473 65.9234C217.976 66.0343 218.503 66.058 219.024 65.963C219.548 65.8745 220.052 65.6607 220.506 65.3703C220.956 65.0773 221.344 64.6997 221.689 64.2932C222.036 63.8853 222.321 63.4352 222.579 62.9718C223.092 62.0478 223.453 61.0565 223.746 60.0559C223.896 59.557 224.023 59.0501 224.131 58.5432C224.242 58.0363 224.338 57.5281 224.427 57.0186L224.548 56.2622C224.588 56.0207 224.635 55.7804 224.689 55.5375C224.798 55.0597 224.936 54.5818 225.099 54.1132C225.26 53.646 225.437 53.1826 225.645 52.7299C227.134 49.4549 224.398 52.9239 223.802 55.3303Z" fill="white"/>
<path fill-rule="evenodd" clip-rule="evenodd" d="M257.681 84.9234C257.799 83.8357 257.725 82.715 257.376 81.6472C257.288 81.3818 257.174 81.1178 257.052 80.875C256.932 80.6268 256.803 80.3852 256.666 80.1437C256.394 79.6671 256.089 79.2065 255.769 78.7643C255.126 77.8719 254.404 77.0535 253.658 76.2589C252.177 74.6537 250.471 73.273 248.77 71.9451L246.197 69.9835C245.768 69.6535 245.354 69.3288 244.931 68.9896L243.668 67.9837C241.986 66.6558 240.351 65.2737 239.111 63.5881C238.488 62.7512 237.971 61.8377 237.595 60.8702C237.22 59.9013 236.98 58.8743 236.865 57.8328C236.747 56.7887 236.76 55.7274 236.845 54.6674C236.888 54.1381 236.954 53.6088 237.036 53.0821C237.117 52.562 237.24 52.0485 237.401 51.5469C237.717 50.5424 238.212 49.5867 238.905 48.7881C239.597 47.9868 240.503 47.3651 241.522 47.0061C240.999 47.1407 240.492 47.3453 240.018 47.6146C239.543 47.8865 239.107 48.2258 238.718 48.6125C237.938 49.394 237.368 50.3695 236.976 51.3978C236.776 51.9126 236.628 52.4485 236.516 52.9857C236.407 53.523 236.317 54.0615 236.247 54.6027C236.104 55.6918 236.066 56.794 236.151 57.9001C236.232 59.0023 236.453 60.1046 236.841 61.1527C237.222 62.2034 237.761 63.1947 238.404 64.0989C239.052 65.0084 239.811 65.8215 240.607 66.5753C241.407 67.3316 242.248 68.0273 243.091 68.7031L244.365 69.705C244.786 70.0403 245.219 70.3729 245.651 70.7003L248.241 72.6394C249.104 73.2822 249.954 73.9343 250.775 74.6128C251.596 75.2992 252.387 76.0081 253.144 76.7605C253.901 77.5168 254.627 78.297 255.289 79.1286C255.617 79.5417 255.927 79.9734 256.213 80.4169C256.492 80.8657 256.763 81.3264 256.95 81.8029C257.333 82.7705 257.467 83.845 257.424 84.9023C257.384 85.8369 257.605 85.557 257.681 84.9234Z" fill="white"/>
<path fill-rule="evenodd" clip-rule="evenodd" d="M250.341 94.6789C250.075 94.7713 249.808 94.8505 249.542 94.9165C249.49 94.9283 249.439 94.9376 249.39 94.9495C249.865 94.3832 250.223 93.7139 250.431 93.0038C250.712 92.0732 250.748 91.0937 250.648 90.1486C250.541 89.2008 250.301 88.2755 249.949 87.395C249.598 86.5146 249.149 85.6751 248.608 84.8923C248.335 84.5003 248.042 84.1254 247.713 83.7703C247.393 83.4192 247.057 83.0958 246.713 82.779C246.021 82.1427 245.295 81.5619 244.555 81.0035C243.072 79.8868 241.529 78.8942 240.085 77.8012C238.642 76.7069 237.29 75.5136 236.221 74.0827C235.956 73.729 235.708 73.3541 235.482 72.9792C235.254 72.5911 235.043 72.1977 234.843 71.7951C234.443 70.9886 234.113 70.1517 233.835 69.2924C233.56 68.4331 233.33 67.5566 233.165 66.6669C232.995 65.7759 232.89 64.873 232.837 63.9675C232.738 62.1538 232.878 60.3163 233.375 58.5475C232.717 60.2635 232.441 62.1247 232.437 63.9767C232.432 64.9034 232.501 65.834 232.631 66.7527C232.759 67.6741 232.946 68.5875 233.205 69.4838C233.458 70.3814 233.775 71.2605 234.159 72.1146C234.352 72.5396 234.561 72.9673 234.794 73.3699C235.037 73.7857 235.284 74.1804 235.563 74.5659C236.112 75.3328 236.736 76.0443 237.409 76.7003C238.082 77.355 238.803 77.9504 239.537 78.5153C241.013 79.6466 242.549 80.6577 244.011 81.7348C244.611 82.181 245.014 82.4397 246.115 83.4363C246.446 83.736 246.767 84.0514 247.077 84.3696C247.377 84.6824 247.657 85.0256 247.917 85.3807C248.433 86.0962 248.871 86.8763 249.217 87.696C249.557 88.5118 249.823 89.3645 249.947 90.237C250.075 91.1069 250.058 91.9966 249.848 92.8427C249.642 93.6849 249.212 94.469 248.592 95.0934L248.159 95.5303L248.763 95.5026C249.085 95.4867 249.373 95.4141 249.652 95.3283C249.936 95.2452 250.207 95.1422 250.473 95.034C252.086 94.37 251.846 94.1693 250.341 94.6789Z" fill="white"/>
<path fill-rule="evenodd" clip-rule="evenodd" d="M213.074 81.3851C212.732 81.9738 212.539 82.6285 212.414 83.2806C212.18 84.594 212.212 85.9233 212.379 87.2248C212.403 87.3885 212.431 87.5469 212.448 87.6948C212.468 87.8439 212.481 87.9957 212.494 88.1475C212.523 88.4524 212.532 88.7587 212.532 89.0676C212.532 89.6827 212.489 90.3044 212.414 90.9261C212.279 92.1762 212.008 93.4434 211.938 94.7423C212.383 93.5279 212.841 92.332 213.133 91.0489C213.277 90.4113 213.372 89.754 213.406 89.0887C213.425 88.7534 213.421 88.4221 213.405 88.0868C213.393 87.9178 213.376 87.7502 213.356 87.5865C213.34 87.4136 213.315 87.2539 213.295 87.1008C213.133 85.8652 213.042 84.6072 213.129 83.3757C213.177 82.7632 213.272 82.152 213.478 81.5778C213.682 81.0076 214.029 80.4796 214.58 80.1218C214.264 80.2063 213.967 80.3753 213.711 80.5957C213.459 80.8188 213.251 81.0934 213.074 81.3851Z" fill="white"/>
<path fill-rule="evenodd" clip-rule="evenodd" d="M141.739 154.699V143.385L140.338 148.582H135.71L134.344 143.416V154.699H129.511V128.497H134.254L138.044 140.468L141.833 128.497H146.579V154.699H141.739Z" fill="#6D6D6D"/>
<path fill-rule="evenodd" clip-rule="evenodd" d="M156.736 154.699V147.035H153.946V154.699H149.112V131.43C149.112 129.813 150.427 128.497 152.043 128.497H158.677C160.294 128.497 161.61 129.813 161.61 131.43L161.61 154.699H156.736ZM156.736 133.332H153.946V142.2H156.736V133.332Z" fill="#6D6D6D"/>
<path fill-rule="evenodd" clip-rule="evenodd" d="M172.07 154.699L171.991 154.394L168.723 143.981H168.677V154.699H163.841V128.497H168.677V139.066L172.04 128.497H176.97L172.777 141.564L176.97 154.699H172.07Z" fill="#6D6D6D"/>
<path fill-rule="evenodd" clip-rule="evenodd" d="M177.808 154.699V128.497H190.305V133.332H182.642V139.146H188.76V143.981H182.642V149.828H190.305V154.699H177.808Z" fill="#6D6D6D"/>
<path fill-rule="evenodd" clip-rule="evenodd" d="M198.216 128.497H203.048V154.699H198.216V128.497Z" fill="#6D6D6D"/>
<path fill-rule="evenodd" clip-rule="evenodd" d="M226.504 128.497H231.339V154.699H226.504V128.497Z" fill="#6D6D6D"/>
<path fill-rule="evenodd" clip-rule="evenodd" d="M241.21 154.699L238.332 144.692V154.699H233.496V128.497H238.242L241.123 137.894V128.497H245.996V154.699H241.21Z" fill="#6D6D6D"/>
<path fill-rule="evenodd" clip-rule="evenodd" d="M248.234 154.699V128.497H257.8C259.418 128.497 260.734 129.813 260.734 131.43V151.765C260.734 153.355 259.39 154.699 257.8 154.699H248.234ZM255.862 133.332H253.069V149.827H255.862V133.332Z" fill="#6D6D6D"/>
<path fill-rule="evenodd" clip-rule="evenodd" d="M263.188 128.497H268.022V154.699H263.188V128.497Z" fill="#6D6D6D"/>
<path fill-rule="evenodd" clip-rule="evenodd" d="M277.816 154.699V147.035H275.027V154.699H270.19V131.43C270.19 129.813 271.505 128.497 273.122 128.497H279.752C281.369 128.497 282.687 129.813 282.687 131.43V154.699H277.816ZM277.816 133.332H275.027V142.2H277.816V133.332Z" fill="#6D6D6D"/>
<path fill-rule="evenodd" clip-rule="evenodd" d="M212.92 154.699L210.044 144.692V154.699H205.207V128.497H209.951L212.833 137.894V128.497H217.704V154.699H212.92Z" fill="#6D6D6D"/>
</svg>
