<svg width="54" height="25" viewBox="0 0 54 25" fill="none" xmlns="http://www.w3.org/2000/svg">
<g clip-path="url(#clip0_944_39063)">
<path fill-rule="evenodd" clip-rule="evenodd" d="M22.7586 12.1927C22.7586 8.96356 24.2671 6.08891 26.6158 4.2281C24.8838 2.85606 22.6961 2.03467 20.315 2.03467C14.705 2.03467 10.157 6.58271 10.157 12.1925C10.157 17.8025 14.7048 22.3503 20.315 22.3503C22.6961 22.3503 24.8838 21.5291 26.6158 20.1571C24.2671 18.2965 22.7586 15.4216 22.7586 12.1925V12.1927Z" fill="#DE2C1D"/>
<path fill-rule="evenodd" clip-rule="evenodd" d="M22.7585 12.1927C22.7585 15.4221 24.267 18.2967 26.6158 20.1573C28.9645 18.2967 30.4727 15.4219 30.4727 12.1927C30.4727 8.9636 28.9642 6.08896 26.6158 4.22815C24.267 6.08874 22.7585 8.9636 22.7585 12.1927Z" fill="#ED6100"/>
<path fill-rule="evenodd" clip-rule="evenodd" d="M32.9166 2.03467C30.5355 2.03467 28.3478 2.85606 26.616 4.2281C28.9647 6.08869 30.473 8.96356 30.473 12.1927C30.473 15.4221 28.9644 18.2967 26.616 20.1573C28.3478 21.5293 30.5355 22.3505 32.9166 22.3505C38.5266 22.3505 43.0744 17.8027 43.0744 12.1927C43.0744 6.58271 38.5266 2.03489 32.9166 2.03489V2.03467Z" fill="#F79F06"/>
</g>
<defs>
<clipPath id="clip0_944_39063">
<rect width="32.8578" height="20.4545" fill="white" transform="translate(10.1819 2)"/>
</clipPath>
</defs>
</svg>
