<svg width="88" height="84" viewBox="0 0 88 84" fill="none" xmlns="http://www.w3.org/2000/svg">
<g clip-path="url(#clip0_278_1222)">
<path d="M29.4456 26.4814H24.6309V43.3332H29.4456V26.4814Z" fill="#097387"/>
<path d="M43.8877 26.4812H29.4434V43.3329H43.8877V26.4812Z" fill="#BCECF5"/>
<path d="M58.333 26.4812H43.8887V43.3329H58.333V26.4812Z" fill="#BCECF5"/>
<path d="M63.1468 26.4812H58.332V43.3329H63.1468V26.4812Z" fill="#097387"/>
<path d="M46.2952 26.4814H41.4805V43.3332H46.2952V26.4814Z" fill="#097387"/>
<path d="M67.9622 45.7404V52.9626H19.8145V45.7404C19.8145 44.4163 20.8978 43.333 22.2218 43.333H65.5548C66.8789 43.333 67.9622 44.4163 67.9622 45.7404Z" fill="#90E0EF" stroke="#1990A7" stroke-width="2.47617" stroke-miterlimit="10" stroke-linecap="round" stroke-linejoin="round"/>
<path d="M70.3697 54.7681H17.4071C16.4201 54.7681 15.6016 53.9496 15.6016 52.9625C15.6016 51.9755 16.4201 51.157 17.4071 51.157H70.3697C71.3567 51.157 72.1752 51.9755 72.1752 52.9625C72.1752 53.9496 71.3567 54.7681 70.3697 54.7681Z" fill="#1990A7"/>
<path d="M66.4456 13.842L44.7791 5.17545C44.2976 4.98286 43.4791 4.98286 42.9976 5.17545L21.3311 13.842C20.4885 14.179 19.8145 15.166 19.8145 16.0809V24.0734C19.8145 25.3974 20.8978 26.4807 22.2218 26.4807H65.5548C66.8789 26.4807 67.9622 25.3974 67.9622 24.0734V16.0809C67.9622 15.166 67.2882 14.179 66.4456 13.842ZM43.8883 20.4623C41.8902 20.4623 40.2773 18.8494 40.2773 16.8512C40.2773 14.8531 41.8902 13.2402 43.8883 13.2402C45.8865 13.2402 47.4994 14.8531 47.4994 16.8512C47.4994 18.8494 45.8865 20.4623 43.8883 20.4623Z" fill="#1990A7"/>
</g>
<path d="M1.79098 80.1111V67.2411H3.69898L8.68498 77.4471V67.2411H10.071V80.1111H8.39698L3.17698 69.3291V80.1111H1.79098ZM15.9642 80.2551C13.6962 80.2551 12.1842 78.7611 12.1842 76.2411V74.5671C12.1842 72.1011 13.6782 70.5531 15.8742 70.5531C17.8362 70.5531 19.4382 71.7051 19.4382 74.4771V75.6831H13.6422V76.2411C13.6422 78.1311 14.4342 79.0671 15.9822 79.0671C17.1882 79.0671 17.8542 78.5091 18.0162 77.4651H19.4202C19.2042 79.3551 17.8722 80.2551 15.9642 80.2551ZM15.8742 71.7411C14.6142 71.7411 13.6422 72.6231 13.6422 74.5311H17.9982V74.2971C17.9982 72.4431 17.1342 71.7411 15.8742 71.7411ZM21.7652 68.6451H23.2232V70.6971H25.1132V71.9211H23.2232V77.7711C23.2232 78.6171 23.5652 78.9951 24.2672 78.9951C24.6452 78.9951 24.9692 78.9411 25.1852 78.8511V80.0391C24.9692 80.1291 24.6272 80.2011 24.1232 80.2011C22.5212 80.2011 21.7652 79.2831 21.7652 77.8791V71.9211H20.5952V70.6971H21.7652V68.6451ZM30.7949 80.1111V67.2411H34.0349C36.2849 67.2411 37.8329 68.0331 37.8329 70.3731V70.7151C37.8329 71.9751 37.2569 72.8931 35.9069 73.3251C37.5629 73.6851 38.3369 74.5491 38.3369 76.3131V76.6011C38.3369 78.9771 36.8969 80.1111 34.4309 80.1111H30.7949ZM32.2709 72.8211H34.0349C35.7089 72.8211 36.3569 72.1731 36.3569 70.6791V70.3551C36.3569 68.8971 35.5829 68.4291 33.9989 68.4291H32.2709V72.8211ZM32.2709 78.9231H34.3949C36.0149 78.9231 36.8609 78.1851 36.8609 76.6191V76.2771C36.8609 74.6031 36.0869 74.0091 34.2509 74.0091H32.2709V78.9231ZM42.6216 80.2551C41.0196 80.2551 39.8676 79.3551 39.8676 77.5911V77.4291C39.8676 75.3591 41.5956 74.6391 43.7376 74.6391H45.0336V73.6671C45.0336 72.3711 44.5836 71.7591 43.3776 71.7591C42.2976 71.7591 41.7216 72.2811 41.6316 73.2711H40.2096C40.3356 71.3631 41.7216 70.5531 43.4316 70.5531C45.1596 70.5531 46.4736 71.3811 46.4736 73.6671V80.1111H45.0336V79.0671C44.4936 79.8231 43.8276 80.2551 42.6216 80.2551ZM42.8376 79.1211C44.1336 79.1211 45.0336 78.4731 45.0336 77.1771V75.6831H43.7916C42.2436 75.6831 41.2896 76.1511 41.2896 77.4291V77.5551C41.2896 78.5631 41.7396 79.1211 42.8376 79.1211ZM48.8803 80.1111V70.6971H50.3203V72.0111C50.6983 71.2191 51.5623 70.5531 52.8583 70.5531C54.5143 70.5531 55.6483 71.5071 55.6483 73.8291V80.1111H54.1903V73.7571C54.1903 72.4071 53.6503 71.7771 52.4443 71.7771C51.2923 71.7771 50.3203 72.5331 50.3203 73.9011V80.1111H48.8803ZM58.0209 80.1111V66.3591H59.4609V75.0351L62.8269 70.6971H64.4289L60.9729 75.0711L64.6629 80.1111H62.9889L59.4609 75.2691V80.1111H58.0209ZM66.8975 68.9511C66.3575 68.9511 65.9615 68.5371 65.9615 68.0151C65.9615 67.4931 66.3755 67.0611 66.8975 67.0611C67.4195 67.0611 67.8335 67.4931 67.8335 68.0151C67.8335 68.5371 67.4375 68.9511 66.8975 68.9511ZM66.1955 80.1111V70.6971H67.6355V80.1111H66.1955ZM70.1146 80.1111V70.6971H71.5546V72.0111C71.9326 71.2191 72.7966 70.5531 74.0926 70.5531C75.7486 70.5531 76.8826 71.5071 76.8826 73.8291V80.1111H75.4246V73.7571C75.4246 72.4071 74.8846 71.7771 73.6786 71.7771C72.5266 71.7771 71.5546 72.5331 71.5546 73.9011V80.1111H70.1146ZM82.5312 83.4771C80.1733 83.4771 79.0933 82.3251 78.9133 80.8131H80.3713C80.5153 81.7851 81.2173 82.2711 82.5133 82.2711C83.9893 82.2711 84.8533 81.5331 84.8533 79.8231V78.4011C84.4033 79.2291 83.4133 79.9311 82.2253 79.9311C80.1913 79.9311 78.8233 78.4911 78.8233 76.1511V74.4411C78.8233 72.1551 80.2273 70.5531 82.3513 70.5531C83.6473 70.5531 84.4213 71.2011 84.8533 72.0111V70.6971H86.2933V79.8771C86.2933 82.3431 84.7813 83.4771 82.5312 83.4771ZM82.4593 78.7431C83.8813 78.7431 84.8713 77.7891 84.8713 75.9891V74.5131C84.8713 72.7131 84.0253 71.7411 82.5493 71.7411C81.0913 71.7411 80.2993 72.7491 80.2993 74.4231V76.1511C80.2993 77.8971 81.1993 78.7431 82.4593 78.7431Z" fill="#2E313A"/>
<defs>
<clipPath id="clip0_278_1222">
<rect width="57.7773" height="57.7773" fill="white" transform="translate(15)"/>
</clipPath>
</defs>
</svg>
