<svg width="89" height="86" viewBox="0 0 89 86" fill="none" xmlns="http://www.w3.org/2000/svg">
<path fill-rule="evenodd" clip-rule="evenodd" d="M72.4571 18.84C72.4571 17.5906 71.9615 16.3927 71.0767 15.5102C70.1941 14.6257 68.9962 14.1299 67.7463 14.1299C57.1028 14.1299 31.2898 14.1299 20.6464 14.1299C19.3964 14.1299 18.1986 14.6257 17.316 15.5102C16.4312 16.3927 15.9355 17.5906 15.9355 18.84C15.9355 26.0787 15.9355 39.8621 15.9355 47.1008C15.9355 48.3502 16.4312 49.5481 17.316 50.4306C18.1986 51.3151 19.3964 51.8109 20.6464 51.8109C31.2898 51.8109 57.1028 51.8109 67.7463 51.8109C68.9962 51.8109 70.1941 51.3151 71.0767 50.4306C71.9615 49.5481 72.4571 48.3502 72.4571 47.1008C72.4571 39.8621 72.4571 26.0787 72.4571 18.84Z" fill="#90E0EF"/>
<path d="M70.1015 61.231C76.6048 61.231 81.8768 55.9591 81.8768 49.4557C81.8768 42.9524 76.6048 37.6804 70.1015 37.6804C63.5982 37.6804 58.3262 42.9524 58.3262 49.4557C58.3262 55.9591 63.5982 61.231 70.1015 61.231Z" fill="#90E0EF"/>
<path fill-rule="evenodd" clip-rule="evenodd" d="M67.7466 11.7754H20.6453C18.7706 11.7754 16.9737 12.5196 15.6502 13.8455C14.3243 15.169 13.5801 16.966 13.5801 18.8406V47.1014C13.5801 48.976 14.3243 50.7729 15.6502 52.0965C16.9737 53.4224 18.7706 54.1666 20.6453 54.1666H56.7767C58.7173 59.6515 63.9549 63.5868 70.1016 63.5868C77.8992 63.5868 84.232 57.254 84.232 49.4564C84.232 43.3097 80.2967 38.072 74.8118 36.1315V18.8406C74.8118 16.966 74.0676 15.169 72.7417 13.8455C71.4181 12.5196 69.6212 11.7754 67.7466 11.7754ZM70.1016 40.0362C75.3016 40.0362 79.5219 44.2564 79.5219 49.4564C79.5219 54.6564 75.3016 58.8767 70.1016 58.8767C64.9016 58.8767 60.6814 54.6564 60.6814 49.4564C60.6814 44.2564 64.9016 40.0362 70.1016 40.0362ZM67.7466 44.7463V49.4564C67.7466 50.7564 68.8016 51.8115 70.1016 51.8115H74.8118C76.1118 51.8115 77.1668 50.7564 77.1668 49.4564C77.1668 48.1564 76.1118 47.1014 74.8118 47.1014H72.4567V44.7463C72.4567 43.4463 71.4016 42.3912 70.1016 42.3912C68.8016 42.3912 67.7466 43.4463 67.7466 44.7463ZM70.1016 25.9058H67.7466C63.8466 25.9058 60.6814 22.7406 60.6814 18.8406V16.4855H27.7105V18.8406C27.7105 22.7406 24.5453 25.9058 20.6453 25.9058H18.2902V40.0362H20.6453C24.5453 40.0362 27.7105 43.2014 27.7105 47.1014V49.4564H55.9712C55.9712 41.6588 62.304 35.326 70.1016 35.326V25.9058ZM18.2902 44.7463V47.1014C18.2902 47.7255 18.5375 48.326 18.9802 48.7664C19.4206 49.2091 20.0212 49.4564 20.6453 49.4564H23.0003V47.1014C23.0003 45.8014 21.9453 44.7463 20.6453 44.7463H18.2902ZM44.1959 21.1956C37.6959 21.1956 32.4206 26.471 32.4206 32.971C32.4206 39.471 37.6959 44.7463 44.1959 44.7463C50.6959 44.7463 55.9712 39.471 55.9712 32.971C55.9712 26.471 50.6959 21.1956 44.1959 21.1956ZM44.1959 25.9058C48.0959 25.9058 51.2611 29.071 51.2611 32.971C51.2611 36.871 48.0959 40.0362 44.1959 40.0362C40.2959 40.0362 37.1307 36.871 37.1307 32.971C37.1307 29.071 40.2959 25.9058 44.1959 25.9058ZM65.3915 16.4855V18.8406C65.3915 20.1406 66.4466 21.1956 67.7466 21.1956H70.1016V18.8406C70.1016 18.2165 69.8544 17.6159 69.4116 17.1756C68.9712 16.7328 68.3707 16.4855 67.7466 16.4855H65.3915ZM23.0003 16.4855H20.6453C20.0212 16.4855 19.4206 16.7328 18.9802 17.1756C18.5375 17.6159 18.2902 18.2165 18.2902 18.8406V21.1956H20.6453C21.9453 21.1956 23.0003 20.1406 23.0003 18.8406V16.4855Z" fill="#1990A7"/>
<path d="M12.3272 82.1553V69.2853H15.5312C17.8172 69.2853 19.5272 70.3113 19.5272 72.7773V73.1733C19.5272 75.6213 17.8172 76.7193 15.5312 76.7193H13.8212V82.1553H12.3272ZM13.8212 75.5313H15.6032C17.1692 75.5313 18.0152 74.7213 18.0152 73.1733V72.7773C18.0152 71.0853 17.1152 70.4913 15.6032 70.4913H13.8212V75.5313ZM23.4684 82.2993C21.8664 82.2993 20.7144 81.3993 20.7144 79.6353V79.4733C20.7144 77.4033 22.4424 76.6833 24.5844 76.6833H25.8804V75.7113C25.8804 74.4153 25.4304 73.8033 24.2244 73.8033C23.1444 73.8033 22.5684 74.3253 22.4784 75.3153H21.0564C21.1824 73.4073 22.5684 72.5973 24.2784 72.5973C26.0064 72.5973 27.3204 73.4253 27.3204 75.7113V82.1553H25.8804V81.1113C25.3404 81.8673 24.6744 82.2993 23.4684 82.2993ZM23.6844 81.1653C24.9804 81.1653 25.8804 80.5173 25.8804 79.2213V77.7273H24.6384C23.0904 77.7273 22.1364 78.1953 22.1364 79.4733V79.5993C22.1364 80.6073 22.5864 81.1653 23.6844 81.1653ZM30.2353 72.7413L32.5753 79.3473L34.7713 72.7413H36.2473L31.7833 85.3773H30.3253L31.8373 81.2013L28.7053 72.7413H30.2353ZM41.6124 82.1553V69.2853H43.1064V80.9313H48.0384V82.1553H41.6124ZM51.9274 82.2993C50.3254 82.2993 49.1734 81.3993 49.1734 79.6353V79.4733C49.1734 77.4033 50.9014 76.6833 53.0434 76.6833H54.3394V75.7113C54.3394 74.4153 53.8894 73.8033 52.6834 73.8033C51.6034 73.8033 51.0274 74.3253 50.9374 75.3153H49.5154C49.6414 73.4073 51.0274 72.5973 52.7374 72.5973C54.4654 72.5973 55.7794 73.4253 55.7794 75.7113V82.1553H54.3394V81.1113C53.7994 81.8673 53.1334 82.2993 51.9274 82.2993ZM52.1434 81.1653C53.4394 81.1653 54.3394 80.5173 54.3394 79.2213V77.7273H53.0974C51.5494 77.7273 50.5954 78.1953 50.5954 79.4733V79.5993C50.5954 80.6073 51.0454 81.1653 52.1434 81.1653ZM58.528 70.6893H59.986V72.7413H61.876V73.9653H59.986V79.8153C59.986 80.6613 60.328 81.0393 61.03 81.0393C61.408 81.0393 61.732 80.9853 61.948 80.8953V82.0833C61.732 82.1733 61.39 82.2453 60.886 82.2453C59.284 82.2453 58.528 81.3273 58.528 79.9233V73.9653H57.358V72.7413H58.528V70.6893ZM67.1059 82.2993C64.8379 82.2993 63.3259 80.8053 63.3259 78.2853V76.6113C63.3259 74.1453 64.8199 72.5973 67.0159 72.5973C68.9779 72.5973 70.5799 73.7493 70.5799 76.5213V77.7273H64.7839V78.2853C64.7839 80.1753 65.5759 81.1113 67.1239 81.1113C68.3299 81.1113 68.9959 80.5533 69.1579 79.5093H70.5619C70.3459 81.3993 69.0139 82.2993 67.1059 82.2993ZM67.0159 73.7853C65.7559 73.7853 64.7839 74.6673 64.7839 76.5753H69.1399V76.3413C69.1399 74.4873 68.2759 73.7853 67.0159 73.7853ZM72.5649 82.1553V72.7413H74.0049V74.2353C74.5269 73.2453 75.2289 72.6693 76.6689 72.6153V73.9653C75.0309 74.0553 74.0049 74.5413 74.0049 76.4673V82.1553H72.5649Z" fill="#2E313A"/>
</svg>
