<svg width="48" height="48" viewBox="0 0 48 48" fill="none" xmlns="http://www.w3.org/2000/svg">
<g clip-path="url(#clip0_940_38018)">
<path d="M47.066 21.0376C46.6463 19.8422 45.5071 18.984 44.173 18.984H44.143C43.2736 18.984 42.4903 19.3475 41.932 19.9284C41.3736 19.3475 40.5904 18.984 39.721 18.984H39.6947C38.9303 18.984 38.2295 19.2651 37.6936 19.726V19.4937C37.6749 19.2576 37.4837 19.074 37.2439 19.074H35.1903C34.9392 19.074 34.7369 19.2763 34.7369 19.5274V30.6723C34.7369 30.9234 34.9392 31.1258 35.1903 31.1258H37.2439C37.4725 31.1258 37.6636 30.9534 37.6899 30.7361V22.7352C37.6899 22.7053 37.6899 22.6828 37.6936 22.6565C37.7273 22.3005 37.9896 22.0045 38.4019 21.9707H38.7804C38.9527 21.9857 39.0989 22.0457 39.2113 22.1394C39.3912 22.2818 39.4886 22.4991 39.4886 22.739L39.4961 30.6986C39.4961 30.9497 39.6985 31.1558 39.9496 31.1558H42.0032C42.2468 31.1558 42.4416 30.9647 42.4529 30.7248V22.7315C42.4529 22.4692 42.5728 22.2293 42.7864 22.0907C42.8913 22.0232 43.0187 21.9782 43.1649 21.9633H43.5434C43.9893 22.0007 44.2554 22.338 44.2554 22.7315L44.2629 30.6836C44.2629 30.9347 44.4653 31.137 44.7163 31.137H46.7699C47.0098 31.137 47.2084 30.9497 47.2234 30.7136V21.9932C47.2121 21.5023 47.1484 21.2737 47.066 21.0376ZM33.1704 19.1039H31.9975V17.2002C31.9975 17.1965 31.9975 17.1965 31.9975 17.1927C31.9975 16.9679 31.8138 16.7805 31.5815 16.7805C31.5553 16.7805 31.529 16.7843 31.5028 16.788C30.2024 17.144 30.461 18.9465 28.0851 19.1002H27.8565C27.8228 19.1002 27.7891 19.1039 27.7553 19.1114C27.5567 19.1602 27.4031 19.34 27.4031 19.5574V21.611C27.4031 21.8621 27.6054 22.0644 27.8565 22.0644H29.0932L29.0894 30.766C29.0894 31.0134 29.2918 31.2157 29.5391 31.2157H31.5703C31.8176 31.2157 32.0199 31.0134 32.0199 30.766V22.0644H33.1704C33.4177 22.0644 33.6239 21.8583 33.6239 21.611V19.5574C33.6239 19.3063 33.4215 19.1039 33.1704 19.1039Z" fill="#00BAF2"/>
<path d="M25.788 19.1038H23.7344C23.487 19.1038 23.2809 19.3062 23.2809 19.5573V23.8032C23.2772 24.0655 23.0636 24.2753 22.8012 24.2753H21.9431C21.677 24.2753 21.4596 24.0617 21.4596 23.7957L21.4521 19.5573C21.4521 19.3062 21.2498 19.1038 20.9987 19.1038H18.9451C18.694 19.1038 18.4917 19.3062 18.4917 19.5573V24.2079C18.4917 25.9729 19.7508 27.2358 21.5196 27.2358C21.5196 27.2358 22.8462 27.2358 22.8874 27.2433C23.1273 27.2696 23.3109 27.4719 23.3109 27.7193C23.3109 27.9628 23.131 28.1652 22.8912 28.1952C22.8799 28.1952 22.8687 28.1989 22.8574 28.2027L19.8557 28.2139C19.6047 28.2139 19.4023 28.4163 19.4023 28.6674V30.7172C19.4023 30.9683 19.6047 31.1707 19.8557 31.1707H23.2097C24.9785 31.1707 26.2377 29.9115 26.2377 28.1465V19.5573C26.2414 19.3062 26.039 19.1038 25.788 19.1038ZM14.1109 19.1151H11.2628C11.0117 19.1151 10.8056 19.3062 10.8056 19.5386V20.3368C10.8056 20.3405 10.8056 20.348 10.8056 20.3517C10.8056 20.3592 10.8056 20.363 10.8056 20.3705V21.4647C10.8056 21.7121 11.023 21.9182 11.289 21.9182H14.0022C14.2158 21.9519 14.3844 22.1093 14.4107 22.3529V22.619C14.3882 22.8513 14.2196 23.0199 14.0134 23.0387H12.6719C10.8843 23.0387 9.61393 24.2266 9.61393 25.8905V28.2776C9.61393 29.934 10.7082 31.1107 12.4807 31.1107H16.202C16.869 31.1107 17.4124 30.6048 17.4124 29.9827V22.1955C17.4124 20.3068 16.438 19.1151 14.1109 19.1151ZM14.4369 27.6818V28.0041C14.4369 28.0303 14.4332 28.0565 14.4294 28.079C14.4257 28.1015 14.4182 28.124 14.4107 28.1465C14.347 28.3263 14.1671 28.4575 13.9535 28.4575H13.0991C12.833 28.4575 12.6156 28.2551 12.6156 28.0041V27.6181C12.6156 27.6143 12.6156 27.6068 12.6156 27.6031V26.5725V26.2503V26.2465C12.6156 25.9992 12.833 25.7968 13.0991 25.7968H13.9535C14.2196 25.7968 14.4369 25.9992 14.4369 26.2503V27.6818ZM6.10256 19.1001H1.61685C1.36951 19.1001 1.1709 19.3025 1.1709 19.546V21.5584C1.1709 21.5622 1.1709 21.5659 1.1709 21.5697C1.1709 21.5809 1.1709 21.5884 1.1709 21.5959V30.6985C1.1709 30.9458 1.35452 31.1482 1.58687 31.1519H3.67795C3.92903 31.1519 4.13139 30.9496 4.13139 30.6985L4.13889 27.5806H6.10256C7.74394 27.5806 8.89067 26.4414 8.89067 24.7887V21.8957C8.89067 20.2468 7.74394 19.1001 6.10256 19.1001ZM5.92268 22.8625V24.1292C5.92268 24.3953 5.70907 24.6126 5.443 24.6126H4.14263V22.0756H5.443C5.70907 22.0756 5.92268 22.2892 5.92268 22.5553V22.8625Z" fill="#20336B"/>
</g>
<defs>
<clipPath id="clip0_940_38018">
<rect width="46.0488" height="14.4352" fill="white" transform="translate(1.17078 16.7805)"/>
</clipPath>
</defs>
</svg>
