<svg width="400" height="192" viewBox="0 0 400 192" fill="none" xmlns="http://www.w3.org/2000/svg">
<path d="M251.202 103.89L254.06 104.746C253.87 105.553 253.584 106.219 253.155 106.741C252.726 107.264 252.25 107.692 251.63 107.929C251.011 108.214 250.249 108.357 249.296 108.357C248.152 108.357 247.247 108.214 246.485 107.882C245.77 107.549 245.151 106.979 244.627 106.124C244.103 105.316 243.817 104.223 243.817 102.94C243.817 101.229 244.293 99.8987 245.198 98.9484C246.104 97.998 247.438 97.5704 249.105 97.5704C250.439 97.5704 251.44 97.8555 252.202 98.3782C252.965 98.9009 253.536 99.7087 253.87 100.849L251.011 101.467C250.916 101.134 250.82 100.897 250.678 100.754C250.487 100.516 250.296 100.326 250.011 100.184C249.725 100.041 249.439 99.9938 249.153 99.9938C248.438 99.9938 247.867 100.279 247.485 100.897C247.199 101.324 247.057 102.037 247.057 102.94C247.057 104.08 247.247 104.888 247.581 105.316C247.914 105.743 248.438 105.981 249.058 105.981C249.677 105.981 250.153 105.791 250.439 105.458C250.82 105.031 251.059 104.555 251.202 103.89Z" fill="#15646B"/>
<path d="M255.207 102.939C255.207 101.228 255.683 99.8974 256.636 98.947C257.589 97.9967 258.923 97.5215 260.639 97.5215C262.401 97.5215 263.736 97.9967 264.688 98.8995C265.641 99.8499 266.118 101.133 266.118 102.843C266.118 104.079 265.927 105.077 265.498 105.837C265.07 106.597 264.498 107.215 263.688 107.643C262.926 108.07 261.925 108.308 260.782 108.308C259.59 108.308 258.637 108.118 257.828 107.738C257.065 107.358 256.446 106.787 255.922 105.932C255.398 105.077 255.207 104.174 255.207 102.939ZM258.447 102.939C258.447 103.984 258.637 104.744 259.019 105.219C259.4 105.695 259.924 105.932 260.639 105.932C261.353 105.932 261.877 105.695 262.259 105.267C262.64 104.792 262.83 103.984 262.83 102.843C262.83 101.846 262.64 101.133 262.211 100.705C261.83 100.23 261.258 100.04 260.591 100.04C259.924 100.04 259.4 100.278 259.019 100.753C258.637 101.133 258.447 101.893 258.447 102.939Z" fill="#15646B"/>
<path d="M267.787 97.7119H272.027L273.647 104.079L275.267 97.7119H279.507V108.166H276.839V100.183L274.791 108.166H272.408L270.36 100.183V108.166H267.691V97.7119H267.787Z" fill="#15646B"/>
<path d="M281.598 97.7119H286.982C288.173 97.7119 289.03 97.997 289.602 98.5672C290.174 99.1374 290.46 99.8977 290.46 100.943C290.46 101.989 290.126 102.844 289.507 103.414C288.887 104.032 287.887 104.317 286.6 104.317H284.838V108.213H281.598V97.7119ZM284.838 102.179H285.648C286.267 102.179 286.696 102.084 286.982 101.846C287.22 101.608 287.363 101.371 287.363 101.038C287.363 100.706 287.267 100.42 287.029 100.183C286.791 99.9452 286.41 99.8502 285.79 99.8502H284.885V102.179H284.838Z" fill="#15646B"/>
<path d="M292.18 97.7115H295.42V105.599H300.47V108.165H292.18V97.7115Z" fill="#15646B"/>
<path d="M302.086 97.7119H305.326V108.166H302.086V97.7119Z" fill="#15646B"/>
<path d="M314.094 106.407H310.425L309.901 108.118H306.613L310.568 97.6641H314.094L318.048 108.118H314.665L314.094 106.407ZM313.427 104.174L312.283 100.42L311.14 104.174H313.427Z" fill="#15646B"/>
<path d="M319.051 97.7119H322.052L326.007 103.509V97.7119H329.056V108.166H326.007L322.1 102.416V108.166H319.051V97.7119Z" fill="#15646B"/>
<path d="M330.484 97.7115H340.346V100.277H337.059V108.165H333.819V100.277H330.532V97.7115H330.484Z" fill="#15646B"/>
<path d="M212.229 113.63L221.615 110.684L218.566 103.936C216.326 106.74 214.087 110.351 212.229 113.63ZM209.037 82.7911L190.646 41.9258L56 49.5286L93.3063 151.027L165.108 128.456C160.534 121.898 158.866 114.105 164.155 110.304C170.063 106.027 178.972 110.969 184.642 117.954C190.121 108.831 205.511 87.5904 209.037 82.7911Z" fill="#15646B"/>
<path d="M186.45 71.4577C192.072 71.4577 196.646 67.1811 196.646 61.8591C196.646 56.5371 192.072 52.2605 186.45 52.2605C180.828 52.2605 176.254 56.5371 176.254 61.8591C176.254 67.1336 180.828 71.4577 186.45 71.4577ZM178.112 75.5917H194.788V119.07H178.112V75.5917Z" fill="#FDFDFD"/>
<path d="M169.868 88.278C170.011 88.3255 170.106 88.278 170.106 88.1355V77.1113C170.106 76.9688 170.011 76.8262 169.868 76.7312C169.868 76.7312 167.676 75.3057 161.006 74.9255C160.672 74.7354 154.812 74.6879 153.24 74.9255C128.94 76.8737 128.035 94.4078 128.035 95.1681V99.4447C128.035 99.9674 128.035 117.882 153.24 119.45C155.717 119.64 160.529 119.45 161.006 119.45C166.818 119.45 170.821 117.692 170.821 117.692C170.964 117.644 171.059 117.501 171.059 117.359V107.048C171.059 106.905 170.964 106.857 170.868 106.952C170.868 106.952 169.058 108.378 161.149 109.186C158.909 109.423 157.813 109.328 157.003 109.186C145.759 107.285 145.235 99.1121 145.235 99.1121C145.235 98.9695 145.187 98.7319 145.187 98.6369V95.5007C145.187 95.3582 145.187 95.1206 145.235 95.0255C145.235 95.0255 145.997 86.2348 157.003 85.2844H161.149C165.961 85.9021 169.868 88.278 169.868 88.278Z" fill="#FDFDFD"/>
<path d="M81.7234 118.928C81.7234 119.071 81.8187 119.166 81.9616 119.166H98.2087C98.3516 119.166 98.4469 119.071 98.4469 118.928V106.289C98.4469 106.146 98.5422 106.051 98.6851 106.051C98.6851 106.051 124.652 107.904 124.652 90.5602C124.652 76.8276 108.357 75.3546 103.021 75.5922C102.926 75.5922 81.9616 75.5922 81.9616 75.5922C81.8187 75.5922 81.7234 75.6872 81.7234 75.8297V118.928ZM98.161 96.4049V85.0482H102.163C102.163 85.0482 107.928 85.2858 108.405 89.2297C108.5 89.5148 108.5 91.4631 108.405 91.5581C107.642 96.1673 102.64 96.4049 102.64 96.4049H98.161Z" fill="#FDFDFD"/>
<path d="M186.932 140.05C188.266 140.05 189.314 140.05 191.029 139.29C196.937 136.201 216.901 87.5906 237.96 72.6225C238.103 72.5275 238.246 72.3849 238.341 72.2424C238.484 72.0523 238.484 71.8622 238.484 71.8622C238.484 71.8622 238.484 70.8644 235.387 70.8644C216.662 70.3417 197.176 109.544 186.932 125.035C186.789 125.225 186.122 125.035 186.122 125.035C186.122 125.035 179.261 116.957 173.305 113.868C173.162 113.82 172.495 113.583 171.781 113.63C171.304 113.63 168.541 114.201 167.254 115.531C165.73 117.147 165.777 118.05 165.777 119.998C165.777 120.14 165.873 120.806 166.063 121.138C167.54 123.704 174.163 132.828 179.642 137.864C180.452 138.482 181.738 140.05 186.932 140.05Z" fill="#15646B"/>
<path d="M243.479 57.9409H259.06C262.156 57.9409 264.634 58.3686 266.492 59.1764C268.398 60.0317 269.97 61.2196 271.161 62.7402C272.4 64.3083 273.305 66.114 273.83 68.1572C274.401 70.2005 274.687 72.3863 274.687 74.7147C274.687 78.326 274.258 81.1296 273.448 83.1253C272.638 85.1211 271.495 86.7842 270.018 88.1622C268.541 89.4927 266.969 90.3956 265.301 90.8707C263.014 91.4885 260.918 91.7736 259.06 91.7736H243.479V57.9409ZM253.961 65.5913V84.0757H256.534C258.726 84.0757 260.298 83.8381 261.204 83.3629C262.109 82.8878 262.871 82.0324 263.395 80.8445C263.919 79.6565 264.205 77.6608 264.205 74.9523C264.205 71.3409 263.633 68.9175 262.442 67.587C261.251 66.2565 259.345 65.5913 256.582 65.5913H253.961Z" fill="#15646B"/>
<path d="M277.597 80.605L287.603 79.9873C287.841 81.6029 288.27 82.8383 288.937 83.6937C290.033 85.0717 291.557 85.7369 293.558 85.7369C295.035 85.7369 296.226 85.4043 297.036 84.6915C297.846 83.9788 298.275 83.171 298.275 82.2681C298.275 81.4128 297.894 80.605 297.132 79.8922C296.369 79.1795 294.559 78.5617 291.748 77.944C287.126 76.8986 283.886 75.5206 281.885 73.81C279.884 72.0993 278.931 69.9135 278.931 67.2525C278.931 65.4944 279.455 63.8787 280.456 62.3107C281.456 60.7426 282.981 59.5546 285.03 58.6518C287.079 57.749 289.842 57.3213 293.368 57.3213C297.703 57.3213 301.039 58.1291 303.278 59.7447C305.565 61.3603 306.899 63.9263 307.328 67.4426L297.418 68.0128C297.132 66.4922 296.608 65.3993 295.75 64.6866C294.892 63.9738 293.749 63.6412 292.272 63.6412C291.033 63.6412 290.128 63.8787 289.508 64.4014C288.889 64.9241 288.603 65.5419 288.603 66.3022C288.603 66.8248 288.841 67.3475 289.366 67.7752C289.842 68.2029 291.033 68.6305 292.891 69.0107C297.465 70.0085 300.753 71.0064 302.754 72.0043C304.755 73.0022 306.184 74.2851 307.09 75.7582C307.995 77.2312 308.424 78.9419 308.424 80.7951C308.424 82.9809 307.804 84.9766 306.613 86.7823C305.422 88.6355 303.707 90.0135 301.563 90.9639C299.419 91.9142 296.655 92.3894 293.368 92.3894C287.603 92.3894 283.6 91.2965 281.361 89.0632C279.169 86.8298 277.931 84.0263 277.597 80.605Z" fill="#15646B"/>
<path d="M311.086 80.605L321.091 79.9873C321.33 81.6029 321.758 82.8383 322.426 83.6937C323.521 85.0717 325.046 85.7369 327.047 85.7369C328.524 85.7369 329.715 85.4043 330.525 84.6915C331.335 83.9788 331.764 83.171 331.764 82.2681C331.764 81.4128 331.383 80.605 330.621 79.8922C329.858 79.1795 328.048 78.5617 325.237 77.944C320.615 76.8986 317.375 75.5206 315.374 73.81C313.421 72.0993 312.42 69.9135 312.42 67.2525C312.42 65.4944 312.944 63.8787 313.945 62.3107C314.945 60.7426 316.47 59.5546 318.519 58.6518C320.567 57.749 323.331 57.3213 326.857 57.3213C331.192 57.3213 334.527 58.1291 336.767 59.7447C339.054 61.3603 340.388 63.9263 340.817 67.4426L330.906 68.0128C330.62 66.4922 330.096 65.3993 329.239 64.6866C328.381 63.9738 327.238 63.6412 325.761 63.6412C324.522 63.6412 323.617 63.8787 322.997 64.4014C322.378 64.9241 322.092 65.5419 322.092 66.3022C322.092 66.8248 322.33 67.3475 322.854 67.7752C323.331 68.2029 324.522 68.6305 326.38 69.0107C330.954 70.0085 334.242 71.0064 336.243 72.0043C338.244 73.0022 339.673 74.2851 340.578 75.7582C341.484 77.2312 341.912 78.9419 341.912 80.7951C341.912 82.9809 341.293 84.9766 340.102 86.7823C338.911 88.6355 337.196 90.0135 335.052 90.9639C332.907 91.9142 330.144 92.3894 326.857 92.3894C321.091 92.3894 317.089 91.2965 314.85 89.0632C312.611 86.8298 311.372 84.0263 311.086 80.605Z" fill="#15646B"/>
</svg>
