<svg width="76" height="29" viewBox="0 0 76 29" fill="none" xmlns="http://www.w3.org/2000/svg">
<g id="PCI LOGO">
<g id="Page-1">
<g id="Group">
<g id="Group_2">
<path id="Vector" d="M51.8868 16.4703L52.6467 16.6977C52.596 16.9124 52.5201 17.0892 52.4061 17.2282C52.2921 17.3671 52.1655 17.4808 52.0008 17.544C51.8362 17.6197 51.6335 17.6576 51.3803 17.6576C51.0763 17.6576 50.8357 17.6197 50.633 17.5313C50.4431 17.4429 50.2784 17.2913 50.1391 17.064C49.9998 16.8493 49.9238 16.5588 49.9238 16.2177C49.9238 15.763 50.0505 15.4094 50.2911 15.1568C50.5317 14.9041 50.8863 14.7905 51.3296 14.7905C51.6842 14.7905 51.9502 14.8663 52.1528 15.0052C52.3554 15.1441 52.5074 15.3588 52.596 15.662L51.8362 15.8262C51.8108 15.7378 51.7855 15.6746 51.7475 15.6367C51.6969 15.5736 51.6462 15.523 51.5702 15.4852C51.4942 15.4473 51.4182 15.4346 51.3423 15.4346C51.1523 15.4346 51.0003 15.5104 50.899 15.6746C50.823 15.7883 50.785 15.9778 50.785 16.2177C50.785 16.5209 50.8357 16.7356 50.9243 16.8493C51.013 16.9629 51.1523 17.0261 51.3169 17.0261C51.4816 17.0261 51.6082 16.9756 51.6842 16.8872C51.7855 16.7735 51.8488 16.6472 51.8868 16.4703Z" fill="#ABABAB"/>
<path id="Vector_2" d="M52.9512 16.2177C52.9512 15.763 53.0778 15.4094 53.3311 15.1568C53.5844 14.9041 53.939 14.7778 54.3949 14.7778C54.8635 14.7778 55.2181 14.9041 55.4714 15.1441C55.7247 15.3967 55.8514 15.7378 55.8514 16.1925C55.8514 16.5209 55.8007 16.7861 55.6867 16.9882C55.5727 17.1903 55.4208 17.3545 55.2055 17.4682C55.0028 17.5818 54.7369 17.645 54.4329 17.645C54.1163 17.645 53.863 17.5945 53.6477 17.4934C53.4451 17.3924 53.2805 17.2408 53.1411 17.0135C53.0018 16.7861 52.9512 16.5461 52.9512 16.2177ZM53.8124 16.2177C53.8124 16.4956 53.863 16.6977 53.9643 16.824C54.0657 16.9503 54.205 17.0135 54.3949 17.0135C54.5849 17.0135 54.7242 16.9503 54.8255 16.8366C54.9268 16.7103 54.9775 16.4956 54.9775 16.1925C54.9775 15.9272 54.9268 15.7378 54.8129 15.6241C54.7115 15.4978 54.5596 15.4473 54.3823 15.4473C54.205 15.4473 54.0657 15.5104 53.9643 15.6367C53.863 15.7378 53.8124 15.9399 53.8124 16.2177Z" fill="#ABABAB"/>
<path id="Vector_3" d="M56.2949 14.8284H57.422L57.8526 16.5209L58.2832 14.8284H59.4103V17.6071H58.7011V15.4852L58.1566 17.6071H57.5233L56.9787 15.4852V17.6071H56.2695V14.8284H56.2949Z" fill="#ABABAB"/>
<path id="Vector_4" d="M59.9669 14.8283H61.398C61.7146 14.8283 61.9426 14.9041 62.0946 15.0557C62.2465 15.2073 62.3225 15.4093 62.3225 15.6872C62.3225 15.9651 62.2339 16.1925 62.0692 16.344C61.9046 16.5082 61.6386 16.584 61.2967 16.584H60.8281V17.6197H59.9669V14.8283ZM60.8281 16.0156H61.0434C61.208 16.0156 61.322 15.9904 61.398 15.9272C61.4613 15.8641 61.4993 15.8009 61.4993 15.7125C61.4993 15.6241 61.474 15.5483 61.4107 15.4851C61.3474 15.422 61.246 15.3967 61.0814 15.3967H60.8408V16.0156H60.8281Z" fill="#ABABAB"/>
<path id="Vector_5" d="M62.7793 14.8284H63.6405V16.9251H64.9829V17.6071H62.7793V14.8284Z" fill="#ABABAB"/>
<path id="Vector_6" d="M65.4121 14.8284H66.2733V17.6071H65.4121V14.8284Z" fill="#ABABAB"/>
<path id="Vector_7" d="M68.6036 17.1397H67.6284L67.4891 17.5944H66.6152L67.6664 14.8157H68.6036L69.6547 17.5944H68.7555L68.6036 17.1397ZM68.4263 16.5461L68.1223 15.5483L67.8184 16.5461H68.4263Z" fill="#ABABAB"/>
<path id="Vector_8" d="M69.9219 14.8284H70.7197L71.7709 16.3693V14.8284H72.5814V17.6071H71.7709L70.7324 16.0788V17.6071H69.9219V14.8284Z" fill="#ABABAB"/>
<path id="Vector_9" d="M72.9608 14.8283H75.5824V15.5104H74.7085V17.6071H73.8473V15.5104H72.9735V14.8283H72.9608Z" fill="#ABABAB"/>
</g>
<g id="Rectangle-3-_x2B_-Letters">
<path id="Rectangle-3" d="M41.5271 19.0597L44.022 18.2766L43.2115 16.483C42.6162 17.2282 42.021 18.1882 41.5271 19.0597ZM40.6786 10.8624L35.79 0L0 2.02091L9.91635 29L29.0018 23.0004C27.786 21.2574 27.3428 19.186 28.7485 18.1755C30.3189 17.0388 32.6872 18.3524 34.1943 20.2091C35.6507 17.784 39.7414 12.1381 40.6786 10.8624Z" fill="#ABABAB"/>
<g id="Letters">
<path id="Oval-1" d="M34.6748 7.84992C36.1692 7.84992 37.385 6.71316 37.385 5.29853C37.385 3.88389 36.1692 2.74713 34.6748 2.74713C33.1804 2.74713 31.9646 3.88389 31.9646 5.29853C31.9646 6.70053 33.1804 7.84992 34.6748 7.84992ZM32.4585 8.94879H36.8911V20.5058H32.4585V8.94879Z" fill="#FDFDFD"/>
<path id="Path-3" d="M30.2677 12.3212C30.3057 12.3338 30.331 12.3212 30.331 12.2833V9.35296C30.331 9.31507 30.3057 9.27717 30.2677 9.25191C30.2677 9.25191 29.6851 8.87299 27.9121 8.77195C27.8234 8.72142 26.2657 8.70879 25.8477 8.77195C19.3888 9.2898 19.1482 13.9505 19.1482 14.1526V15.2894C19.1482 15.4283 19.1482 20.1901 25.8477 20.6069C26.5063 20.6574 27.7854 20.6069 27.9121 20.6069C29.4571 20.6069 30.521 20.1395 30.521 20.1395C30.559 20.1269 30.5843 20.089 30.5843 20.0511V17.3103C30.5843 17.2724 30.559 17.2598 30.5336 17.285C30.5336 17.285 30.0524 17.6639 27.9501 17.8787C27.3548 17.9418 27.0635 17.9165 26.8482 17.8787C23.8594 17.3734 23.7201 15.201 23.7201 15.201C23.7201 15.1631 23.7074 15.0999 23.7074 15.0746V14.241C23.7074 14.2031 23.7074 14.14 23.7201 14.1147C23.7201 14.1147 23.9227 11.778 26.8482 11.5254H27.9501C29.2292 11.6896 30.2677 12.3212 30.2677 12.3212Z" fill="#FDFDFD"/>
<path id="Path-1" d="M6.83765 20.4679C6.83765 20.5058 6.86298 20.5311 6.90097 20.5311H11.2196C11.2576 20.5311 11.2829 20.5058 11.2829 20.4679V17.1082C11.2829 17.0703 11.3082 17.045 11.3462 17.045C11.3462 17.045 18.2484 17.5376 18.2484 12.9274C18.2484 9.27718 13.9171 8.88563 12.4987 8.94879C12.4734 8.94879 6.90097 8.94879 6.90097 8.94879C6.86298 8.94879 6.83765 8.97405 6.83765 9.01194V20.4679ZM11.2069 14.481V11.4623H12.2707C12.2707 11.4623 13.8032 11.5254 13.9298 12.5738C13.9551 12.6496 13.9551 13.1674 13.9298 13.1927C13.7272 14.4179 12.3974 14.481 12.3974 14.481H11.2069Z" fill="#FDFDFD"/>
</g>
<path id="Path-7" d="M34.8028 26.0823C35.1574 26.0823 35.436 26.0823 35.8919 25.8802C37.4624 25.0592 42.7688 12.138 48.3665 8.15938C48.4045 8.13412 48.4425 8.09623 48.4678 8.05834C48.5058 8.00782 48.5058 7.95729 48.5058 7.95729C48.5058 7.95729 48.5058 7.69205 47.6826 7.69205C42.7055 7.55311 37.5257 17.9734 34.8028 22.091C34.7648 22.1415 34.5875 22.091 34.5875 22.091C34.5875 22.091 32.7638 19.9438 31.1807 19.1228C31.1427 19.1102 30.9654 19.047 30.7755 19.0596C30.6488 19.0596 29.9143 19.2112 29.5723 19.5649C29.1671 19.9943 29.1797 20.2343 29.1797 20.7522C29.1797 20.79 29.2051 20.9669 29.2557 21.0553C29.6483 21.7373 31.4087 24.1624 32.8651 25.5013C33.0804 25.6655 33.4224 26.0823 34.8028 26.0823Z" fill="#ABABAB"/>
</g>
<g id="Group_3">
<path id="Vector_10" d="M49.834 4.25647H53.9753C54.7985 4.25647 55.457 4.37015 55.951 4.58487C56.4575 4.81222 56.8755 5.12799 57.1921 5.53217C57.5214 5.94898 57.762 6.42894 57.9013 6.97206C58.0533 7.51518 58.1293 8.09619 58.1293 8.71509C58.1293 9.67502 58.0153 10.4202 57.8 10.9507C57.5847 11.4812 57.2807 11.9233 56.8881 12.2896C56.4955 12.6432 56.0776 12.8832 55.6344 13.0095C55.0265 13.1737 54.4692 13.2495 53.9753 13.2495H49.834V4.25647ZM52.6202 6.29001V11.2033H53.3041C53.8866 11.2033 54.3046 11.1402 54.5452 11.0139C54.7858 10.8876 54.9885 10.6602 55.1278 10.3445C55.2671 10.0287 55.3431 9.49819 55.3431 8.77825C55.3431 7.81832 55.1911 7.17415 54.8745 6.82049C54.5579 6.46683 54.0513 6.29001 53.3167 6.29001H52.6202Z" fill="#ABABAB"/>
<path id="Vector_11" d="M58.9023 10.2813L61.5619 10.1171C61.6252 10.5466 61.7392 10.875 61.9165 11.1023C62.2078 11.4686 62.6131 11.6454 63.145 11.6454C63.5376 11.6454 63.8542 11.557 64.0695 11.3675C64.2848 11.1781 64.3988 10.9634 64.3988 10.7234C64.3988 10.496 64.2974 10.2813 64.0948 10.0919C63.8922 9.90239 63.4109 9.73819 62.6637 9.57399C61.4353 9.29612 60.5741 8.92983 60.0422 8.47512C59.5102 8.02042 59.257 7.43941 59.257 6.73209C59.257 6.26476 59.3963 5.83532 59.6622 5.41851C59.9282 5.00169 60.3334 4.68593 60.878 4.44594C61.4226 4.20596 62.1571 4.09229 63.0943 4.09229C64.2468 4.09229 65.1333 4.30701 65.7285 4.73645C66.3364 5.16589 66.691 5.84795 66.805 6.78262L64.1708 6.93419C64.0948 6.53 63.9555 6.2395 63.7275 6.05004C63.4996 5.86058 63.1956 5.77216 62.803 5.77216C62.4738 5.77216 62.2331 5.83532 62.0685 5.97425C61.9038 6.11319 61.8279 6.27739 61.8279 6.47948C61.8279 6.61842 61.8912 6.75736 62.0305 6.87103C62.1571 6.98471 62.4737 7.09838 62.9677 7.19943C64.1835 7.46467 65.0573 7.72992 65.5892 7.99516C66.1211 8.26041 66.5011 8.60143 66.7417 8.99298C66.9823 9.38453 67.0963 9.83924 67.0963 10.3318C67.0963 10.9128 66.9317 11.4433 66.6151 11.9233C66.2984 12.4159 65.8425 12.7822 65.2726 13.0348C64.7027 13.2874 63.9682 13.4137 63.0943 13.4137C61.5619 13.4137 60.4981 13.1232 59.9028 12.5296C59.3203 11.9359 58.991 11.1907 58.9023 10.2813Z" fill="#ABABAB"/>
</g>
<g id="Group_4">
<path id="Vector_12" d="M67.8047 10.2813L70.4642 10.1171C70.5276 10.5466 70.6415 10.875 70.8188 11.1023C71.1101 11.4686 71.5154 11.6454 72.0473 11.6454C72.4399 11.6454 72.7565 11.557 72.9718 11.3675C73.1871 11.1781 73.3011 10.9634 73.3011 10.7234C73.3011 10.496 73.1998 10.2813 72.9972 10.0919C72.7945 9.90239 72.3133 9.73819 71.5661 9.57399C70.3376 9.29612 69.4764 8.92983 68.9445 8.47512C68.4253 8.02042 68.1593 7.43941 68.1593 6.73209C68.1593 6.26476 68.2986 5.83532 68.5646 5.41851C68.8305 5.00169 69.2358 4.68593 69.7804 4.44594C70.3249 4.20596 71.0595 4.09229 71.9967 4.09229C73.1491 4.09229 74.0356 4.30701 74.6309 4.73645C75.2388 5.16589 75.5934 5.84795 75.7074 6.78262L73.0731 6.93419C72.9972 6.53 72.8578 6.2395 72.6299 6.05004C72.4019 5.86058 72.098 5.77216 71.7054 5.77216C71.3761 5.77216 71.1355 5.83532 70.9708 5.97425C70.8062 6.11319 70.7302 6.27739 70.7302 6.47948C70.7302 6.61842 70.7935 6.75736 70.9328 6.87103C71.0595 6.98471 71.3761 7.09838 71.87 7.19943C73.0858 7.46467 73.9597 7.72992 74.4916 7.99516C75.0235 8.26041 75.4034 8.60143 75.644 8.99298C75.8847 9.38453 75.9987 9.83924 75.9987 10.3318C75.9987 10.9128 75.834 11.4433 75.5174 11.9233C75.2008 12.4159 74.7449 12.7822 74.175 13.0348C73.6051 13.2874 72.8705 13.4137 71.9967 13.4137C70.4642 13.4137 69.4004 13.1232 68.8052 12.5296C68.2099 11.9359 67.8807 11.1907 67.8047 10.2813Z" fill="#ABABAB"/>
</g>
</g>
</g>
</g>
</svg>
