<svg width="48" height="48" viewBox="0 0 48 48" fill="none" xmlns="http://www.w3.org/2000/svg">
<g clip-path="url(#clip0_940_37992)">
<path d="M29.5156 0.648411C24.8976 -0.44198 20.0599 -0.138519 15.6143 1.52042C11.1687 3.17936 7.31483 6.11928 4.54003 9.96842C1.76523 13.8176 0.194107 18.4031 0.0253202 23.1451C-0.143466 27.8872 1.09767 32.5728 3.59178 36.6094C6.08589 40.6461 9.72098 43.8526 14.0374 45.8234C18.3538 47.7942 23.1576 48.4409 27.8415 47.6816C32.5254 46.9223 36.879 44.7911 40.3518 41.5576C43.8245 38.3241 46.2604 34.1335 47.3516 29.5156C48.0762 26.449 48.1896 23.2697 47.6853 20.1593C47.1811 17.0489 46.0691 14.0683 44.4129 11.3876C42.7566 8.70701 40.5885 6.3789 38.0324 4.53625C35.4764 2.6936 32.5823 1.3725 29.5156 0.648411Z" fill="#5F259E"/>
<path d="M34.8906 17.7383C34.8776 17.2821 34.6893 16.8486 34.3648 16.5277C34.0403 16.2069 33.6046 16.0235 33.1484 16.0156H29.9296L22.5585 7.55075C22.2137 7.16333 21.7659 6.88197 21.2672 6.73949C20.7685 6.597 20.2396 6.59929 19.7421 6.74606L17.1874 7.55075C17.0967 7.58153 17.0147 7.63383 16.9485 7.70318C16.8823 7.77254 16.8339 7.85688 16.8075 7.949C16.781 8.04113 16.7772 8.13829 16.7964 8.2322C16.8157 8.32611 16.8573 8.41396 16.9179 8.48825L24.9687 16.1289H12.7734C12.6848 16.125 12.5964 16.1396 12.5138 16.1718C12.4312 16.2041 12.3562 16.2532 12.2937 16.3161C12.2312 16.379 12.1825 16.4542 12.1507 16.537C12.119 16.6198 12.1049 16.7083 12.1093 16.7968V18.1367C12.1173 18.5962 12.3035 19.0347 12.6285 19.3597C12.9535 19.6847 13.392 19.8708 13.8515 19.8789H15.7304V26.3164C15.7304 31.1406 18.2773 33.957 22.5663 33.957C23.8508 33.9964 25.1293 33.7676 26.3203 33.2851V37.582C26.3166 37.8646 26.3695 38.1452 26.476 38.407C26.5825 38.6689 26.7403 38.9067 26.9402 39.1066C27.1401 39.3065 27.3779 39.4643 27.6398 39.5708C27.9016 39.6772 28.1821 39.7302 28.4648 39.7265H30.3398C30.5484 39.712 30.7447 39.6225 30.8926 39.4746C31.0405 39.3268 31.1299 39.1305 31.1445 38.9218V19.75H34.2187C34.3083 19.7551 34.3979 19.7412 34.4817 19.7092C34.5655 19.6773 34.6417 19.6279 34.7051 19.5645C34.7685 19.5011 34.8179 19.4249 34.8498 19.3411C34.8818 19.2573 34.8957 19.1677 34.8906 19.0781V17.7383ZM26.2968 29.2656C25.4513 29.6354 24.5359 29.818 23.6132 29.8008C21.4687 29.8008 20.3984 28.7304 20.3984 26.3164V19.8828H26.2968V29.2578V29.2656Z" fill="white"/>
</g>
<defs>
<clipPath id="clip0_940_37992">
<rect width="48" height="48" fill="white"/>
</clipPath>
</defs>
</svg>
