<svg width="15" height="16" viewBox="0 0 15 16" fill="none" xmlns="http://www.w3.org/2000/svg">
<g id="Phone_light">
<path id="Vector 189" d="M10.4828 8.98533L12.0505 10.5531C12.2614 10.7639 12.2614 11.1057 12.0505 11.3165C10.9108 12.4562 9.10639 12.5845 7.8169 11.6174L6.88424 10.9179C5.85204 10.1437 4.93512 9.22679 4.16097 8.19459L3.46147 7.26192C2.49435 5.97244 2.62259 4.16804 3.76234 3.02829C3.97316 2.81747 4.31495 2.81747 4.52577 3.02829L6.0935 4.59601C6.32469 4.82721 6.32469 5.20205 6.0935 5.43325L5.48896 6.03778C5.39289 6.13386 5.36907 6.28063 5.42983 6.40215C6.13235 7.80719 7.27163 8.94648 8.67667 9.649C8.7982 9.70976 8.94497 9.68594 9.04105 9.58987L9.64558 8.98533C9.87677 8.75414 10.2516 8.75414 10.4828 8.98533Z" stroke="#111111" stroke-width="0.592014"/>
</g>
</svg>
