<svg width="55" height="25" viewBox="0 0 55 25" fill="none" xmlns="http://www.w3.org/2000/svg">
<g clip-path="url(#clip0_944_39068)">
<path fill-rule="evenodd" clip-rule="evenodd" d="M39.3407 8.94547H42.2678V13.596L44.8 8.94547H47.4864L42.0702 18.3475C42.0702 18.3475 41.5675 19.1361 40.9439 19.5533C40.4316 19.8964 39.8015 19.8809 39.609 19.8948C38.5392 19.8855 37.2487 19.8826 37.2487 19.8826L37.8712 17.6414L38.8785 17.6396C38.8785 17.6396 39.3395 17.5926 39.5176 17.3653C39.6873 17.1486 39.774 16.9319 39.774 16.6141C39.774 16.1378 39.3407 8.94525 39.3407 8.94525V8.94547ZM8.92478 9.87426C8.51738 10.8181 7.25416 10.7108 7.25416 10.7108L5.78337 10.7039L6.32028 8.70507C6.32028 8.70507 7.63606 8.70995 8.28141 8.70995C8.97223 8.70995 9.18802 9.26482 8.925 9.87403L8.92478 9.87426ZM12.2676 8.51213C12.5179 6.52882 10.7726 6.02805 8.88552 6.02805H3.92669L0.999512 16.6964H4.15046L5.13424 13.0742L6.90177 13.0886C6.90177 13.0886 7.63118 13.0463 7.64559 13.7313C7.66089 14.4621 7.10402 15.8038 7.13995 16.6964H10.3769L10.3698 16.4123C10.3698 16.4123 10.1008 16.3409 10.1308 15.963C10.1432 15.8058 10.3168 15.3081 10.5442 14.637C10.6812 14.3412 10.8879 13.6393 10.8688 13.0678C10.8451 12.3543 10.3973 12.0232 9.75177 11.7917C11.7641 11.3198 12.2671 8.51235 12.2673 8.51235L12.2676 8.51213ZM12.9825 8.94547H15.8565L14.6729 13.4991C14.6729 13.4991 14.3777 14.5146 15.3276 14.5929C16.078 14.655 16.6365 13.7595 16.8194 13.1529C17.0598 12.3563 17.9939 8.94525 17.9939 8.94525H20.9548L18.7018 16.6962H16.1166L16.4342 15.5889C16.4342 15.5889 15.1153 17.1972 13.1558 17.0042C11.414 16.8333 11.2638 15.5698 11.5656 13.9937C11.7138 13.2199 12.9825 8.94547 12.9825 8.94547ZM27.7431 9.89865C27.333 11.0426 26.2031 10.9077 26.2031 10.9077L24.6604 10.9082L25.2694 8.64164C25.2694 8.64164 26.2459 8.64674 26.8908 8.64674C27.6803 8.64674 27.9668 9.27392 27.7431 9.89843V9.89865ZM30.9829 8.83946C31.2335 6.85593 29.7217 6.02783 27.8344 6.02783H22.8758L19.9489 16.6962H23.0998L23.9858 13.4071L26.4963 13.4224C26.4963 13.4224 30.3839 13.587 30.9832 8.83946H30.9829ZM33.632 15.1172C33.1397 15.242 32.5427 15.3099 32.4242 14.8626C32.0991 13.6368 34.9689 13.278 34.9689 13.278C34.9884 14.3949 34.0097 15.0209 33.6318 15.1172H33.632ZM37.9732 12.8737C38.3518 11.5843 38.8304 10.3635 38.4451 9.68686C37.8552 8.65118 36.7889 8.56025 35.229 8.56025C33.5056 8.56025 31.3779 8.88759 30.6844 11.1794H33.5535C33.5535 11.1794 33.815 10.3162 34.8919 10.3706C35.8451 10.4187 35.793 11.0745 35.4417 11.4371C34.8256 12.0725 33.1242 11.7201 31.2398 12.3739C29.5933 12.9451 29.0171 15.1101 29.3749 15.9741C29.7215 16.812 30.3671 16.9186 31.238 17.0042C32.6367 17.1417 33.7092 16.3618 34.2084 15.904C34.2084 16.4123 34.2217 16.6962 34.2217 16.6962H37.2409L37.2336 16.4121C37.2336 16.4121 36.9646 16.3407 36.9945 15.9628C37.0163 15.686 37.5379 14.3545 37.973 12.8737H37.9732Z" fill="#382A8D"/>
<path fill-rule="evenodd" clip-rule="evenodd" d="M51.2414 7.15442L47.8618 18.9108L54.1877 13.0325L51.2414 7.15442Z" fill="#1D8546"/>
<path fill-rule="evenodd" clip-rule="evenodd" d="M49.0749 7.15442L45.6953 18.9108L52.0214 13.0325L49.0749 7.15442Z" fill="#EC6B00"/>
</g>
<defs>
<clipPath id="clip0_944_39068">
<rect width="53.1818" height="13.9023" fill="white" transform="translate(0.90918 6.00012)"/>
</clipPath>
</defs>
</svg>
