<svg width="75" height="33" viewBox="0 0 75 33" fill="none" xmlns="http://www.w3.org/2000/svg">
<path d="M27.7238 8.25C27.7238 8.25 26.5931 8.25 26.3377 8.25C22.5507 8.25 19.2502 6.78542 16.6342 4.125C14.0184 6.78532 10.7181 8.25 6.93123 8.25C6.67589 8.25 5.54505 8.25 5.54505 8.25C5.54505 8.25 5.54492 11 5.54492 12.6034C5.54492 20.432 10.2571 27.0099 16.6344 28.875C23.0116 27.0099 27.7238 20.432 27.7238 12.6034C27.7238 11 27.7238 8.25 27.7238 8.25Z" stroke="#ABABAB" stroke-width="2.77236" stroke-linecap="round" stroke-linejoin="round"/>
<g clip-path="url(#clip0_95_2475)">
<path d="M13.3331 22.0819H19.9364C20.2099 22.0819 20.4316 21.8602 20.4316 21.5866V15.9739C20.4316 15.7004 20.2099 15.4786 19.9364 15.4786H19.4411V13.9929C19.4411 12.4455 18.1822 11.1865 16.6348 11.1865C15.0873 11.1865 13.8284 12.4455 13.8284 13.9929V15.4786H13.3331C13.0596 15.4786 12.8379 15.7004 12.8379 15.9739V21.5866C12.8379 21.8602 13.0596 22.0819 13.3331 22.0819ZM17.13 18.9449V19.6057C17.13 19.8792 16.9083 20.1009 16.6348 20.1009C16.3613 20.1009 16.1395 19.8792 16.1395 19.6057V18.9449C15.9392 18.7942 15.8094 18.5545 15.8094 18.285C15.8094 17.8299 16.1796 17.4596 16.6348 17.4596C17.0899 17.4596 17.4602 17.8299 17.4602 18.285C17.4602 18.5545 17.3303 18.7942 17.13 18.9449ZM14.8189 13.9929C14.8189 12.9916 15.6335 12.177 16.6348 12.177C17.636 12.177 18.4507 12.9916 18.4507 13.9929V15.4786H14.8189V13.9929Z" fill="#ABABAB"/>
</g>
<path d="M41.1409 10.5971V9.023H43.8832V16.25H42.121V10.5971H41.1409ZM45.0413 12.5375C45.0413 11.4023 45.2591 10.508 45.6947 9.8546C46.1369 9.2012 46.8464 8.8745 47.8232 8.8745C48.8 8.8745 49.5062 9.2012 49.9418 9.8546C50.384 10.508 50.6051 11.4023 50.6051 12.5375C50.6051 13.6859 50.384 14.5868 49.9418 15.2402C49.5062 15.8936 48.8 16.2203 47.8232 16.2203C46.8464 16.2203 46.1369 15.8936 45.6947 15.2402C45.2591 14.5868 45.0413 13.6859 45.0413 12.5375ZM48.9419 12.5375C48.9419 11.8709 48.8693 11.3594 48.7241 11.003C48.5789 10.64 48.2786 10.4585 47.8232 10.4585C47.3678 10.4585 47.0675 10.64 46.9223 11.003C46.7771 11.3594 46.7045 11.8709 46.7045 12.5375C46.7045 12.9863 46.7309 13.3592 46.7837 13.6562C46.8365 13.9466 46.9421 14.1842 47.1005 14.369C47.2655 14.5472 47.5064 14.6363 47.8232 14.6363C48.14 14.6363 48.3776 14.5472 48.536 14.369C48.701 14.1842 48.8099 13.9466 48.8627 13.6562C48.9155 13.3592 48.9419 12.9863 48.9419 12.5375ZM51.4995 12.5375C51.4995 11.4023 51.7173 10.508 52.1529 9.8546C52.5951 9.2012 53.3046 8.8745 54.2814 8.8745C55.2582 8.8745 55.9644 9.2012 56.4 9.8546C56.8422 10.508 57.0633 11.4023 57.0633 12.5375C57.0633 13.6859 56.8422 14.5868 56.4 15.2402C55.9644 15.8936 55.2582 16.2203 54.2814 16.2203C53.3046 16.2203 52.5951 15.8936 52.1529 15.2402C51.7173 14.5868 51.4995 13.6859 51.4995 12.5375ZM55.4001 12.5375C55.4001 11.8709 55.3275 11.3594 55.1823 11.003C55.0371 10.64 54.7368 10.4585 54.2814 10.4585C53.826 10.4585 53.5257 10.64 53.3805 11.003C53.2353 11.3594 53.1627 11.8709 53.1627 12.5375C53.1627 12.9863 53.1891 13.3592 53.2419 13.6562C53.2947 13.9466 53.4003 14.1842 53.5587 14.369C53.7237 14.5472 53.9646 14.6363 54.2814 14.6363C54.5982 14.6363 54.8358 14.5472 54.9942 14.369C55.1592 14.1842 55.2681 13.9466 55.3209 13.6562C55.3737 13.3592 55.4001 12.9863 55.4001 12.5375ZM57.8191 10.8446C57.8191 10.31 57.9709 9.8975 58.2745 9.6071C58.5847 9.3167 58.984 9.1715 59.4724 9.1715C59.9608 9.1715 60.3568 9.3167 60.6604 9.6071C60.964 9.8975 61.1158 10.31 61.1158 10.8446C61.1158 11.3792 60.964 11.7917 60.6604 12.0821C60.3568 12.3725 59.9608 12.5177 59.4724 12.5177C58.984 12.5177 58.5847 12.3725 58.2745 12.0821C57.9709 11.7917 57.8191 11.3792 57.8191 10.8446ZM64.5412 9.2804L60.7297 16.25H59.0962L62.9077 9.2804H64.5412ZM59.4625 10.1615C59.1457 10.1615 58.9873 10.3892 58.9873 10.8446C58.9873 11.2934 59.1457 11.5178 59.4625 11.5178C59.6143 11.5178 59.7331 11.4617 59.8189 11.3495C59.9047 11.2373 59.9476 11.069 59.9476 10.8446C59.9476 10.3892 59.7859 10.1615 59.4625 10.1615ZM62.5315 14.6858C62.5315 14.1512 62.6833 13.7387 62.9869 13.4483C63.2905 13.1579 63.6865 13.0127 64.1749 13.0127C64.6633 13.0127 65.0593 13.1579 65.3629 13.4483C65.6665 13.7387 65.8183 14.1512 65.8183 14.6858C65.8183 15.2204 65.6665 15.6329 65.3629 15.9233C65.0593 16.2137 64.6633 16.3589 64.1749 16.3589C63.6865 16.3589 63.2905 16.2137 62.9869 15.9233C62.6833 15.6329 62.5315 15.2204 62.5315 14.6858ZM64.165 14.0027C64.0132 14.0027 63.8944 14.0588 63.8086 14.171C63.7294 14.2832 63.6898 14.4548 63.6898 14.6858C63.6898 15.1346 63.8482 15.359 64.165 15.359C64.3168 15.359 64.4356 15.3029 64.5214 15.1907C64.6072 15.0785 64.6501 14.9102 64.6501 14.6858C64.6501 14.4614 64.6072 14.2931 64.5214 14.1809C64.4356 14.0621 64.3168 14.0027 64.165 14.0027ZM36.0411 26.3193C35.5857 26.3193 35.1765 26.2401 34.8135 26.0817C34.4571 25.9167 34.1766 25.6923 33.972 25.4085C33.7674 25.1181 33.6618 24.7848 33.6552 24.4086H34.6155C34.6485 24.732 34.7805 25.0059 35.0115 25.2303C35.2491 25.4481 35.5923 25.557 36.0411 25.557C36.4701 25.557 36.8067 25.4514 37.0509 25.2402C37.3017 25.0224 37.4271 24.7452 37.4271 24.4086C37.4271 24.1446 37.3545 23.9301 37.2093 23.7651C37.0641 23.6001 36.8826 23.4747 36.6648 23.3889C36.447 23.3031 36.1533 23.2107 35.7837 23.1117C35.3283 22.9929 34.962 22.8741 34.6848 22.7553C34.4142 22.6365 34.1799 22.4517 33.9819 22.2009C33.7905 21.9435 33.6948 21.6003 33.6948 21.1713C33.6948 20.7951 33.7905 20.4618 33.9819 20.1714C34.1733 19.881 34.4406 19.6566 34.7838 19.4982C35.1336 19.3398 35.5329 19.2606 35.9817 19.2606C36.6285 19.2606 37.1565 19.4223 37.5657 19.7457C37.9815 20.0691 38.2158 20.4981 38.2686 21.0327H37.2786C37.2456 20.7687 37.107 20.5377 36.8628 20.3397C36.6186 20.1351 36.2952 20.0328 35.8926 20.0328C35.5164 20.0328 35.2095 20.1318 34.9719 20.3298C34.7343 20.5212 34.6155 20.7918 34.6155 21.1416C34.6155 21.3924 34.6848 21.597 34.8234 21.7554C34.9686 21.9138 35.1435 22.0359 35.3481 22.1217C35.5593 22.2009 35.853 22.2933 36.2292 22.3989C36.6846 22.5243 37.0509 22.6497 37.3281 22.7751C37.6053 22.8939 37.8429 23.082 38.0409 23.3394C38.2389 23.5902 38.3379 23.9334 38.3379 24.369C38.3379 24.7056 38.2488 25.0224 38.0706 25.3194C37.8924 25.6164 37.6284 25.8573 37.2786 26.0421C36.9288 26.2269 36.5163 26.3193 36.0411 26.3193ZM44.6137 23.3295C44.6137 23.5011 44.6038 23.6826 44.584 23.874H40.2478C40.2808 24.4086 40.4623 24.8277 40.7923 25.1313C41.1289 25.4283 41.5348 25.5768 42.01 25.5768C42.3994 25.5768 42.7228 25.4877 42.9802 25.3095C43.2442 25.1247 43.429 24.8805 43.5346 24.5769H44.5048C44.3596 25.0983 44.0692 25.524 43.6336 25.854C43.198 26.1774 42.6568 26.3391 42.01 26.3391C41.4952 26.3391 41.0332 26.2236 40.624 25.9926C40.2214 25.7616 39.9046 25.4349 39.6736 25.0125C39.4426 24.5835 39.3271 24.0885 39.3271 23.5275C39.3271 22.9665 39.4393 22.4748 39.6637 22.0524C39.8881 21.63 40.2016 21.3066 40.6042 21.0822C41.0134 20.8512 41.482 20.7357 42.01 20.7357C42.5248 20.7357 42.9802 20.8479 43.3762 21.0723C43.7722 21.2967 44.0758 21.6069 44.287 22.0029C44.5048 22.3923 44.6137 22.8345 44.6137 23.3295ZM43.6831 23.1414C43.6831 22.7982 43.6072 22.5045 43.4554 22.2603C43.3036 22.0095 43.0957 21.8214 42.8317 21.696C42.5743 21.564 42.2872 21.498 41.9704 21.498C41.515 21.498 41.1256 21.6432 40.8022 21.9336C40.4854 22.224 40.3039 22.6266 40.2577 23.1414H43.6831ZM45.4662 23.5275C45.4662 22.9665 45.5784 22.4781 45.8028 22.0623C46.0272 21.6399 46.3374 21.3132 46.7334 21.0822C47.136 20.8512 47.5947 20.7357 48.1095 20.7357C48.7761 20.7357 49.3239 20.8974 49.7529 21.2208C50.1885 21.5442 50.4756 21.993 50.6142 22.5672H49.644C49.5516 22.2372 49.3701 21.9765 49.0995 21.7851C48.8355 21.5937 48.5055 21.498 48.1095 21.498C47.5947 21.498 47.1789 21.6762 46.8621 22.0326C46.5453 22.3824 46.3869 22.8807 46.3869 23.5275C46.3869 24.1809 46.5453 24.6858 46.8621 25.0422C47.1789 25.3986 47.5947 25.5768 48.1095 25.5768C48.5055 25.5768 48.8355 25.4844 49.0995 25.2996C49.3635 25.1148 49.545 24.8508 49.644 24.5076H50.6142C50.469 25.062 50.1786 25.5075 49.743 25.8441C49.3074 26.1741 48.7629 26.3391 48.1095 26.3391C47.5947 26.3391 47.136 26.2236 46.7334 25.9926C46.3374 25.7616 46.0272 25.4349 45.8028 25.0125C45.5784 24.5901 45.4662 24.0951 45.4662 23.5275ZM56.6277 20.8248V26.25H55.7268V25.4481C55.5552 25.7253 55.3143 25.9431 55.0041 26.1015C54.7005 26.2533 54.3639 26.3292 53.9943 26.3292C53.5719 26.3292 53.1924 26.2434 52.8558 26.0718C52.5192 25.8936 52.2519 25.6296 52.0539 25.2798C51.8625 24.93 51.7668 24.5043 51.7668 24.0027V20.8248H52.6578V23.8839C52.6578 24.4185 52.7931 24.831 53.0637 25.1214C53.3343 25.4052 53.7039 25.5471 54.1725 25.5471C54.6543 25.5471 55.0338 25.3986 55.311 25.1016C55.5882 24.8046 55.7268 24.3723 55.7268 23.8047V20.8248H56.6277ZM59.0497 21.7059C59.2081 21.3957 59.4325 21.1548 59.7229 20.9832C60.0199 20.8116 60.3796 20.7258 60.802 20.7258V21.6564H60.5644C59.5546 21.6564 59.0497 22.2042 59.0497 23.2998V26.25H58.1488V20.8248H59.0497V21.7059ZM66.792 23.3295C66.792 23.5011 66.7821 23.6826 66.7623 23.874H62.4261C62.4591 24.4086 62.6406 24.8277 62.9706 25.1313C63.3072 25.4283 63.7131 25.5768 64.1883 25.5768C64.5777 25.5768 64.9011 25.4877 65.1585 25.3095C65.4225 25.1247 65.6073 24.8805 65.7129 24.5769H66.6831C66.5379 25.0983 66.2475 25.524 65.8119 25.854C65.3763 26.1774 64.8351 26.3391 64.1883 26.3391C63.6735 26.3391 63.2115 26.2236 62.8023 25.9926C62.3997 25.7616 62.0829 25.4349 61.8519 25.0125C61.6209 24.5835 61.5054 24.0885 61.5054 23.5275C61.5054 22.9665 61.6176 22.4748 61.842 22.0524C62.0664 21.63 62.3799 21.3066 62.7825 21.0822C63.1917 20.8512 63.6603 20.7357 64.1883 20.7357C64.7031 20.7357 65.1585 20.8479 65.5545 21.0723C65.9505 21.2967 66.2541 21.6069 66.4653 22.0029C66.6831 22.3923 66.792 22.8345 66.792 23.3295ZM65.8614 23.1414C65.8614 22.7982 65.7855 22.5045 65.6337 22.2603C65.4819 22.0095 65.274 21.8214 65.01 21.696C64.7526 21.564 64.4655 21.498 64.1487 21.498C63.6933 21.498 63.3039 21.6432 62.9805 21.9336C62.6637 22.224 62.4822 22.6266 62.436 23.1414H65.8614ZM67.6445 23.5176C67.6445 22.9632 67.7567 22.4781 67.9811 22.0623C68.2055 21.6399 68.5124 21.3132 68.9018 21.0822C69.2978 20.8512 69.74 20.7357 70.2284 20.7357C70.6508 20.7357 71.0435 20.8347 71.4065 21.0327C71.7695 21.2241 72.0467 21.4782 72.2381 21.795V18.924H73.1489V26.25H72.2381V25.2303C72.0599 25.5537 71.7959 25.821 71.4461 26.0322C71.0963 26.2368 70.6871 26.3391 70.2185 26.3391C69.7367 26.3391 69.2978 26.2203 68.9018 25.9827C68.5124 25.7451 68.2055 25.4118 67.9811 24.9828C67.7567 24.5538 67.6445 24.0654 67.6445 23.5176ZM72.2381 23.5275C72.2381 23.1183 72.1556 22.7619 71.9906 22.4583C71.8256 22.1547 71.6012 21.9237 71.3174 21.7653C71.0402 21.6003 70.7333 21.5178 70.3967 21.5178C70.0601 21.5178 69.7532 21.597 69.476 21.7554C69.1988 21.9138 68.9777 22.1448 68.8127 22.4484C68.6477 22.752 68.5652 23.1084 68.5652 23.5176C68.5652 23.9334 68.6477 24.2964 68.8127 24.6066C68.9777 24.9102 69.1988 25.1445 69.476 25.3095C69.7532 25.4679 70.0601 25.5471 70.3967 25.5471C70.7333 25.5471 71.0402 25.4679 71.3174 25.3095C71.6012 25.1445 71.8256 24.9102 71.9906 24.6066C72.1556 24.2964 72.2381 23.9367 72.2381 23.5275Z" fill="#ABABAB"/>
<defs>
<clipPath id="clip0_95_2475">
<rect width="10.8954" height="10.8954" fill="white" transform="translate(11.1855 11.1864)"/>
</clipPath>
</defs>
</svg>
