<svg width="400" height="192" viewBox="0 0 400 192" fill="none" xmlns="http://www.w3.org/2000/svg">
<path d="M164.299 64.9624C164.299 64.9624 160.045 64.9624 159.084 64.9624C144.837 64.9624 132.42 59.4525 122.579 49.4437C112.738 59.4521 100.322 64.9624 86.0753 64.9624C85.1147 64.9624 80.8603 64.9624 80.8603 64.9624C80.8603 64.9624 80.8599 75.3081 80.8599 81.3403C80.8599 110.792 98.5875 135.539 122.579 142.556C146.571 135.539 164.299 110.792 164.299 81.3403C164.299 75.3081 164.299 64.9624 164.299 64.9624Z" stroke="#25BF6A" stroke-width="10.4299" stroke-linecap="round" stroke-linejoin="round"/>
<g clip-path="url(#clip0_726_4307)">
<path d="M110.16 116.999H135.002C136.031 116.999 136.865 116.165 136.865 115.136V94.0203C136.865 92.9913 136.031 92.1571 135.002 92.1571H133.139V86.5676C133.139 80.746 128.403 76.0098 122.581 76.0098C116.759 76.0098 112.023 80.746 112.023 86.5676V92.1571H110.16C109.131 92.1571 108.297 92.9913 108.297 94.0203V115.136C108.297 116.165 109.131 116.999 110.16 116.999ZM124.444 105.197V107.683C124.444 108.712 123.61 109.547 122.581 109.547C121.552 109.547 120.718 108.712 120.718 107.683V105.197C119.964 104.63 119.476 103.729 119.476 102.715C119.476 101.003 120.869 99.6097 122.581 99.6097C124.293 99.6097 125.686 101.003 125.686 102.715C125.686 103.729 125.198 104.63 124.444 105.197ZM115.749 86.5676C115.749 82.8007 118.814 79.7361 122.581 79.7361C126.348 79.7361 129.413 82.8007 129.413 86.5676V92.1571H115.749V86.5676Z" fill="#25BF6A"/>
</g>
<path d="M214.652 75.6958V69.7738H224.969V96.9625H218.34V75.6958H214.652ZM229.326 82.9957C229.326 78.725 230.145 75.3606 231.784 72.9024C233.448 70.4443 236.117 69.2152 239.792 69.2152C243.467 69.2152 246.123 70.4443 247.762 72.9024C249.426 75.3606 250.258 78.725 250.258 82.9957C250.258 87.3161 249.426 90.7054 247.762 93.1636C246.123 95.6217 243.467 96.8508 239.792 96.8508C236.117 96.8508 233.448 95.6217 231.784 93.1636C230.145 90.7054 229.326 87.3161 229.326 82.9957ZM244 82.9957C244 80.4879 243.727 78.5636 243.181 77.2228C242.635 75.8572 241.505 75.1743 239.792 75.1743C238.079 75.1743 236.949 75.8572 236.402 77.2228C235.856 78.5636 235.583 80.4879 235.583 82.9957C235.583 84.6842 235.682 86.0871 235.881 87.2044C236.08 88.2969 236.477 89.1908 237.073 89.886C237.694 90.5564 238.6 90.8916 239.792 90.8916C240.984 90.8916 241.877 90.5564 242.473 89.886C243.094 89.1908 243.504 88.2969 243.702 87.2044C243.901 86.0871 244 84.6842 244 82.9957ZM253.622 82.9957C253.622 78.725 254.442 75.3606 256.081 72.9024C257.744 70.4443 260.413 69.2152 264.088 69.2152C267.763 69.2152 270.42 70.4443 272.059 72.9024C273.722 75.3606 274.554 78.725 274.554 82.9957C274.554 87.3161 273.722 90.7054 272.059 93.1636C270.42 95.6217 267.763 96.8508 264.088 96.8508C260.413 96.8508 257.744 95.6217 256.081 93.1636C254.442 90.7054 253.622 87.3161 253.622 82.9957ZM268.297 82.9957C268.297 80.4879 268.024 78.5636 267.477 77.2228C266.931 75.8572 265.801 75.1743 264.088 75.1743C262.375 75.1743 261.245 75.8572 260.699 77.2228C260.153 78.5636 259.88 80.4879 259.88 82.9957C259.88 84.6842 259.979 86.0871 260.177 87.2044C260.376 88.2969 260.773 89.1908 261.369 89.886C261.99 90.5564 262.896 90.8916 264.088 90.8916C265.28 90.8916 266.174 90.5564 266.77 89.886C267.391 89.1908 267.8 88.2969 267.999 87.2044C268.197 86.0871 268.297 84.6842 268.297 82.9957ZM277.397 76.6269C277.397 74.6157 277.968 73.0638 279.111 71.9713C280.278 70.8788 281.78 70.3325 283.617 70.3325C285.455 70.3325 286.944 70.8788 288.087 71.9713C289.229 73.0638 289.8 74.6157 289.8 76.6269C289.8 78.6381 289.229 80.19 288.087 81.2825C286.944 82.375 285.455 82.9212 283.617 82.9212C281.78 82.9212 280.278 82.375 279.111 81.2825C277.968 80.19 277.397 78.6381 277.397 76.6269ZM302.687 70.7422L288.347 96.9625H282.202L296.541 70.7422H302.687ZM283.58 74.057C282.388 74.057 281.792 74.9136 281.792 76.6269C281.792 78.3153 282.388 79.1595 283.58 79.1595C284.151 79.1595 284.598 78.9485 284.921 78.5264C285.244 78.1043 285.405 77.4711 285.405 76.6269C285.405 74.9136 284.797 74.057 283.58 74.057ZM295.126 91.0779C295.126 89.0666 295.697 87.5148 296.839 86.4223C297.981 85.3297 299.471 84.7835 301.308 84.7835C303.146 84.7835 304.636 85.3297 305.778 86.4223C306.92 87.5148 307.491 89.0666 307.491 91.0779C307.491 93.0891 306.92 94.6409 305.778 95.7334C304.636 96.826 303.146 97.3722 301.308 97.3722C299.471 97.3722 297.981 96.826 296.839 95.7334C295.697 94.6409 295.126 93.0891 295.126 91.0779ZM301.271 88.508C300.7 88.508 300.253 88.719 299.93 89.1411C299.632 89.5632 299.483 90.2088 299.483 91.0779C299.483 92.7663 300.079 93.6105 301.271 93.6105C301.842 93.6105 302.289 93.3994 302.612 92.9773C302.935 92.5552 303.096 91.9221 303.096 91.0779C303.096 90.2336 302.935 89.6005 302.612 89.1784C302.289 88.7314 301.842 88.508 301.271 88.508ZM195.466 134.223C193.753 134.223 192.214 133.925 190.848 133.329C189.507 132.709 188.452 131.864 187.682 130.797C186.913 129.704 186.515 128.45 186.49 127.035H190.103C190.227 128.252 190.724 129.282 191.593 130.126C192.487 130.946 193.778 131.355 195.466 131.355C197.08 131.355 198.347 130.958 199.265 130.164C200.209 129.344 200.681 128.301 200.681 127.035C200.681 126.042 200.408 125.235 199.861 124.614C199.315 123.993 198.632 123.522 197.813 123.199C196.993 122.876 195.889 122.528 194.498 122.156C192.785 121.709 191.407 121.262 190.364 120.815C189.346 120.368 188.464 119.673 187.72 118.729C186.999 117.761 186.639 116.47 186.639 114.856C186.639 113.441 186.999 112.187 187.72 111.094C188.44 110.002 189.445 109.158 190.736 108.562C192.052 107.966 193.555 107.668 195.243 107.668C197.676 107.668 199.663 108.276 201.202 109.493C202.766 110.709 203.648 112.323 203.846 114.335H200.122C199.998 113.341 199.476 112.472 198.558 111.727C197.639 110.958 196.422 110.573 194.908 110.573C193.492 110.573 192.338 110.945 191.444 111.69C190.55 112.41 190.103 113.428 190.103 114.744C190.103 115.688 190.364 116.457 190.885 117.053C191.432 117.649 192.09 118.109 192.859 118.431C193.654 118.729 194.759 119.077 196.174 119.474C197.887 119.946 199.265 120.418 200.308 120.89C201.351 121.337 202.245 122.044 202.99 123.013C203.735 123.956 204.107 125.247 204.107 126.886C204.107 128.152 203.772 129.344 203.102 130.462C202.431 131.579 201.438 132.485 200.122 133.18C198.806 133.876 197.254 134.223 195.466 134.223ZM227.717 122.975C227.717 123.621 227.68 124.304 227.605 125.024H211.292C211.416 127.035 212.099 128.612 213.341 129.754C214.607 130.871 216.134 131.43 217.922 131.43C219.387 131.43 220.603 131.095 221.572 130.424C222.565 129.729 223.26 128.81 223.658 127.668H227.307C226.761 129.63 225.669 131.231 224.03 132.473C222.391 133.689 220.355 134.298 217.922 134.298C215.985 134.298 214.247 133.863 212.708 132.994C211.193 132.125 210.001 130.896 209.132 129.307C208.263 127.693 207.828 125.831 207.828 123.72C207.828 121.61 208.251 119.76 209.095 118.171C209.939 116.582 211.118 115.365 212.633 114.521C214.173 113.652 215.935 113.217 217.922 113.217C219.859 113.217 221.572 113.639 223.062 114.484C224.551 115.328 225.694 116.495 226.488 117.985C227.307 119.449 227.717 121.113 227.717 122.975ZM224.216 122.268C224.216 120.977 223.931 119.872 223.36 118.953C222.788 118.009 222.006 117.302 221.013 116.83C220.045 116.333 218.965 116.085 217.773 116.085C216.06 116.085 214.595 116.631 213.378 117.724C212.186 118.816 211.503 120.331 211.329 122.268H224.216ZM230.925 123.72C230.925 121.61 231.347 119.772 232.191 118.208C233.035 116.619 234.202 115.39 235.692 114.521C237.207 113.652 238.932 113.217 240.869 113.217C243.377 113.217 245.438 113.826 247.052 115.042C248.69 116.259 249.77 117.947 250.292 120.107H246.642C246.294 118.866 245.611 117.885 244.593 117.165C243.6 116.445 242.359 116.085 240.869 116.085C238.932 116.085 237.368 116.755 236.176 118.096C234.984 119.412 234.388 121.287 234.388 123.72C234.388 126.178 234.984 128.078 236.176 129.419C237.368 130.759 238.932 131.43 240.869 131.43C242.359 131.43 243.6 131.082 244.593 130.387C245.587 129.692 246.269 128.699 246.642 127.407H250.292C249.746 129.493 248.653 131.169 247.014 132.435C245.376 133.677 243.327 134.298 240.869 134.298C238.932 134.298 237.207 133.863 235.692 132.994C234.202 132.125 233.035 130.896 232.191 129.307C231.347 127.718 230.925 125.856 230.925 123.72ZM272.915 113.552V133.963H269.526V130.946C268.88 131.989 267.974 132.808 266.807 133.404C265.665 133.975 264.399 134.26 263.008 134.26C261.419 134.26 259.991 133.938 258.725 133.292C257.459 132.622 256.453 131.629 255.708 130.313C254.988 128.997 254.628 127.395 254.628 125.508V113.552H257.98V125.061C257.98 127.072 258.489 128.624 259.507 129.717C260.525 130.784 261.916 131.318 263.678 131.318C265.491 131.318 266.919 130.759 267.962 129.642C269.004 128.525 269.526 126.898 269.526 124.763V113.552H272.915ZM282.027 116.867C282.623 115.7 283.467 114.794 284.56 114.148C285.677 113.503 287.03 113.18 288.619 113.18V116.681H287.725C283.927 116.681 282.027 118.742 282.027 122.864V133.963H278.638V113.552H282.027V116.867ZM311.154 122.975C311.154 123.621 311.117 124.304 311.042 125.024H294.729C294.853 127.035 295.536 128.612 296.778 129.754C298.044 130.871 299.571 131.43 301.359 131.43C302.824 131.43 304.04 131.095 305.009 130.424C306.002 129.729 306.697 128.81 307.095 127.668H310.744C310.198 129.63 309.106 131.231 307.467 132.473C305.828 133.689 303.792 134.298 301.359 134.298C299.422 134.298 297.684 133.863 296.145 132.994C294.63 132.125 293.438 130.896 292.569 129.307C291.7 127.693 291.265 125.831 291.265 123.72C291.265 121.61 291.688 119.76 292.532 118.171C293.376 116.582 294.555 115.365 296.07 114.521C297.61 113.652 299.372 113.217 301.359 113.217C303.296 113.217 305.009 113.639 306.499 114.484C307.988 115.328 309.131 116.495 309.925 117.985C310.744 119.449 311.154 121.113 311.154 122.975ZM307.653 122.268C307.653 120.977 307.368 119.872 306.797 118.953C306.225 118.009 305.443 117.302 304.45 116.83C303.482 116.333 302.402 116.085 301.21 116.085C299.497 116.085 298.032 116.631 296.815 117.724C295.623 118.816 294.94 120.331 294.766 122.268H307.653ZM314.362 123.683C314.362 121.597 314.784 119.772 315.628 118.208C316.472 116.619 317.627 115.39 319.092 114.521C320.581 113.652 322.245 113.217 324.082 113.217C325.672 113.217 327.149 113.59 328.515 114.335C329.88 115.055 330.923 116.011 331.643 117.202V106.401H335.07V133.963H331.643V130.126C330.973 131.343 329.98 132.349 328.664 133.143C327.348 133.913 325.808 134.298 324.045 134.298C322.233 134.298 320.581 133.851 319.092 132.957C317.627 132.063 316.472 130.809 315.628 129.195C314.784 127.581 314.362 125.744 314.362 123.683ZM331.643 123.72C331.643 122.181 331.333 120.84 330.712 119.698C330.091 118.556 329.247 117.687 328.179 117.091C327.137 116.47 325.982 116.16 324.716 116.16C323.449 116.16 322.295 116.457 321.252 117.053C320.209 117.649 319.377 118.518 318.756 119.661C318.136 120.803 317.825 122.144 317.825 123.683C317.825 125.247 318.136 126.613 318.756 127.78C319.377 128.922 320.209 129.804 321.252 130.424C322.295 131.02 323.449 131.318 324.716 131.318C325.982 131.318 327.137 131.02 328.179 130.424C329.247 129.804 330.091 128.922 330.712 127.78C331.333 126.613 331.643 125.26 331.643 123.72Z" fill="#25BF6A"/>
<defs>
<clipPath id="clip0_726_4307">
<rect width="40.9894" height="40.9894" fill="white" transform="translate(102.082 76.0098)"/>
</clipPath>
</defs>
</svg>
