<svg width="22" height="22" viewBox="0 0 22 22" fill="none" xmlns="http://www.w3.org/2000/svg">
<path fill-rule="evenodd" clip-rule="evenodd" d="M20.0825 11.3374C20.7725 12.0273 20.7725 13.146 20.0825 13.836L13.836 20.0825C13.146 20.7725 12.0274 20.7725 11.3374 20.0825L1.91751 10.6626C1.55281 10.2979 1.36568 9.79208 1.40524 9.27783L1.85142 3.47747C1.91825 2.6086 2.60863 1.91823 3.4775 1.85139L9.27786 1.40521C9.79211 1.36565 10.298 1.55278 10.6627 1.91749L20.0825 11.3374ZM6.50002 9C7.88073 9 9.00002 7.88071 9.00002 6.5C9.00002 5.11929 7.88073 4 6.50002 4C5.11931 4 4.00002 5.11929 4.00002 6.5C4.00002 7.88071 5.11931 9 6.50002 9Z" fill="#5A5CE7"/>
<path d="M20.0825 13.836L19.3754 13.1289L20.0825 13.836ZM20.0825 11.3374L19.3754 12.0445L20.0825 11.3374ZM13.836 20.0825L14.5431 20.7896L13.836 20.0825ZM11.3374 20.0825L10.6303 20.7896L11.3374 20.0825ZM1.91751 10.6626L2.62462 9.95554L1.91751 10.6626ZM1.40524 9.27783L0.408181 9.20113L0.408181 9.20114L1.40524 9.27783ZM1.85142 3.47747L0.854363 3.40077L0.854363 3.40077L1.85142 3.47747ZM3.4775 1.85139L3.55419 2.84845H3.55419L3.4775 1.85139ZM9.27786 1.40521L9.20116 0.408155L9.27786 1.40521ZM10.6627 1.91749L9.95557 2.62459V2.62459L10.6627 1.91749ZM20.7896 14.5431C21.8701 13.4626 21.8701 11.7107 20.7896 10.6302L19.3754 12.0445C19.6749 12.3439 19.6749 12.8294 19.3754 13.1289L20.7896 14.5431ZM14.5431 20.7896L20.7896 14.5431L19.3754 13.1289L13.1289 19.3754L14.5431 20.7896ZM10.6303 20.7896C11.7108 21.8701 13.4626 21.8701 14.5431 20.7896L13.1289 19.3754C12.8294 19.6749 12.3439 19.6749 12.0445 19.3754L10.6303 20.7896ZM1.21041 11.3698L10.6303 20.7896L12.0445 19.3754L2.62462 9.95554L1.21041 11.3698ZM0.408181 9.20114C0.346235 10.0065 0.639279 10.7986 1.21041 11.3698L2.62462 9.95554C2.46634 9.79726 2.38512 9.57771 2.40229 9.35453L0.408181 9.20114ZM0.854363 3.40077L0.408181 9.20113L2.40229 9.35453L2.84847 3.55417L0.854363 3.40077ZM3.4008 0.854337C2.04015 0.959002 0.95903 2.04012 0.854363 3.40077L2.84847 3.55417C2.87748 3.17707 3.1771 2.87745 3.55419 2.84845L3.4008 0.854337ZM9.20116 0.408155L3.4008 0.854337L3.55419 2.84845L9.35455 2.40226L9.20116 0.408155ZM11.3698 1.21038C10.7987 0.639254 10.0065 0.346208 9.20116 0.408155L9.35455 2.40226C9.57774 2.3851 9.79728 2.46631 9.95557 2.62459L11.3698 1.21038ZM20.7896 10.6302L11.3698 1.21038L9.95557 2.62459L19.3754 12.0445L20.7896 10.6302ZM8.00002 6.5C8.00002 7.32843 7.32845 8 6.50002 8V10C8.43302 10 10 8.433 10 6.5H8.00002ZM6.50002 5C7.32845 5 8.00002 5.67157 8.00002 6.5H10C10 4.567 8.43302 3 6.50002 3V5ZM5.00002 6.5C5.00002 5.67157 5.6716 5 6.50002 5V3C4.56703 3 3.00002 4.567 3.00002 6.5H5.00002ZM6.50002 8C5.67159 8 5.00002 7.32843 5.00002 6.5H3.00002C3.00002 8.433 4.56703 10 6.50002 10V8Z" fill="#5A5CE7"/>
</svg>
