<svg width="54" height="25" viewBox="0 0 54 25" fill="none" xmlns="http://www.w3.org/2000/svg">
<g clip-path="url(#clip0_944_39052)">
<path fill-rule="evenodd" clip-rule="evenodd" d="M45.5864 4.02161L48.5538 9.92436L42.3123 15.8307L43.0541 13.1521L46.4674 9.92436L44.8446 6.69657L45.5864 4.02161Z" fill="#0E8635"/>
<path fill-rule="evenodd" clip-rule="evenodd" d="M43.4999 4.02161L46.4673 9.92436L40.2222 15.8307L43.4999 4.02161Z" fill="#E97208"/>
<path d="M5.18399 18.0704H5.52995L5.20895 19.4079C5.16259 19.6076 5.16972 19.7574 5.23749 19.8573C5.30169 19.9572 5.42652 20.0071 5.60485 20.0071C5.78318 20.0071 5.92584 19.9572 6.03998 19.8573C6.15411 19.7574 6.23257 19.6076 6.28251 19.4079L6.6035 18.0704H6.95303L6.62134 19.4436C6.55 19.7432 6.4216 19.9643 6.23971 20.1141C6.05781 20.2639 5.81885 20.3352 5.52282 20.3352C5.22679 20.3352 5.02349 20.2603 4.91293 20.1141C4.80236 19.9679 4.78453 19.7432 4.85586 19.4436L5.18399 18.0704ZM38.2679 15.7807H35.9211L39.1845 4.00012H41.5314L38.2679 15.7807ZM18.7585 15.0424C18.6301 15.506 18.2021 15.8342 17.7206 15.8342H5.61912C5.28742 15.8342 5.04132 15.72 4.88083 15.4989C4.72033 15.2742 4.68466 14.996 4.78096 14.6643L7.73055 4.03222H10.0774L7.44522 13.5301H16.8361L19.4719 4.03222H21.8187L18.7585 15.0424ZM37.0517 4.37105C36.8912 4.14635 36.638 4.03579 36.2991 4.03579H23.3987L22.7638 6.34696H34.498L33.8132 8.81149H24.4223V8.80435H22.0755L20.1281 15.8377H22.4749L23.7803 11.1191H34.3304C34.6621 11.1191 34.9724 11.0085 35.2613 10.7838C35.5502 10.5591 35.7428 10.2809 35.8319 9.94924L37.1373 5.2306C37.2443 4.87751 37.2122 4.59575 37.0517 4.37105ZM46.7422 20.2746L47.2701 18.0704H48.4684L48.3971 18.3736H47.5483L47.4163 18.9264H48.2651L48.1903 19.2403H47.3414L47.1702 19.9536H48.0191L47.9442 20.2746H46.7422ZM46.7065 18.6054C46.6281 18.5198 46.5389 18.4556 46.439 18.4128C46.3392 18.37 46.2286 18.3486 46.1073 18.3486C45.8719 18.3486 45.6615 18.4271 45.4796 18.5805C45.2942 18.7338 45.1729 18.9371 45.1158 19.1832C45.0588 19.4222 45.0837 19.6183 45.1907 19.7717C45.2977 19.9251 45.4582 20.0035 45.6794 20.0035C45.8078 20.0035 45.9326 19.9786 46.0574 19.9322C46.1822 19.8858 46.3106 19.8145 46.439 19.7218L46.3427 20.1284C46.2322 20.1961 46.118 20.2496 46.0003 20.2817C45.8826 20.3138 45.7578 20.3317 45.6294 20.3317C45.4654 20.3317 45.3191 20.3031 45.1943 20.2496C45.0695 20.1961 44.966 20.1141 44.884 20.0071C44.8055 19.9037 44.752 19.7788 44.7306 19.6362C44.7092 19.4935 44.7164 19.3401 44.7556 19.1796C44.7948 19.0191 44.859 18.8658 44.9482 18.7231C45.0374 18.5804 45.1515 18.4556 45.2835 18.3486C45.4154 18.2416 45.5581 18.1596 45.7079 18.1025C45.8577 18.0455 46.0146 18.0205 46.1751 18.0205C46.2999 18.0205 46.4176 18.0383 46.5211 18.0776C46.6245 18.1168 46.7244 18.1739 46.8135 18.2488L46.7065 18.6054ZM44.0637 20.2746L43.9567 19.7075H43.1043L42.7191 20.2746H42.3517L43.9424 17.9813L44.4346 20.2746H44.0637ZM43.304 19.4079H43.9032L43.8033 18.905C43.7997 18.8729 43.7926 18.8372 43.789 18.7944C43.7855 18.7516 43.7819 18.7053 43.7819 18.6553C43.7569 18.7017 43.7355 18.7481 43.7106 18.7909C43.6892 18.8337 43.6642 18.8693 43.6428 18.905L43.304 19.4079ZM41.1747 20.2746L41.7026 18.0704H42.901L42.8296 18.3736H41.9808L41.8488 18.9228H42.6977L42.6228 19.2367H41.7739L41.5242 20.2746H41.1747ZM40.0512 19.2902L39.8158 20.2782H39.4877L40.0156 18.074H40.5042C40.6469 18.074 40.7539 18.0847 40.8288 18.1025C40.9037 18.1204 40.9643 18.1525 41.0071 18.1988C41.0606 18.2523 41.0963 18.3201 41.1105 18.4057C41.1248 18.4913 41.1212 18.584 41.0998 18.6839C41.057 18.8622 40.9821 18.9977 40.8751 19.0976C40.7681 19.1975 40.629 19.2581 40.465 19.2759L40.9643 20.2782H40.5684L40.0905 19.2902H40.0512ZM40.1404 19.0084H40.2046C40.3901 19.0084 40.5185 18.987 40.5898 18.9407C40.6611 18.8979 40.7111 18.8194 40.736 18.7053C40.7646 18.584 40.7539 18.4984 40.7004 18.4485C40.6469 18.3986 40.5327 18.3736 40.358 18.3736H40.2938L40.1404 19.0084ZM37.8899 20.2746L38.4177 18.0704H39.6161L39.5448 18.3736H38.6959L38.564 18.9264H39.4128L39.3379 19.2403H38.4891L38.3179 19.9536H39.1667L39.0882 20.2746H37.8899ZM37.5082 18.3736L37.0517 20.2746H36.7022L37.1587 18.3736H36.588L36.6594 18.0704H38.1467L38.0753 18.3736H37.5082ZM33.9452 20.2746L34.4944 17.9813L35.5359 19.3294C35.5644 19.3687 35.593 19.4079 35.6179 19.4507C35.6465 19.4935 35.675 19.5434 35.7035 19.5969L36.0709 18.0669H36.3954L35.8462 20.3566L34.7798 18.9835C34.7512 18.9478 34.7263 18.9086 34.7013 18.8658C34.6763 18.823 34.6549 18.7802 34.6335 18.7374L34.2662 20.271H33.9452V20.2746ZM33.0928 20.2746L33.6206 18.0704H33.9701L33.4423 20.2746H33.0928ZM30.5105 19.8323L30.8208 19.7004C30.8244 19.8002 30.8529 19.8751 30.9136 19.9251C30.9706 19.975 31.0562 20.0035 31.1668 20.0035C31.2702 20.0035 31.3594 19.975 31.4343 19.9144C31.5092 19.8537 31.5591 19.7753 31.5841 19.6754C31.6162 19.547 31.5377 19.4293 31.3523 19.3294C31.3273 19.3152 31.3059 19.3045 31.2916 19.2973C31.0848 19.1796 30.9492 19.0726 30.8957 18.9763C30.8387 18.88 30.828 18.7623 30.8636 18.6232C30.9064 18.4449 30.9992 18.2987 31.1454 18.1881C31.2916 18.0776 31.4593 18.0205 31.6518 18.0205C31.8088 18.0205 31.9336 18.0526 32.0263 18.1132C32.1191 18.1774 32.169 18.2666 32.1833 18.3843L31.8765 18.5305C31.848 18.4628 31.8159 18.4093 31.7695 18.3772C31.7267 18.3451 31.6697 18.3308 31.6055 18.3308C31.5128 18.3308 31.4307 18.3558 31.363 18.4057C31.2952 18.4556 31.2524 18.5234 31.231 18.609C31.1989 18.7409 31.2916 18.8658 31.5056 18.9799C31.5235 18.9906 31.5342 18.9942 31.5449 19.0013C31.7339 19.1012 31.8551 19.201 31.9122 19.2973C31.9693 19.3936 31.98 19.5113 31.9443 19.6576C31.8944 19.868 31.7909 20.0321 31.634 20.1569C31.4771 20.2782 31.2881 20.3424 31.0705 20.3424C30.8886 20.3424 30.7459 20.2996 30.6532 20.214C30.5569 20.1177 30.5105 19.9964 30.5105 19.8323ZM30.1467 18.3736L29.6938 20.2746H29.3442L29.8008 18.3736H29.2301L29.305 18.0704H30.7923L30.721 18.3736H30.1467ZM26.5837 20.2746L27.1329 17.9813L28.1744 19.3294C28.2029 19.3687 28.2315 19.4079 28.2564 19.4507C28.285 19.4935 28.3135 19.5434 28.342 19.5969L28.7094 18.0669H29.034L28.4847 20.3566L27.4183 18.9835C27.3897 18.9478 27.3648 18.9086 27.3398 18.8658C27.3148 18.823 27.2934 18.7802 27.272 18.7374L26.9047 20.271H26.5837V20.2746ZM24.9823 20.2746L25.5101 18.0704H26.7085L26.6372 18.3736H25.7883L25.6564 18.9264H26.5052L26.4303 19.2403H25.5815L25.4103 19.9536H26.2591L26.1807 20.2746H24.9823ZM24.4009 19.1868C24.4009 19.1689 24.4045 19.1226 24.4152 19.0441C24.4223 18.9799 24.4295 18.9264 24.433 18.8836C24.4116 18.9335 24.3867 18.9835 24.3581 19.0334C24.3296 19.0833 24.2975 19.1333 24.2618 19.1868L23.4165 20.3602L23.1419 19.1618C23.1312 19.1119 23.1205 19.0655 23.1169 19.0191C23.1098 18.9728 23.1062 18.9264 23.1062 18.8836C23.0955 18.93 23.0777 18.9763 23.0599 19.0298C23.042 19.0798 23.0206 19.1333 22.9921 19.1903L22.4999 20.2746H22.1789L23.2382 17.9741L23.5378 19.3651C23.5414 19.3865 23.5485 19.4257 23.5556 19.4757C23.5628 19.5256 23.5735 19.5898 23.5842 19.6647C23.6198 19.6005 23.6698 19.522 23.7375 19.4222C23.7554 19.3972 23.7696 19.3758 23.7768 19.3615L24.729 17.9706L24.6969 20.271H24.3795L24.4009 19.1868ZM21.0697 20.2746L21.3122 19.2652L20.8735 18.0704H21.2409L21.512 18.8194C21.5191 18.8372 21.5262 18.8658 21.5334 18.8943C21.5405 18.9264 21.5512 18.9585 21.5583 18.9942C21.5797 18.9585 21.6047 18.9264 21.6261 18.8943C21.6475 18.8622 21.6725 18.8337 21.6939 18.8087L22.3323 18.0704H22.6818L21.6546 19.2652L21.4121 20.2746H21.0697ZM20.1994 20.2746L20.0924 19.7075H19.24L18.8548 20.2746H18.4875L20.0782 17.9813L20.5704 20.2746H20.1994ZM19.4398 19.4079H20.0389L19.9391 18.905C19.9355 18.8729 19.9284 18.8372 19.9248 18.7944C19.9212 18.7516 19.9177 18.7053 19.9177 18.6553C19.8963 18.7017 19.8713 18.7481 19.8463 18.7909C19.8249 18.8337 19.8 18.8693 19.7786 18.905L19.4398 19.4079ZM17.9097 19.2866L17.6743 20.2782H17.3462L17.874 18.074H18.4019C18.5588 18.074 18.6729 18.0811 18.7407 18.099C18.8085 18.1168 18.8691 18.1453 18.9119 18.1846C18.9654 18.2345 19.0046 18.3058 19.0189 18.3914C19.0367 18.477 19.0332 18.5733 19.0082 18.6767C18.9832 18.7802 18.9404 18.8765 18.8834 18.9656C18.8227 19.0548 18.755 19.1226 18.6765 19.1725C18.6123 19.2117 18.541 19.2403 18.4625 19.2581C18.384 19.2759 18.2663 19.2831 18.1094 19.2831H17.9097V19.2866ZM17.9988 18.9906H18.088C18.2806 18.9906 18.4161 18.9692 18.491 18.9264C18.5659 18.8836 18.6159 18.8087 18.6444 18.6981C18.6729 18.5804 18.6587 18.4984 18.6016 18.4485C18.5445 18.3986 18.4233 18.3772 18.2378 18.3772H18.1486L17.9988 18.9906ZM14.2111 20.2746L14.739 18.0704H15.2097C15.5165 18.0704 15.7269 18.0847 15.8446 18.1168C15.9623 18.1489 16.0586 18.2024 16.1335 18.2773C16.2334 18.3736 16.2976 18.4984 16.3261 18.6518C16.3546 18.8051 16.3439 18.9799 16.2976 19.1761C16.2512 19.3722 16.1763 19.547 16.0764 19.6968C15.9766 19.8466 15.8517 19.9714 15.7055 20.0713C15.5949 20.1462 15.4737 20.1997 15.3453 20.2318C15.2169 20.2639 15.0279 20.2782 14.7746 20.2782H14.2111V20.2746ZM14.6391 19.95H14.9316C15.092 19.95 15.2169 19.9393 15.3025 19.9179C15.3881 19.8965 15.4665 19.8573 15.5414 19.8074C15.6413 19.736 15.7233 19.6469 15.7875 19.5399C15.8553 19.4329 15.9052 19.3116 15.9373 19.1689C15.9694 19.0298 15.9801 18.905 15.9659 18.798C15.9516 18.691 15.9124 18.6019 15.8482 18.5305C15.7982 18.477 15.7376 18.4414 15.6556 18.42C15.5771 18.3986 15.4451 18.3879 15.2668 18.3879H15.0136L14.6391 19.95ZM12.6097 20.2746L13.1375 18.0704H14.3359L14.2646 18.3736H13.4157L13.2838 18.9264H14.1326L14.0577 19.2403H13.2089L13.0377 19.9536H13.8865L13.8081 20.2746H12.6097ZM11.7573 20.2746L12.2851 18.0704H12.6347L12.1068 20.2746H11.7573ZM10.1737 20.2746L10.7015 18.0704H11.8999L11.8286 18.3736H10.9797L10.8478 18.9228H11.6966L11.6217 19.2367H10.7729L10.5232 20.2746H10.1737ZM9.32483 20.2746L9.85269 18.0704H10.2022L9.67436 20.2746H9.32483ZM6.9031 20.2746L7.45236 17.9813L8.49381 19.3294C8.52234 19.3687 8.55087 19.4079 8.57584 19.4507C8.60437 19.4935 8.63291 19.5434 8.66144 19.5969L9.0288 18.0669H9.35336L8.8041 20.3566L7.74125 18.9835C7.71272 18.9478 7.68775 18.9086 7.66279 18.8658C7.63782 18.823 7.61642 18.7802 7.59502 18.7374L7.22409 20.2746H6.9031Z" fill="#66686C"/>
</g>
<defs>
<clipPath id="clip0_944_39052">
<rect width="43.8266" height="16.3636" fill="white" transform="translate(4.72729 4.00012)"/>
</clipPath>
</defs>
</svg>
