<svg width="32" height="40" viewBox="0 0 32 40" fill="none" xmlns="http://www.w3.org/2000/svg">
<path d="M21.5226 3.92591L29.6543 19.7333C29.6587 19.742 29.6568 19.7526 29.6496 19.7592L12.3983 35.4145C12.3938 35.4186 12.3899 35.4218 12.3868 35.4242C12.3826 35.4226 12.3776 35.4202 12.3723 35.4169C12.367 35.4136 12.3627 35.4101 12.3593 35.4071C12.3601 35.4032 12.3613 35.3984 12.363 35.3925L21.4826 3.92978C21.4842 3.92432 21.4856 3.9202 21.4868 3.91722C21.4905 3.91601 21.4954 3.91484 21.5013 3.91427C21.5071 3.91371 21.5122 3.91391 21.516 3.91439C21.5178 3.91709 21.52 3.92085 21.5226 3.92591Z" fill="white" stroke="#5A5CE7" stroke-width="2.88"/>
<path d="M11.9801 3.92591L20.1118 19.7333C20.1163 19.742 20.1143 19.7526 20.1071 19.7592L2.8558 35.4145C2.85127 35.4186 2.84742 35.4218 2.8443 35.4242C2.84008 35.4226 2.8351 35.4202 2.82981 35.4169C2.82452 35.4136 2.82018 35.4101 2.81682 35.4071C2.81762 35.4032 2.81879 35.3984 2.82049 35.3925L11.9401 3.92978C11.9417 3.92432 11.9432 3.92019 11.9444 3.91721C11.948 3.91601 11.9529 3.91484 11.9588 3.91427C11.9647 3.9137 11.9697 3.91391 11.9735 3.91439C11.9753 3.91709 11.9775 3.92085 11.9801 3.92591Z" fill="#9EA0FF" stroke="#5A5CE7" stroke-width="2.88"/>
</svg>
