<svg width="27" height="28" viewBox="0 0 27 28" fill="none" xmlns="http://www.w3.org/2000/svg">
<g clip-path="url(#clip0_1_2592)">
<path d="M20.7952 5.30006C20.3293 5.5943 19.7786 5.72804 19.2284 5.6806C18.7954 5.63599 18.3808 5.48335 18.0233 5.23692C17.6657 4.99049 17.3768 4.65826 17.1834 4.27118C17.026 3.96621 16.9356 3.63152 16.9183 3.28929C16.9206 3.25656 16.9113 3.22407 16.8921 3.19741C16.8728 3.17075 16.8447 3.1516 16.8128 3.14325C16.7808 3.1349 16.7469 3.13788 16.7169 3.15168C16.6869 3.16547 16.6627 3.18921 16.6485 3.21882C15.4651 5.37993 11.6781 12.4035 11.6781 12.4035C11.6781 12.4035 11.4509 12.9062 11.2047 13.3431L6.32898 3.94702C5.83419 2.97827 4.98577 2.23332 3.95663 1.86404C2.92749 1.49477 1.79515 1.529 0.790551 1.95974L0 2.2933L5.76569 13.8129C5.72098 13.756 5.67987 13.6964 5.64261 13.6344L8.62014 19.5775C9.09351 20.5171 9.79883 21.4567 10.987 21.4567H11.3657C11.5053 21.4561 11.6447 21.4435 11.7822 21.4191C12.0431 21.3879 12.2946 21.3031 12.5207 21.1701C13.0473 20.8856 13.4524 20.4217 13.6615 19.8641L20.9704 5.50677C20.9847 5.47884 20.9896 5.44705 20.9843 5.41613C20.979 5.38522 20.9638 5.35683 20.9409 5.33518C20.918 5.31354 20.8888 5.2998 20.8574 5.29602C20.826 5.29223 20.7942 5.29859 20.7668 5.31415" fill="#5A5CE7"/>
<path d="M22.0924 2.53782C22.0924 2.96524 21.9646 3.38307 21.7254 3.73847C21.4861 4.09386 21.1461 4.37085 20.7482 4.53442C20.3503 4.69799 19.9124 4.74079 19.49 4.6574C19.0676 4.57401 18.6797 4.36819 18.3751 4.06595C18.0706 3.76372 17.8632 3.37864 17.7792 2.95943C17.6952 2.54021 17.7383 2.10569 17.9031 1.7108C18.0679 1.31591 18.347 0.978387 18.7051 0.740921C19.0632 0.503456 19.4842 0.376709 19.9149 0.376709C20.4924 0.376709 21.0462 0.604396 21.4546 1.00968C21.8629 1.41497 22.0924 1.96466 22.0924 2.53782Z" fill="#5A5CE7"/>
</g>
<defs>
<clipPath id="clip0_1_2592">
<rect width="26.25" height="27.5" fill="white"/>
</clipPath>
</defs>
</svg>
