<svg width="111" height="44" viewBox="0 0 111 44" fill="none" xmlns="http://www.w3.org/2000/svg">
<g id="Frame 20795">
<g id="Group 20520">
<g id="Vector">
<path d="M21.2246 17.0279C21.2246 12.5913 24.3235 9.60011 28.7406 9.60011C33.1578 9.60011 36.1397 12.4805 36.1397 16.9857V23.7593H32.2488V21.4698C31.8898 22.2942 31.2843 22.9893 30.5143 23.4611C29.7442 23.9328 28.8468 24.1585 27.9433 24.1075C24.8497 24.1075 21.2192 21.818 21.2192 17.0121M31.9139 16.8485C31.9139 14.865 30.617 13.4934 28.7247 13.4934C26.8324 13.4934 25.5354 14.865 25.5354 16.8485C25.5354 18.8321 26.827 20.1984 28.7247 20.1984C30.6223 20.1984 31.9139 18.8268 31.9139 16.8485Z" fill="#5A5CE7"/>
<path d="M38.8932 15.9942C38.8932 11.5575 41.4818 9.60036 44.8571 9.60036C45.7583 9.55998 46.6557 9.73995 47.4704 10.1245C48.2851 10.509 48.9922 11.0862 49.5294 11.8055C50.0647 11.0842 50.7714 10.5054 51.5865 10.1206C52.4017 9.73591 53.3001 9.55718 54.2017 9.60036C57.577 9.60036 60.1656 11.5575 60.1656 15.9942V23.7596H55.9451V15.9942C55.9451 14.153 55.0415 13.5094 53.7764 13.5094C52.5113 13.5094 51.6502 14.153 51.6502 15.9942V23.7596H47.4298V15.9942C47.4298 14.153 46.5315 13.5094 45.3036 13.5094C44.0758 13.5094 43.1349 14.153 43.1349 15.9942V23.7596H38.9145L38.8932 15.9942Z" fill="#5A5CE7"/>
<path d="M62.9189 17.0016C62.9189 12.3645 66.071 9.61599 70.3181 9.61599C74.7352 9.61599 77.8288 12.6072 77.8288 17.0438C77.8288 21.8497 74.2303 24.1392 71.0782 24.1392C70.3172 24.1723 69.5596 24.0187 68.8726 23.6921C68.1856 23.3654 67.5903 22.8758 67.1394 22.2664V29.652H62.9189V17.0016ZM73.5498 16.8644C73.5498 14.8809 72.2529 13.5092 70.3606 13.5092C68.4683 13.5092 67.1713 14.8809 67.1713 16.8644C67.1713 18.848 68.4629 20.2143 70.3606 20.2143C72.2582 20.2143 73.5498 18.8427 73.5498 16.8644Z" fill="#5A5CE7"/>
<path d="M79.4606 17.0279C79.4606 12.5913 82.5542 9.60011 86.9714 9.60011C91.3885 9.60011 94.3705 12.4805 94.3705 16.9857V23.7593H90.4902V21.4698C90.1306 22.2938 89.525 22.9884 88.7551 23.4601C87.9852 23.9318 87.0881 24.1577 86.1847 24.1075C83.0911 24.1075 79.4606 21.818 79.4606 17.0121M90.1501 16.8485C90.1501 14.865 88.8584 13.4934 86.9608 13.4934C85.0632 13.4934 83.7715 14.865 83.7715 16.8485C83.7715 18.8321 85.0632 20.1984 86.9608 20.1984C88.8584 20.1984 90.1501 18.8268 90.1501 16.8485Z" fill="#5A5CE7"/>
<path d="M97.2408 25.0996H101.461C101.881 26.0228 102.615 26.3868 103.965 26.3868C105.825 26.3868 106.623 25.5216 106.623 23.4273V22.0451C106.257 22.6243 105.745 23.0991 105.139 23.4228C104.532 23.7465 103.851 23.9081 103.162 23.8915C100.233 23.8915 97.1132 21.9343 97.1132 16.8805V9.96442H101.35V16.891C101.35 19.0698 102.413 19.9877 104.007 19.9877C105.602 19.9877 106.665 19.0117 106.665 16.891V9.96442H110.885V23.2848C110.885 28.0855 107.792 30.0163 103.975 30.0163C100.685 30.0163 97.953 28.5075 97.2514 25.0996" fill="#5A5CE7"/>
<path d="M23.3508 5.62789C22.8275 5.95829 22.2092 6.10846 21.5913 6.05519C21.1051 6.0051 20.6396 5.83371 20.2381 5.55699C19.8366 5.28027 19.5122 4.90722 19.2951 4.47257C19.1183 4.13012 19.0168 3.7543 18.9974 3.37001C19 3.33326 18.9896 3.29678 18.9679 3.26684C18.9463 3.23691 18.9148 3.2154 18.8789 3.20603C18.843 3.19665 18.8049 3.2 18.7713 3.21549C18.7376 3.23098 18.7104 3.25764 18.6944 3.29088C17.3656 5.71757 13.1132 13.6043 13.1132 13.6043C13.1132 13.6043 12.8581 14.1688 12.5817 14.6594L7.10675 4.10857C6.55116 3.02078 5.59848 2.18427 4.44286 1.76962C3.28725 1.35496 2.01575 1.39339 0.887703 1.87707L0 2.25162L6.47424 15.1869C6.42404 15.123 6.37788 15.0561 6.33604 14.9865L9.67947 21.6599C10.211 22.7149 11.003 23.77 12.3372 23.77H12.7624C12.9192 23.7693 13.0757 23.7552 13.2302 23.7278C13.5231 23.6927 13.8055 23.5975 14.0594 23.4482C14.6507 23.1287 15.1056 22.6079 15.3404 21.9817L23.5475 5.86C23.5636 5.82864 23.569 5.79294 23.5631 5.75822C23.5571 5.72351 23.54 5.69163 23.5144 5.66733C23.4887 5.64303 23.4558 5.6276 23.4206 5.62335C23.3854 5.61909 23.3497 5.62623 23.3189 5.64371" fill="#5A5CE7"/>
<path d="M24.8073 2.52619C24.8073 3.00615 24.6639 3.47532 24.3952 3.87439C24.1265 4.27345 23.7447 4.58449 23.2979 4.76816C22.8511 4.95183 22.3595 4.99989 21.8852 4.90625C21.4109 4.81262 20.9752 4.5815 20.6333 4.24212C20.2913 3.90274 20.0584 3.47035 19.9641 2.99961C19.8697 2.52888 19.9181 2.04096 20.1032 1.59754C20.2883 1.15412 20.6017 0.775121 21.0038 0.508473C21.4059 0.241825 21.8786 0.0995026 22.3622 0.0995026C23.0107 0.0995026 23.6326 0.355171 24.0912 0.810263C24.5497 1.26536 24.8073 1.88259 24.8073 2.52619Z" fill="#5A5CE7"/>
</g>
</g>
</g>
</svg>
