<svg width="54" height="25" viewBox="0 0 54 25" fill="none" xmlns="http://www.w3.org/2000/svg">
<path fill-rule="evenodd" clip-rule="evenodd" d="M19.0455 19.9475L21.7169 4.27222H25.9893L23.3163 19.9475H19.0455ZM38.8125 4.65863C37.966 4.34047 36.6396 4.00024 34.9831 4.00024C30.7616 3.99973 27.7873 6.12619 27.7623 9.17317C27.7385 11.4247 29.8854 12.6818 31.5061 13.4318C33.1691 14.1995 33.7283 14.6899 33.7203 15.3761C33.7097 16.4264 32.3921 16.9067 31.1641 16.9067C29.4541 16.9067 28.5456 16.6693 27.1424 16.0841L26.5917 15.8344L25.9919 19.3436C26.99 19.7814 28.8352 20.1605 30.7512 20.1803C35.2424 20.18 38.158 18.0787 38.1912 14.8249C38.2073 13.0415 37.0691 11.6848 34.6042 10.566C33.1107 9.84038 32.1959 9.35716 32.2058 8.62273C32.2058 7.97109 32.9799 7.27455 34.6525 7.27455C36.05 7.25249 37.0616 7.55742 37.8502 7.87507L38.2333 8.05569L38.8122 4.65889L38.8125 4.65863ZM49.7687 4.28701H46.4672C45.4444 4.28701 44.6789 4.56677 44.2296 5.58744L37.8845 19.9521H42.371C42.371 19.9521 43.1046 18.0211 43.2707 17.597C43.7612 17.597 48.1195 17.6038 48.7426 17.6038C48.8705 18.1524 49.2624 19.9524 49.2624 19.9524L53.2273 19.9521L49.769 4.28701H49.7687ZM44.5 14.3907C44.8535 13.4876 46.2022 10.0093 46.2022 10.0093C46.1773 10.0508 46.5528 9.1018 46.7687 8.51322L47.0578 9.86426C47.0578 9.86426 47.8756 13.6065 48.0466 14.391L44.4998 14.3907H44.5ZM15.4621 4.28364L11.2792 14.9731L10.8334 12.8009C10.0548 10.2966 7.62835 7.58389 4.91589 6.22559L8.74089 19.934L13.2614 19.9285L19.9878 4.28364H15.4621Z" fill="#191E70"/>
<path fill-rule="evenodd" clip-rule="evenodd" d="M7.39871 4.27429H0.509088L0.45459 4.6005C5.81462 5.89756 9.36116 9.03355 10.8334 12.8009L9.33521 5.59782C9.07673 4.60517 8.32647 4.30907 7.39871 4.27429Z" fill="#F7B600"/>
</svg>
