<svg width="41" height="41" viewBox="0 0 41 41" fill="none" xmlns="http://www.w3.org/2000/svg">
<path d="M17.8801 4.5924C19.0439 2.57672 21.9532 2.57672 23.117 4.5924L35.3364 25.757C36.5001 27.7727 35.0454 30.2923 32.7179 30.2923H8.27917C5.95167 30.2923 4.49698 27.7727 5.66073 25.757L17.8801 4.5924Z" fill="#FF9900"/>
<path d="M21.6692 11.5203V17.2851C21.6692 17.8966 21.6356 18.5013 21.5684 19.0993C21.5079 19.6972 21.4206 20.3187 21.3063 20.9638H19.4318C19.3175 20.3187 19.2268 19.6972 19.1597 19.0993C19.0992 18.5013 19.0689 17.8966 19.0689 17.2851V11.5203H21.6692ZM18.696 24.6827C18.696 24.461 18.7364 24.2527 18.817 24.0578C18.9043 23.8563 19.0219 23.6849 19.1697 23.5438C19.3175 23.396 19.4889 23.2818 19.6837 23.2012C19.8853 23.1138 20.1037 23.0701 20.3388 23.0701C20.5673 23.0701 20.7789 23.1138 20.9738 23.2012C21.1753 23.2818 21.35 23.396 21.4978 23.5438C21.6457 23.6849 21.7632 23.8563 21.8506 24.0578C21.9379 24.2527 21.9816 24.461 21.9816 24.6827C21.9816 24.9111 21.9379 25.1228 21.8506 25.3176C21.7632 25.5125 21.6457 25.6838 21.4978 25.8316C21.35 25.9727 21.1753 26.0836 20.9738 26.1642C20.7789 26.2448 20.5673 26.2851 20.3388 26.2851C20.1037 26.2851 19.8853 26.2448 19.6837 26.1642C19.4889 26.0836 19.3175 25.9727 19.1697 25.8316C19.0219 25.6838 18.9043 25.5125 18.817 25.3176C18.7364 25.1228 18.696 24.9111 18.696 24.6827Z" fill="white"/>
</svg>
