<svg width="54" height="25" viewBox="0 0 54 25" fill="none" xmlns="http://www.w3.org/2000/svg">
<g clip-path="url(#clip0_944_39043)">
<mask id="mask0_944_39043" style="mask-type:luminance" maskUnits="userSpaceOnUse" x="-167" y="-14" width="231" height="328">
<path d="M-166.041 -13.5267H63.2662V313.453H-166.041V-13.5267Z" fill="white"/>
</mask>
<g mask="url(#mask0_944_39043)">
<path d="M3.79224 14.8475C4.21783 14.8475 4.40468 14.2869 4.05867 14.0205C4.02176 13.9836 3.97678 13.9386 3.92372 13.8856C2.24211 12.5257 1.73348 12.8441 0.0518656 13.4323C-3.59411e-05 13.46 -3.59411e-05 13.5396 0.0518656 13.5672C0.560501 13.671 1.04146 13.9928 1.68158 14.6606L3.60539 14.8475C3.65845 14.8475 3.72073 14.8475 3.79224 14.8475ZM11.6917 8.04145L5.23164 14.5015C4.77837 14.979 4.11057 15.2212 3.44277 15.1658L1.8961 15.0343L3.49813 16.581C4.35278 17.3837 5.7126 17.2211 6.35272 16.2627L11.7989 8.12103C11.8266 8.06567 11.747 7.98609 11.6917 8.04145Z" fill="#EB1F48"/>
<path fill-rule="evenodd" clip-rule="evenodd" d="M14.0411 10.3633L15.2971 12.8442C15.3214 12.8719 15.3767 12.8719 15.4044 12.8442L16.6293 10.3633C16.6293 10.3079 16.657 10.2837 16.7365 10.2837H18.0721C18.0998 10.2837 18.124 10.3356 18.0998 10.3633L16.0445 14.287V16.2628C16.0445 16.3158 16.018 16.3423 15.9649 16.3423H14.7089C14.6559 16.3423 14.6293 16.3158 14.6293 16.2628V14.2594L12.574 10.3633C12.5464 10.3079 12.574 10.2837 12.6259 10.2837H13.9339C13.9892 10.2837 14.0134 10.3079 14.0411 10.3633ZM22.7987 15.1659V16.2628C22.7987 16.3158 22.771 16.3423 22.7156 16.3423H18.605C18.5519 16.3423 18.5254 16.3158 18.5254 16.2628V10.3633C18.5254 10.3102 18.5519 10.2837 18.605 10.2837H22.9301C22.9855 10.2837 23.0097 10.3356 22.9855 10.391C22.9301 10.5224 22.636 11.3252 22.6118 11.4048C22.5841 11.4567 22.5564 11.4843 22.5045 11.4843H19.9683C19.9314 11.4843 19.9129 11.5109 19.9129 11.5639V12.6331C19.9129 12.6862 19.9314 12.7127 19.9683 12.7127H22.2104C22.2635 12.7127 22.29 12.7392 22.29 12.7923V13.7784C22.29 13.8153 22.2635 13.8338 22.2104 13.8338H19.9683C19.9314 13.8338 19.9129 13.8603 19.9129 13.9133V15.0067C19.9129 15.0598 19.9314 15.0863 19.9683 15.0863H22.7156C22.771 15.0863 22.7987 15.1128 22.7987 15.1659ZM27.3348 11.5362H25.2519C24.9059 11.5362 24.7467 11.6989 24.7467 11.9653C24.7467 12.2317 24.9612 12.3632 25.4387 12.5501L26.2691 12.8442C27.2829 13.1936 27.7639 13.5916 27.7639 14.5811C27.7639 15.6226 27.0684 16.3423 25.546 16.3423H23.4907C23.4561 16.3423 23.4388 16.3158 23.4388 16.2628V15.1659C23.4388 15.1128 23.4561 15.0863 23.4907 15.0863H25.7086C26.1342 15.0863 26.321 14.8995 26.321 14.6054C26.321 14.287 26.1065 14.1279 25.5218 13.9133L24.7467 13.6469C23.9716 13.3805 23.3038 12.9514 23.3038 12.0172C23.3038 10.8684 24.1585 10.2837 25.4145 10.2837H27.3348C27.3879 10.2837 27.4144 10.3102 27.4144 10.3633V11.4567C27.4144 11.5097 27.3879 11.5362 27.3348 11.5362ZM30.5112 16.2628V10.3633C30.5112 10.3102 30.5378 10.2837 30.5908 10.2837H33.608C34.7568 10.2837 35.2377 11.1107 35.2377 11.858C35.2377 12.4463 34.9436 12.9791 34.4108 13.2179C35.1581 13.4601 35.5042 13.9652 35.5042 14.6884C35.5042 15.7264 34.7568 16.3423 33.5284 16.3423H30.5908C30.5378 16.3423 30.5112 16.3158 30.5112 16.2628ZM31.8987 11.5362V12.6573C31.8987 12.7104 31.9264 12.7369 31.9818 12.7369H33.1824C33.608 12.7369 33.8744 12.5258 33.8744 12.0968C33.8744 11.6989 33.6357 11.4567 33.1824 11.4567H31.9818C31.9264 11.4567 31.8987 11.4832 31.8987 11.5362ZM31.8987 13.9133V15.0863C31.8987 15.1394 31.9264 15.1659 31.9818 15.1659H33.3693C33.8502 15.1659 34.089 14.8995 34.089 14.5258C34.089 14.1279 33.8744 13.8338 33.3693 13.8338H31.9818C31.9264 13.8338 31.8987 13.8603 31.8987 13.9133ZM37.7463 10.2837H39.1615C39.2411 10.2837 39.2411 10.3079 39.2688 10.3633L41.2964 16.2628C41.2964 16.3147 41.2964 16.3423 41.2445 16.3423H39.9608C39.9089 16.3423 39.9089 16.3147 39.8812 16.2628L39.4798 15.0621C39.4798 15.0067 39.4533 14.9791 39.4002 14.9791H37.5595C37.5076 14.9791 37.4799 15.0067 37.4522 15.0621L37.0785 16.2628C37.0508 16.3147 37.0508 16.3423 36.9712 16.3423H35.7187C35.6633 16.3423 35.6391 16.3147 35.6633 16.2351L37.6667 10.3633C37.6667 10.3102 37.6933 10.2837 37.7463 10.2837ZM39.1615 13.9652L38.4937 11.7785C38.4937 11.7231 38.4418 11.7231 38.4418 11.7785L37.774 13.9652C37.7555 14.0183 37.7728 14.0448 37.8259 14.0448H39.1061C39.143 14.0448 39.1615 14.0183 39.1615 13.9652ZM43.0333 16.3423H41.805C41.7681 16.3423 41.7496 16.3158 41.7496 16.2628V10.3633C41.7496 10.3102 41.7681 10.2837 41.805 10.2837H42.7911L42.8465 10.3079L45.5696 13.858V10.3633C45.5696 10.3102 45.5869 10.2837 45.6215 10.2837H46.8498C46.9029 10.2837 46.9294 10.3102 46.9294 10.3633V16.287C46.9294 16.3147 46.9017 16.3423 46.8775 16.3423H45.9156L45.8603 16.3147L43.1129 12.7923V16.2628C43.1129 16.3158 43.0864 16.3423 43.0333 16.3423ZM47.9156 16.2628V10.3633C47.9156 10.3102 47.9432 10.2837 47.9986 10.2837H49.1993C49.2523 10.2837 49.2788 10.3102 49.2788 10.3633V12.7923C49.2788 12.8199 49.3307 12.8442 49.3584 12.7923L51.4691 10.3633C51.521 10.3079 51.5487 10.2837 51.6282 10.2837H52.9362C52.9881 10.2837 53.0157 10.3633 52.9638 10.391L50.8532 12.9514C50.8347 12.9699 50.8347 12.9964 50.8532 13.031L53.1507 16.2351C53.1749 16.287 53.1507 16.3423 53.0953 16.3423H51.7078C51.6559 16.3423 51.6282 16.3147 51.6282 16.287L49.9709 13.9652C49.9363 13.9306 49.9097 13.9306 49.8913 13.9652L49.3065 14.5811C49.2881 14.5973 49.2788 14.6146 49.2788 14.633V16.2628C49.2788 16.3158 49.2523 16.3423 49.1993 16.3423H47.9986C47.9432 16.3423 47.9156 16.3158 47.9156 16.2628Z" fill="#002EDA"/>
</g>
</g>
<defs>
<clipPath id="clip0_944_39043">
<rect width="53.1818" height="9.10008" fill="white" transform="translate(0 8)"/>
</clipPath>
</defs>
</svg>
